<?xml version="1.0" encoding="UTF-8"?>
<svg version="1.1" xmlns="http://www.w3.org/2000/svg" width="150" height="100">
<path d="M0 0 C1.32 0 2.64 0 4 0 C4.75 2.25 4.75 2.25 5 5 C3.0625 7.3125 3.0625 7.3125 1 9 C2.258125 9.2475 3.51625 9.495 4.8125 9.75 C7.83557727 10.48837994 8.8059483 10.79382006 11 13.125 C11.495 14.053125 11.495 14.053125 12 15 C12.66 13.68 13.32 12.36 14 11 C14 13.64 14 16.28 14 19 C14.66 14.71 15.32 10.42 16 6 C19.54674003 4.81775332 21.97522995 5.10670366 25.6875 5.4375 C26.86699219 5.53933594 28.04648438 5.64117188 29.26171875 5.74609375 C30.16535156 5.82988281 31.06898437 5.91367187 32 6 C32.495 9.96 32.495 9.96 33 14 C35.97 14.495 35.97 14.495 39 15 C39 15.66 39 16.32 39 17 C39.5775 17.0825 40.155 17.165 40.75 17.25 C43.6159304 18.20531013 44.9990764 19.78469173 47 22 C46.773125 21.319375 46.54625 20.63875 46.3125 19.9375 C45.87709824 15.84472345 47.20163215 13.66867041 49 10 C50.48113281 10.03480469 50.48113281 10.03480469 51.9921875 10.0703125 C53.91417969 10.09738281 53.91417969 10.09738281 55.875 10.125 C57.15117188 10.14820313 58.42734375 10.17140625 59.7421875 10.1953125 C63.08593338 10.35641524 63.08593338 10.35641524 65 8 C67.0234375 7.69921875 67.0234375 7.69921875 69.375 7.6875 C70.53128906 7.66236328 70.53128906 7.66236328 71.7109375 7.63671875 C74.65912591 8.10460531 75.95803272 8.81514111 78 11 C78.42578125 13.71484375 78.42578125 13.71484375 78.3125 16.9375 C78.27769531 18.08476563 78.24289063 19.23203125 78.20703125 20.4140625 C77.90643699 25.62058201 77.52356977 30.81104959 77 36 C77.99 36.33 78.98 36.66 80 37 C82.34998142 39.15414963 83.9131056 40.72637636 84.13671875 44.00390625 C83.86304235 46.91775498 83.4867556 49.3450015 81.71728516 51.72607422 C79.51791875 53.35762013 78.30264795 53.33530351 75.5859375 53.2578125 C74.74289063 53.24363281 73.89984375 53.22945312 73.03125 53.21484375 C72.1546875 53.18519531 71.278125 53.15554687 70.375 53.125 C68.63290947 53.08182866 66.89071658 53.04255119 65.1484375 53.0078125 C64.37677246 52.98348145 63.60510742 52.95915039 62.81005859 52.93408203 C60.97791274 52.79511916 60.97791274 52.79511916 60 54 C56.99668982 54.14193337 54.00782866 54.04236378 51 54 C50.67 56.97 50.34 59.94 50 63 C45.75849713 64.06037572 42.24707046 63.86454226 37.9609375 63.53515625 C28.1491969 62.88701294 18.44424768 63.09104283 8.625 63.4375 C6.95835658 63.49096389 5.29168966 63.54370058 3.625 63.59570312 C1.29413728 63.66850876 -1.03663836 63.74227495 -3.36727905 63.82188416 C-6.58167297 63.93139946 -9.78307243 64 -13 64 C-14.34164079 64.2981424 -15.67851173 64.62243192 -17 65 C-17 65.33 -17 65.66 -17 66 C-17.59167969 65.98839844 -18.18335938 65.97679688 -18.79296875 65.96484375 C-22.30122679 65.92478208 -25.49301061 65.89212992 -28.9375 66.625 C-29.618125 66.74875 -30.29875 66.8725 -31 67 C-31.66 66.34 -32.32 65.68 -33 65 C-33.66 65 -34.32 65 -35 65 C-34.46228519 61.62007831 -33.85696068 58.31262111 -33 55 C-34.32064453 54.81824219 -34.32064453 54.81824219 -35.66796875 54.6328125 C-36.82941406 54.46523437 -37.99085937 54.29765625 -39.1875 54.125 C-40.33605469 53.96257812 -41.48460937 53.80015625 -42.66796875 53.6328125 C-45.75204258 53.04709156 -48.23687571 52.48217324 -51 51 C-52.1796875 49.12109375 -52.1796875 49.12109375 -53 47 C-53.35320313 46.37222656 -53.70640625 45.74445312 -54.0703125 45.09765625 C-57.78856809 37.9228001 -58.58077249 30.08949647 -56.1640625 22.30859375 C-55.20837446 20.12775676 -54.16683278 18.07389622 -53 16 C-52.74992187 15.34128906 -52.49984375 14.68257812 -52.2421875 14.00390625 C-50.32903478 10.91759384 -48.19815368 9.6888303 -45 8 C-42.14401435 7.39422711 -39.35086575 7.2612883 -36.4375 7.1875 C-35.69564453 7.14947266 -34.95378906 7.11144531 -34.18945312 7.07226562 C-30.34299827 6.9112831 -26.67701633 6.77432789 -23 8 C-21 11 -21 11 -20 14 C-15.93975679 11.96197865 -15.93975679 11.96197865 -14 8 C-14.66 7.34 -15.32 6.68 -16 6 C-15.625 3.375 -15.625 3.375 -15 1 C-11.83884224 2.36983503 -11.0072908 2.9890638 -9 6 C-9 7.32 -9 8.64 -9 10 C-7.02 10 -5.04 10 -3 10 C-1.87119943 6.68885166 -0.78697325 3.41021743 0 0 Z M61 11 C62 14 62 14 62 14 Z M6 19 C6.66 20.98 7.32 22.96 8 25 C8.66 24.01 9.32 23.02 10 22 C9.34 21.01 8.68 20.02 8 19 C7.34 19 6.68 19 6 19 Z M-18 24 C-17 26 -17 26 -17 26 Z M10 24 C10 27 10 27 10 27 Z M-39 26 C-41.56687367 29.8503105 -40.83288724 31.58569763 -40 36 C-39.67 36 -39.34 36 -39 36 C-38.855625 34.72125 -38.71125 33.4425 -38.5625 32.125 C-38.29357254 29.74307106 -38.07773654 28.15547309 -37 26 C-37.66 26 -38.32 26 -39 26 Z M-19 26 C-19 29.63 -19 33.26 -19 37 C-18.67 37 -18.34 37 -18 37 C-18 33.37 -18 29.74 -18 26 C-18.33 26 -18.66 26 -19 26 Z M11 26 C9.62567543 29.81756824 10.32024961 33.07255329 11 37 C11.33 37 11.66 37 12 37 C12 33.37 12 29.74 12 26 C11.67 26 11.34 26 11 26 Z M33 32 C32.67 33.65 32.34 35.3 32 37 C32.66 37 33.32 37 34 37 C34 35.35 34 33.7 34 32 C33.67 32 33.34 32 33 32 Z M30 33 C31 35 31 35 31 35 Z M-22 34 C-21 36 -21 36 -21 36 Z M-18 37 C-17 39 -17 39 -17 39 Z M10 37 C11 39 11 39 11 39 Z M-21 38 C-20 40 -20 40 -20 40 Z M9 39 C10 41 10 41 10 41 Z M12 45 C11.67 45.99 11.34 46.98 11 48 C11.66 48 12.32 48 13 48 C12.67 47.01 12.34 46.02 12 45 Z M-19 46 C-19.20367187 46.62390625 -19.40734375 47.2478125 -19.6171875 47.890625 C-21.61717491 50.94145325 -23.62462074 51.00523846 -27.125 51.75 C-28.76855469 52.11351562 -28.76855469 52.11351562 -30.4453125 52.484375 C-31.70988281 52.73960938 -31.70988281 52.73960938 -33 53 C-31.515 53.99 -31.515 53.99 -30 55 C-28.8125 57.125 -28.8125 57.125 -28 59 C-28 58.01 -28 57.02 -28 56 C-27.01 56 -26.02 56 -25 56 C-24.01 57.485 -24.01 57.485 -23 59 C-23 57.68 -23 56.36 -23 55 C-22.236875 55.020625 -21.47375 55.04125 -20.6875 55.0625 C-17.89814214 55.12942841 -17.89814214 55.12942841 -15 54 C-14.67 54.99 -14.34 55.98 -14 57 C-13.34 57 -12.68 57 -12 57 C-11.34 57.20625 -10.68 57.4125 -10 57.625 C-9.34 57.74875 -8.68 57.8725 -8 58 C-7.34 57.34 -6.68 56.68 -6 56 C-6.66 56 -7.32 56 -8 56 C-8.33 54.68 -8.66 53.36 -9 52 C-9.94875 51.9175 -10.8975 51.835 -11.875 51.75 C-15 51 -15 51 -16.25 49 C-16.4975 48.34 -16.745 47.68 -17 47 C-17.66 46.67 -18.32 46.34 -19 46 Z M45 46 C43.49440461 47.96382007 42.10868317 49.78263366 41 52 C40.01 51.67 39.02 51.34 38 51 C36.26675881 51.08461492 34.53607188 51.23604355 32.8125 51.4375 C31.46091797 51.59025391 31.46091797 51.59025391 30.08203125 51.74609375 C29.39496094 51.82988281 28.70789063 51.91367188 28 52 C31.47109168 54.31406112 32.94878113 54.08619615 37 54 C37.66 54.33 38.32 54.66 39 55 C39.33 55.99 39.66 56.98 40 58 C40.33 56.68 40.66 55.36 41 54 C41.66 54 42.32 54 43 54 C43 54.99 43 55.98 43 57 C43.66 57 44.32 57 45 57 C45.99 54.69 46.98 52.38 48 50 C47.01 48.68 46.02 47.36 45 46 Z M13 48 C10.36 49.65 7.72 51.3 5 53 C5.66 54.65 6.32 56.3 7 58 C8.32 56.68 9.64 55.36 11 54 C11.33 54.99 11.66 55.98 12 57 C12.33 56.34 12.66 55.68 13 55 C13.99 55 14.98 55 16 55 C16.66 55.66 17.32 56.32 18 57 C18 56.01 18 55.02 18 54 C19.32 53.34 20.64 52.68 22 52 C20.88625 51.896875 19.7725 51.79375 18.625 51.6875 C16.830625 51.3471875 16.830625 51.3471875 15 51 C14.34 50.01 13.68 49.02 13 48 Z M23 51 C27 52 27 52 27 52 Z M49 52 C49.33 52.66 49.66 53.32 50 54 C54.455 53.505 54.455 53.505 59 53 C59 52.67 59 52.34 59 52 C55.7 52 52.4 52 49 52 Z M-3.125 52.4375 C-4.03507812 52.53933594 -4.94515625 52.64117187 -5.8828125 52.74609375 C-6.93082031 52.87177734 -6.93082031 52.87177734 -8 53 C-8 53.33 -8 53.66 -8 54 C-5.69 54.33 -3.38 54.66 -1 55 C-0.67 55.99 -0.34 56.98 0 58 C0.103125 57.360625 0.20625 56.72125 0.3125 56.0625 C0.539375 55.381875 0.76625 54.70125 1 54 C1.99 53.67 2.98 53.34 4 53 C1.37684968 51.68842484 -0.23033436 52.10350012 -3.125 52.4375 Z M22 53 C23.32 53.33 24.64 53.66 26 54 C26.33 56.64 26.66 59.28 27 62 C27.33 62 27.66 62 28 62 C27.67 59.03 27.34 56.06 27 53 C25.35 53 23.7 53 22 53 Z M4 54 C5 57 5 57 5 57 Z M35 54 C36 58 36 58 36 58 Z M-5 55 C-4 57 -4 57 -4 57 Z M28 55 C29 57 29 57 29 57 Z M-2 57 C-2 58.98 -2 60.96 -2 63 C-1.34 63 -0.68 63 0 63 C-0.33 61.02 -0.66 59.04 -1 57 C-1.33 57 -1.66 57 -2 57 Z M24 59 C25 62 25 62 25 62 Z " fill="#040401" transform="translate(63,15)"/>
<path d="M0 0 C1 1 1 1 1.25 3.3125 C0.94787232 6.56037258 0.28639189 7.69888885 -2 10 C-4.5234375 10.25 -4.5234375 10.25 -7.375 10 C-11.16338653 9.86971157 -12.69118663 9.83941705 -16.125 11.625 C-18.43232501 14.54761168 -18.92421688 16.28662723 -19 20 C-18.30514736 22.78223378 -18.30514736 22.78223378 -17 25 C-14.71294169 26.14352916 -13.40735238 26.10334439 -10.875 26.0625 C-8.956875 26.0315625 -8.956875 26.0315625 -7 26 C-7 25.01 -7 24.02 -7 23 C-7.804375 23.020625 -8.60875 23.04125 -9.4375 23.0625 C-12 23 -12 23 -13 22 C-12.71269945 19.66055264 -12.38063221 17.3260857 -12 15 C-7.32798795 13.79431947 -2.78503708 13.90617574 2 14 C2.34611328 13.22076172 2.34611328 13.22076172 2.69921875 12.42578125 C5.25693845 6.95650711 7.90567959 2.75623591 13.3125 -0.3125 C19.97731385 -2.01745238 24.98763759 -1.2897832 31 2 C35.72305216 5.8643154 38.41650568 10.05073968 39.3203125 16.16796875 C39.61589887 21.89249135 38.33846666 26.32818233 35 31 C30.72618343 35.3937451 27.40929745 37.16715602 21.3125 37.3125 C15.54591796 37.25725131 12.55720376 36.51284457 8 33 C5.5625 30.25 5.5625 30.25 4 28 C3.7628125 28.76699219 3.525625 29.53398438 3.28125 30.32421875 C1.36391901 34.32840085 -1.28476169 35.25836536 -5.20703125 37.046875 C-10.8545348 38.97413495 -16.36822378 39.12786493 -21.8125 36.5 C-26.47769646 33.34575369 -29.14551242 29.01319305 -30.66796875 23.64453125 C-31.75887921 16.85064333 -30.29575452 10.99827323 -27 5 C-20.00512691 -3.46481019 -9.41279642 -5.73951001 0 0 Z M30 6 C30.66 7.98 31.32 9.96 32 12 C32.66 11.01 33.32 10.02 34 9 C33.34 8.01 32.68 7.02 32 6 C31.34 6 30.68 6 30 6 Z M6 11 C7 13 7 13 7 13 Z M34 11 C34 14 34 14 34 14 Z M5 13 C5 16.63 5 20.26 5 24 C5.33 24 5.66 24 6 24 C6 20.37 6 16.74 6 13 C5.67 13 5.34 13 5 13 Z M35 13 C33.62567543 16.81756824 34.32024961 20.07255329 35 24 C35.33 24 35.66 24 36 24 C36 20.37 36 16.74 36 13 C35.67 13 35.34 13 35 13 Z M2 21 C3 23 3 23 3 23 Z M6 24 C7 26 7 26 7 26 Z M34 24 C35 26 35 26 35 26 Z M33 26 C34 28 34 28 34 28 Z " fill="#319716" transform="translate(39,28)"/>
<path d="M0 0 C0.9075 0.00257812 1.815 0.00515625 2.75 0.0078125 C4.11125 0.00394531 4.11125 0.00394531 5.5 0 C7.75 0.1328125 7.75 0.1328125 8.75 1.1328125 C8.82205511 2.81890216 8.83386068 4.50781909 8.8125 6.1953125 C8.80347656 7.11441406 8.79445313 8.03351562 8.78515625 8.98046875 C8.77355469 9.69074219 8.76195313 10.40101562 8.75 11.1328125 C9.41386719 11.08640625 10.07773438 11.04 10.76171875 10.9921875 C18.00160787 10.69625043 18.00160787 10.69625043 21.75 12.8828125 C25.85617315 17.5022573 26.19987102 21.32568664 26.0546875 27.375 C25.57219864 31.74214275 24.55623186 33.69517847 21.75 37.1328125 C17.83149663 40.12370556 14.37372577 41.50097705 9.4375 40.8828125 C8.220625 40.6353125 7.00375 40.3878125 5.75 40.1328125 C3.5415684 40.1328125 1.33310343 40.15724175 -0.875 40.1953125 C-4.25 40.1328125 -4.25 40.1328125 -5.25 39.1328125 C-5.80510503 29.7993023 -5.14681113 20.49094799 -4.3125 11.1953125 C-4.22572998 10.21796143 -4.13895996 9.24061035 -4.04956055 8.23364258 C-3.27741197 0.19345835 -3.27741197 0.19345835 0 0 Z M11.75 23.1328125 C11.42 24.7828125 11.09 26.4328125 10.75 28.1328125 C11.41 28.1328125 12.07 28.1328125 12.75 28.1328125 C12.75 26.4828125 12.75 24.8328125 12.75 23.1328125 C12.42 23.1328125 12.09 23.1328125 11.75 23.1328125 Z M8.75 24.1328125 C9.75 26.1328125 9.75 26.1328125 9.75 26.1328125 Z " fill="#FB8D02" transform="translate(84.25,23.8671875)"/>
<path d="M0 0 C5.65611463 -0.56561146 9.22642128 1.28608722 14 4 C14.33 3.01 14.66 2.02 15 1 C17.64 1 20.28 1 23 1 C23 1.99 23 2.98 23 4 C23.33 3.01 23.66 2.02 24 1 C32 1 32 1 34.12109375 1.03515625 C34.88550781 1.04417969 35.64992187 1.05320312 36.4375 1.0625 C37.58025391 1.07990234 37.58025391 1.07990234 38.74609375 1.09765625 C40.9895179 1.08557366 40.9895179 1.08557366 43.03515625 0.43359375 C45 0 45 0 49 1 C49.66 3.97 50.32 6.94 51 10 C45.80389251 10.1431099 40.60776615 10.28550675 35.41162109 10.42724609 C33.64436313 10.47555309 31.87711046 10.5240541 30.10986328 10.57275391 C27.56804757 10.64276457 25.02621357 10.71207493 22.484375 10.78125 C21.30134796 10.81406067 21.30134796 10.81406067 20.09442139 10.84753418 C16.72762627 10.93856577 13.3683456 11 10 11 C8.65835921 11.2981424 7.32148827 11.62243192 6 12 C6 12.33 6 12.66 6 13 C5.40832031 12.98839844 4.81664063 12.97679688 4.20703125 12.96484375 C0.69877321 12.92478208 -2.49301061 12.89212992 -5.9375 13.625 C-6.618125 13.74875 -7.29875 13.8725 -8 14 C-8.66 13.34 -9.32 12.68 -10 12 C-10.66 12 -11.32 12 -12 12 C-11.40049704 8.31733897 -10.75241109 4.65456815 -10 1 C-8.68 1 -7.36 1 -6 1 C-5.67 1.66 -5.34 2.32 -5 3 C-3.35 2.67 -1.7 2.34 0 2 C0 1.34 0 0.68 0 0 Z M18 2 C19 4 19 4 19 4 Z M21 4 C21 5.98 21 7.96 21 10 C21.66 10 22.32 10 23 10 C22.67 8.02 22.34 6.04 22 4 C21.67 4 21.34 4 21 4 Z M47 6 C48 9 48 9 48 9 Z " fill="#0A7914" transform="translate(40,68)"/>
<path d="M0 0 C1.36060204 5.7106959 0.73197655 10.98766419 0.125 16.75 C0.03347656 17.70777344 -0.05804688 18.66554688 -0.15234375 19.65234375 C-0.86013283 26.72026565 -0.86013283 26.72026565 -2 29 C-0.865625 29.144375 0.26875 29.28875 1.4375 29.4375 C5 30 5 30 6 31 C6.23529412 36.52941176 6.23529412 36.52941176 5 39 C2.37438891 39.08074203 -0.24875676 39.1403623 -2.875 39.1875 C-3.62136719 39.21263672 -4.36773437 39.23777344 -5.13671875 39.26367188 C-7.3046875 39.29296875 -7.3046875 39.29296875 -11 39 C-13.49571904 35.25642144 -13.09556747 32.62902736 -12.79296875 28.33984375 C-12.74811844 27.59416641 -12.70326813 26.84848907 -12.65705872 26.08021545 C-12.56024469 24.50554773 -12.45820295 22.93119396 -12.35131836 21.35717773 C-12.18792578 18.943789 -12.04083384 16.52982954 -11.89648438 14.11523438 C-11.80043344 12.58587727 -11.70345959 11.05657779 -11.60546875 9.52734375 C-11.56060837 8.80336899 -11.51574799 8.07939423 -11.4695282 7.33348083 C-11.11661296 2.23322592 -11.11661296 2.23322592 -10 0 C-6.30581799 -1.231394 -3.7943739 -0.64432764 0 0 Z " fill="#FB8C02" transform="translate(138,26)"/>
<path d="M0 0 C3.69079727 3.08996981 6.70451053 5.96337417 7.18359375 10.88671875 C7.31200274 14.973146 6.82627855 17.3474429 5 21 C5.30803455 24.18522204 5.30803455 24.18522204 6 27 C7.32 25.02 8.64 23.04 10 21 C10.99 21.33 11.98 21.66 13 22 C10.57068408 26.60291437 7.68796305 29.65601848 3 32 C-4.40188017 32.68515127 -10.0515955 32.68278652 -16 28 C-17.9375 25.25 -17.9375 25.25 -19 23 C-17.0625 23.3125 -17.0625 23.3125 -15 24 C-14.67 24.99 -14.34 25.98 -14 27 C-10.02584132 29.22085338 -6.4785979 29.17563129 -2 29 C-2.495 26.525 -2.495 26.525 -3 24 C-1.35 24 0.3 24 2 24 C2 23.34 2 22.68 2 22 C0.6696875 22.12375 0.6696875 22.12375 -0.6875 22.25 C-4.75318898 21.94315555 -6.01344064 20.67218469 -9 18 C-9.7425 17.67 -10.485 17.34 -11.25 17 C-13 16 -13 16 -13.75 13.875 C-13.87375 12.946875 -13.87375 12.946875 -14 12 C-13.34 12 -12.68 12 -12 12 C-11.67 12.66 -11.34 13.32 -11 14 C-10.90203125 13.32453125 -10.8040625 12.6490625 -10.703125 11.953125 C-9.48854962 4.70755462 -9.48854962 4.70755462 -7.1875 1.375 C-4.41450522 -0.36802529 -3.21454507 -0.70563184 0 0 Z " fill="#D88562" transform="translate(63,33)"/>
<path d="M0 0 C5.449936 3.67036506 8.42690816 7.80508844 10.75 14 C11.53460088 20.27680704 10.92163423 24.48135756 8 30 C7.01 30.66 6.02 31.32 5 32 C4.10928864 27.36830092 3.87811117 25.11896066 6 21 C6.45453431 15.3637745 6.14169008 11.88707346 3 7 C-0.24153166 4.8389789 -1.23692901 4.35752447 -5 5 C-8.40679831 7.93363187 -9.25884117 10.48757367 -9.75 14.8125 C-9.85011115 16.2072304 -9.93912884 17.60300686 -10 19 C-10.66 18.67 -11.32 18.34 -12 18 C-12 17.34 -12 16.68 -12 16 C-12.66 16 -13.32 16 -14 16 C-12.53542603 19.86114956 -10.57835176 21.07990881 -7 23 C-6.01 23.66 -5.02 24.32 -4 25 C-2.0103005 25.39013716 -0.00980131 25.73202649 2 26 C2 26.66 2 27.32 2 28 C0.35 28 -1.3 28 -3 28 C-2.34 29.98 -1.68 31.96 -1 34 C-9.7595092 34.44539877 -9.7595092 34.44539877 -14 31 C-14 30.34 -14 29.68 -14 29 C-14.99 28.34 -15.98 27.68 -17 27 C-19.58713519 20.13586674 -18.39342634 11.73151158 -16 5 C-15.34 5 -14.68 5 -14 5 C-13.67 4.01 -13.34 3.02 -13 2 C-10.03 2.495 -10.03 2.495 -7 3 C-7 2.34 -7 1.68 -7 1 C-4.33978324 -0.33010838 -2.96663565 -0.40454123 0 0 Z " fill="#0D0A06" transform="translate(63,29)"/>
<path d="M0 0 C1 1 1 1 1.1875 3.9375 C1 7 1 7 -1 9 C-0.34 9.66 0.32 10.32 1 11 C1.17387609 13.76728219 1.23190039 16.42299156 1.1875 19.1875 C1.18685547 19.93064453 1.18621094 20.67378906 1.18554688 21.43945312 C1.14916497 26.05187043 0.75333852 30.44983533 0 35 C-6.625 36.125 -6.625 36.125 -10 35 C-10.05799124 31.22923111 -10.09359306 27.45857666 -10.125 23.6875 C-10.14175781 22.61564453 -10.15851563 21.54378906 -10.17578125 20.43945312 C-10.18222656 19.41142578 -10.18867187 18.38339844 -10.1953125 17.32421875 C-10.20578613 16.37635498 -10.21625977 15.42849121 -10.22705078 14.4519043 C-10 12 -10 12 -8 9 C-8.66 8.34 -9.32 7.68 -10 7 C-10.375 4.5625 -10.375 4.5625 -10 2 C-6.88154874 -1.59821299 -4.38661903 -1.16976507 0 0 Z " fill="#FC8202" transform="translate(122,29)"/>
<path d="M0 0 C0.66 2.97 1.32 5.94 2 9 C-14.335 9.495 -14.335 9.495 -31 10 C-31 9.67 -31 9.34 -31 9 C-29.35 9 -27.7 9 -26 9 C-26.20625 8.071875 -26.4125 7.14375 -26.625 6.1875 C-27 3 -27 3 -25 0 C-22.5625 -0.1875 -22.5625 -0.1875 -20 0 C-19.01 0 -18.02 0 -17 0 C-16.27683594 0.01160156 -15.55367187 0.02320312 -14.80859375 0.03515625 C-13.63490234 0.04869141 -13.63490234 0.04869141 -12.4375 0.0625 C-11.65246094 0.07410156 -10.86742188 0.08570312 -10.05859375 0.09765625 C-1.56117427 -0.30544714 -1.56117427 -0.30544714 0 0 Z M-2 5 C-1 8 -1 8 -1 8 Z " fill="#027C12" transform="translate(89,69)"/>
<path d="M0 0 C0.99 0.66 1.98 1.32 3 2 C5.5254223 2.0255089 5.5254223 2.0255089 8.1875 1.625 C9.08855469 1.51414062 9.98960938 1.40328125 10.91796875 1.2890625 C11.60503906 1.19367188 12.29210937 1.09828125 13 1 C13 1.66 13 2.32 13 3 C10.03 3 7.06 3 4 3 C3.67 5.97 3.34 8.94 3 12 C-0.21206015 12.80301504 -1.93192598 13.10109934 -5.07421875 12.9140625 C-5.82380859 12.87023437 -6.57339844 12.82640625 -7.34570312 12.78125 C-8.50489258 12.70390625 -8.50489258 12.70390625 -9.6875 12.625 C-10.47189453 12.58117187 -11.25628906 12.53734375 -12.06445312 12.4921875 C-17.86903082 12.13096918 -17.86903082 12.13096918 -19 11 C-18.71269945 8.66055264 -18.38063221 6.3260857 -18 4 C-13.61569689 1.92963464 -13.61569689 1.92963464 -10.8125 2.25 C-9 3 -9 3 -7 5 C-6.67 4.34 -6.34 3.68 -6 3 C-5.34 3 -4.68 3 -4 3 C-4 3.99 -4 4.98 -4 6 C-3.34 6 -2.68 6 -2 6 C-2 4.68 -2 3.36 -2 2 C-1.34 2 -0.68 2 0 2 C0 1.34 0 0.68 0 0 Z M-12 3 C-11 7 -11 7 -11 7 Z " fill="#D76004" transform="translate(110,66)"/>
<path d="M0 0 C4.72190581 3.86337748 7.58058524 8.1269668 8.25 14.30859375 C8.36042027 18.51146544 8.10260736 21.28902366 6 25 C5.34 24.67 4.68 24.34 4 24 C4 19.71 4 15.42 4 11 C3.34 10.67 2.68 10.34 2 10 C1.95875 9.2575 1.9175 8.515 1.875 7.75 C0.66189874 3.93739602 -1.40773816 2.89061153 -4.7890625 0.9375 C-8.06902788 -0.45329804 -10.48287502 -0.36636719 -14 0 C-14 0.66 -14 1.32 -14 2 C-15.98 2 -17.96 2 -20 2 C-20.33 2.66 -20.66 3.32 -21 4 C-21.66 4 -22.32 4 -23 4 C-23.144375 4.78375 -23.28875 5.5675 -23.4375 6.375 C-24 9 -24 9 -25 11 C-25.09657872 12.7895469 -25.12980468 14.58285534 -25.125 16.375 C-25.12757812 17.33148438 -25.13015625 18.28796875 -25.1328125 19.2734375 C-25.01551878 21.68140854 -24.68675951 23.69990068 -24 26 C-24.99 26 -25.98 26 -27 26 C-29.08121021 19.62629372 -30.24920746 14.21210557 -27.3125 7.875 C-24.897882 3.48787716 -22.08999539 0.1862136 -17.6875 -2.3125 C-11.02268615 -4.01745238 -6.01236241 -3.2897832 0 0 Z " fill="#498603" transform="translate(70,30)"/>
<path d="M0 0 C2.43512055 0.0054081 4.87006046 -0.0000024 7.30517578 -0.00634766 C8.87158243 -0.00568756 10.43798897 -0.00440782 12.00439453 -0.00244141 C12.72323822 -0.00446564 13.44208191 -0.00648987 14.18270874 -0.00857544 C18.2394239 0.0101865 22.0630434 0.34673932 26.04345703 1.13037109 C26.04345703 1.79037109 26.04345703 2.45037109 26.04345703 3.13037109 C25.19642212 3.11466064 25.19642212 3.11466064 24.33227539 3.09863281 C2.815128 2.75971254 -18.54057714 4.07481463 -39.95654297 6.13037109 C-39.95654297 5.14037109 -39.95654297 4.15037109 -39.95654297 3.13037109 C-38.2077829 2.81100534 -36.4574238 2.5003976 -34.70654297 2.19287109 C-33.73201172 2.01884766 -32.75748047 1.84482422 -31.75341797 1.66552734 C-21.17136468 0.17402395 -10.66500939 -0.02823155 0 0 Z " fill="#F6AD06" transform="translate(81.95654296875,78.86962890625)"/>
<path d="M0 0 C3.69079727 3.08996981 6.70451053 5.96337417 7.18359375 10.88671875 C7.30488695 14.74669648 7.20959851 17.68560224 5 21 C3.35 21 1.7 21 0 21 C0.33 20.34 0.66 19.68 1 19 C1.66 19 2.32 19 3 19 C3.309375 18.38125 3.61875 17.7625 3.9375 17.125 C4.625 15.75 5.3125 14.375 6 13 C4.68 12.67 3.36 12.34 2 12 C2 12.66 2 13.32 2 14 C-0.97 14.66 -3.94 15.32 -7 16 C-7.33 14.68 -7.66 13.36 -8 12 C-6.35 11.67 -4.7 11.34 -3 11 C-3 10.34 -3 9.68 -3 9 C-4.65 8.67 -6.3 8.34 -8 8 C-8.36075949 3.55063291 -8.36075949 3.55063291 -6.8125 1.1875 C-4.26452085 -0.48186565 -2.99696745 -0.57085094 0 0 Z " fill="#FBCAA2" transform="translate(63,33)"/>
<path d="M0 0 C1 1 1 1 1.1875 3.9375 C1 7 1 7 -1 9 C-0.34 9.66 0.32 10.32 1 11 C1.1953125 13.8203125 1.1953125 13.8203125 1.125 17.125 C1.10695313 18.22070312 1.08890625 19.31640625 1.0703125 20.4453125 C1.03550781 21.70988281 1.03550781 21.70988281 1 23 C0.34 23 -0.32 23 -1 23 C-1 19.37 -1 15.74 -1 12 C-3.64 12.33 -6.28 12.66 -9 13 C-8.79375 12.38125 -8.5875 11.7625 -8.375 11.125 C-8.25125 10.42375 -8.1275 9.7225 -8 9 C-8.66 8.34 -9.32 7.68 -10 7 C-10.375 4.5625 -10.375 4.5625 -10 2 C-6.88154874 -1.59821299 -4.38661903 -1.16976507 0 0 Z " fill="#FDA503" transform="translate(122,29)"/>
<path d="M0 0 C5.65611463 -0.56561146 9.22642128 1.28608722 14 4 C14.33 3.01 14.66 2.02 15 1 C17.64 1 20.28 1 23 1 C22.34 3.97 21.68 6.94 21 10 C17.10885099 11.01911045 15.39403493 11.16782969 11.625 9.5625 C10.75875 9.046875 9.8925 8.53125 9 8 C9 7.01 9 6.02 9 5 C8.443125 5.20625 7.88625 5.4125 7.3125 5.625 C4.340462 6.10695211 2.68020059 5.26565028 0 4 C0 2.68 0 1.36 0 0 Z M18 2 C19 4 19 4 19 4 Z M3 6 C3.66 6.33 4.32 6.66 5 7 C4.01 7.66 3.02 8.32 2 9 C2.33 8.01 2.66 7.02 3 6 Z " fill="#027013" transform="translate(40,68)"/>
<path d="M0 0 C4.51617599 -0.07654536 8.59085217 -0.10228696 13 1 C13 4.3 13 7.6 13 11 C8.66666667 11 4.33333333 11 0 11 C-0.19491452 9.54263913 -0.38069358 8.08405407 -0.5625 6.625 C-0.66691406 5.81289062 -0.77132812 5.00078125 -0.87890625 4.1640625 C-1 2 -1 2 0 0 Z M8 2 C9 4 9 4 9 4 Z M7 8 C8 10 8 10 8 10 Z " fill="#F86B04" transform="translate(115,70)"/>
<path d="M0 0 C0.66 2.97 1.32 5.94 2 9 C-0.31 9 -2.62 9 -5 9 C-5.33 7.35 -5.66 5.7 -6 4 C-6.66 4.66 -7.32 5.32 -8 6 C-8 6.66 -8 7.32 -8 8 C-9.98 8 -11.96 8 -14 8 C-13.67 5.69 -13.34 3.38 -13 1 C-8.20862412 -0.6290678 -4.94367454 -1.20577428 0 0 Z M-2 5 C-1 8 -1 8 -1 8 Z " fill="#026911" transform="translate(89,69)"/>
<path d="M0 0 C0.99 0.33 1.98 0.66 3 1 C0.57068408 5.60291437 -2.31203695 8.65601848 -7 11 C-14.40188017 11.68515127 -20.0515955 11.68278652 -26 7 C-27.9375 4.25 -27.9375 4.25 -29 2 C-27.0625 2.3125 -27.0625 2.3125 -25 3 C-24.67 3.99 -24.34 4.98 -24 6 C-19.46508933 8.77946138 -14.13573047 8.52674159 -9 8 C-5.07002762 6.64237318 -3.50117979 5.7183577 -1.125 2.3125 C-0.75375 1.549375 -0.3825 0.78625 0 0 Z " fill="#DAB106" transform="translate(73,54)"/>
<path d="M0 0 C2.625 0.5625 2.625 0.5625 5 2 C6 4.375 6 4.375 6 7 C4.875 9.3125 4.875 9.3125 3 11 C0.4375 11.375 0.4375 11.375 -2 11 C-2.66 10.34 -3.32 9.68 -4 9 C-3.8125 5.5 -3.8125 5.5 -3 2 C-2.01 1.34 -1.02 0.68 0 0 Z M2 3 C1.67 4.65 1.34 6.3 1 8 C1.66 8 2.32 8 3 8 C3 6.35 3 4.7 3 3 C2.67 3 2.34 3 2 3 Z M-1 4 C0 6 0 6 0 6 Z " fill="#090501" transform="translate(94,44)"/>
<path d="M0 0 C0.33 1.32 0.66 2.64 1 4 C2.65 4 4.3 4 6 4 C6 5.32 6 6.64 6 8 C4.35 8 2.7 8 1 8 C1.7734375 9.1446875 1.7734375 9.1446875 2.5625 10.3125 C3.036875 11.199375 3.51125 12.08625 4 13 C3.67 13.99 3.34 14.98 3 16 C-3.76923077 12.55384615 -3.76923077 12.55384615 -4.9375 9.75 C-4.958125 9.1725 -4.97875 8.595 -5 8 C-4.34 8 -3.68 8 -3 8 C-2.67 8.66 -2.34 9.32 -2 10 C-1.34 6.7 -0.68 3.4 0 0 Z " fill="#B25D2E" transform="translate(54,37)"/>
<path d="M0 0 C3.64141154 4.74966722 4.5129692 7.96366481 4 14 C3 16.5 3 16.5 2 18 C0.35 18 -1.3 18 -3 18 C-2.67 17.34 -2.34 16.68 -2 16 C-1.34 16 -0.68 16 0 16 C0.4640625 15.071875 0.4640625 15.071875 0.9375 14.125 C1.625 12.75 2.3125 11.375 3 10 C1.35 9.67 -0.3 9.34 -2 9 C-2.6875 6.1875 -2.6875 6.1875 -3 3 C-1.5625 1.125 -1.5625 1.125 0 0 Z " fill="#F0BE95" transform="translate(66,36)"/>
<path d="M0 0 C0.625 1.75 0.625 1.75 1 4 C0.68160156 4.59296875 0.36320312 5.1859375 0.03515625 5.796875 C-1.24257326 8.51626914 -1.23271749 10.50742462 -1.1875 13.5 C-1.18105469 14.4384375 -1.17460938 15.376875 -1.16796875 16.34375 C-1.01857816 18.70620585 -0.66710889 20.73716665 0 23 C-0.99 23 -1.98 23 -3 23 C-5.14428355 16.43313163 -6.22733814 11.08126981 -3.0625 4.625 C-1.23849372 1.23849372 -1.23849372 1.23849372 0 0 Z " fill="#3B7E04" transform="translate(46,33)"/>
<path d="M0 0 C2.0625 0.4375 2.0625 0.4375 4 1 C4.02708567 2.60407328 4.04643483 4.2082785 4.0625 5.8125 C4.07410156 6.70582031 4.08570313 7.59914063 4.09765625 8.51953125 C4 11 4 11 3 14 C1.68 13.67 0.36 13.34 -1 13 C-1.02686553 11.02090602 -1.04633375 9.04171029 -1.0625 7.0625 C-1.07410156 5.96035156 -1.08570313 4.85820312 -1.09765625 3.72265625 C-1 1 -1 1 0 0 Z " fill="#087512" transform="translate(56,10)"/>
<path d="M0 0 C2.64 0.33 5.28 0.66 8 1 C8 1.66 8 2.32 8 3 C6.35 3 4.7 3 3 3 C3.66 4.98 4.32 6.96 5 9 C-0.39449293 9.27429625 -3.51925805 9.36055646 -8 6 C-7.67 5.01 -7.34 4.02 -7 3 C-6.67 3.66 -6.34 4.32 -6 5 C-3.47266765 5.65555119 -3.47266765 5.65555119 -1 6 C0.2981424 3.7763932 0.2981424 3.7763932 0 0 Z " fill="#041C18" transform="translate(57,54)"/>
<path d="M0 0 C3.63 0.33 7.26 0.66 11 1 C10.67 1.66 10.34 2.32 10 3 C8.68 2.67 7.36 2.34 6 2 C6.33 4.97 6.66 7.94 7 11 C5.68 11.33 4.36 11.66 3 12 C2.01 12.495 2.01 12.495 1 13 C1 9.66666667 1 6.33333333 1 3 C0.67 2.01 0.34 1.02 0 0 Z " fill="#01560A" transform="translate(19,69)"/>
<path d="M0 0 C0.66 0 1.32 0 2 0 C2 1.65 2 3.3 2 5 C-3.94 5 -9.88 5 -16 5 C-16.33 4.34 -16.66 3.68 -17 3 C-15.58800422 2.60777895 -14.17007236 2.23688941 -12.75 1.875 C-11.96109375 1.66617188 -11.1721875 1.45734375 -10.359375 1.2421875 C-7.54454125 0.95324761 -6.39539255 1.57900442 -4 3 C-2.6757713 3.36784131 -1.34386088 3.71202981 0 4 C-0.33 3.01 -0.66 2.02 -1 1 C-0.67 0.67 -0.34 0.34 0 0 Z " fill="#077A19" transform="translate(81,73)"/>
<path d="M0 0 C0.66 0.33 1.32 0.66 2 1 C1.67 1.99 1.34 2.98 1 4 C0.67 3.67 0.34 3.34 0 3 C-2.33297433 2.95907063 -4.66705225 2.95758277 -7 3 C-7 3.66 -7 4.32 -7 5 C-8.98 5 -10.96 5 -13 5 C-13.33 5.66 -13.66 6.32 -14 7 C-14.66 7 -15.32 7 -16 7 C-14.97386916 4.02422056 -14.03368909 3.02245939 -11.375 1.25 C-7.20471803 -0.29454888 -4.42362384 -0.29490826 0 0 Z " fill="#527C31" transform="translate(63,27)"/>
<path d="M0 0 C1.2065625 0.0309375 1.2065625 0.0309375 2.4375 0.0625 C2.2725 0.825625 2.1075 1.58875 1.9375 2.375 C1.34604604 5.09846236 1.34604604 5.09846236 1.4375 8.0625 C1.4375 8.3925 1.4375 8.7225 1.4375 9.0625 C-0.22861905 9.105221 -1.89632885 9.10313832 -3.5625 9.0625 C-3.8925 8.7325 -4.2225 8.4025 -4.5625 8.0625 C-3.70835153 0.0904476 -3.70835153 0.0904476 0 0 Z " fill="#F86E04" transform="translate(95.5625,68.9375)"/>
<path d="M0 0 C2.64 0 5.28 0 8 0 C7.34 2.97 6.68 5.94 6 9 C4.02 9.33 2.04 9.66 0 10 C0 9.34 0 8.68 0 8 C0.99 7.34 1.98 6.68 3 6 C2.2575 5.071875 2.2575 5.071875 1.5 4.125 C0 2 0 2 0 0 Z M3 1 C4 3 4 3 4 3 Z " fill="#027A16" transform="translate(55,69)"/>
<path d="M0 0 C1.32 0 2.64 0 4 0 C4.8125 2.1875 4.8125 2.1875 5 5 C2.75 7.8125 2.75 7.8125 0 10 C-0.99 10 -1.98 10 -3 10 C-2.690625 9.0925 -2.38125 8.185 -2.0625 7.25 C-1.2727737 4.83436662 -0.57050703 2.47219715 0 0 Z " fill="#FAA608" transform="translate(63,15)"/>
<path d="M0 0 C14.19 0 28.38 0 43 0 C43 0.33 43 0.66 43 1 C28.81 1 14.62 1 0 1 C0 0.67 0 0.34 0 0 Z " fill="#FD9400" transform="translate(65,83)"/>
<path d="M0 0 C0.66 0.33 1.32 0.66 2 1 C2 3.97 2 6.94 2 10 C0.02 10 -1.96 10 -4 10 C-3.38461538 3.47692308 -3.38461538 3.47692308 -1.4375 1.0625 C-0.7259375 0.5365625 -0.7259375 0.5365625 0 0 Z " fill="#FD730B" transform="translate(126,71)"/>
<path d="M0 0 C0.9075 0.00257812 1.815 0.00515625 2.75 0.0078125 C4.11125 0.00394531 4.11125 0.00394531 5.5 0 C7.75 0.1328125 7.75 0.1328125 8.75 1.1328125 C8.79080783 3.13239614 8.79254356 5.13326504 8.75 7.1328125 C8.09 6.8028125 7.43 6.4728125 6.75 6.1328125 C6.75 4.8128125 6.75 3.4928125 6.75 2.1328125 C4.44 2.4628125 2.13 2.7928125 -0.25 3.1328125 C-0.91 4.7828125 -1.57 6.4328125 -2.25 8.1328125 C-2.58 8.1328125 -2.91 8.1328125 -3.25 8.1328125 C-3.29241723 5.79986475 -3.29092937 3.46578683 -3.25 1.1328125 C-2.25 0.1328125 -2.25 0.1328125 0 0 Z " fill="#FEB604" transform="translate(84.25,23.8671875)"/>
<path d="M0 0 C3.16115776 1.36983503 3.9927092 1.9890638 6 5 C6 6.32 6 7.64 6 9 C4.35 9 2.7 9 1 9 C-0.61949011 6.42786866 -1.04408751 5.32330841 -0.625 2.25 C-0.41875 1.5075 -0.2125 0.765 0 0 Z " fill="#FC9F02" transform="translate(48,16)"/>
<path d="M0 0 C1.32 0 2.64 0 4 0 C4.66 2.97 5.32 5.94 6 9 C3.69 9 1.38 9 -1 9 C-1 7.02 -1 5.04 -1 3 C-0.34 2.67 0.32 2.34 1 2 C0.67 1.34 0.34 0.68 0 0 Z M2 5 C3 8 3 8 3 8 Z " fill="#34810F" transform="translate(85,69)"/>
<path d="M0 0 C0.33 0.66 0.66 1.32 1 2 C1.66 2 2.32 2 3 2 C2.67 3.32 2.34 4.64 2 6 C-0.375 6.625 -0.375 6.625 -3 7 C-3.66 6.34 -4.32 5.68 -5 5 C-5 3.68 -5 2.36 -5 1 C-3.35 0.67 -1.7 0.34 0 0 Z " fill="#EBA875" transform="translate(65,56)"/>
<path d="M0 0 C0.99 0 1.98 0 3 0 C3 1.32 3 2.64 3 4 C3.66 4.33 4.32 4.66 5 5 C4.67 5.66 4.34 6.32 4 7 C3.01 7.33 2.02 7.66 1 8 C1 8.66 1 9.32 1 10 C-1.31 10 -3.62 10 -6 10 C-6 9.67 -6 9.34 -6 9 C-4.35 9 -2.7 9 -1 9 C-1.20625 8.071875 -1.4125 7.14375 -1.625 6.1875 C-2 3 -2 3 0 0 Z " fill="#307F0F" transform="translate(64,69)"/>
<path d="M0 0 C0.99 0.33 1.98 0.66 3 1 C2.34 3.31 1.68 5.62 1 8 C-0.32 8 -1.64 8 -3 8 C-3.36923077 3.44615385 -3.36923077 3.44615385 -1.5 1.1875 C-1.005 0.795625 -0.51 0.40375 0 0 Z " fill="#FA6C07" transform="translate(111,71)"/>
<path d="M0 0 C0.99 0.33 1.98 0.66 3 1 C2.45730469 1.44730469 1.91460937 1.89460938 1.35546875 2.35546875 C-2.48879484 5.60404465 -5.76332678 8.38686148 -8 13 C-8.33 12.01 -8.66 11.02 -9 10 C-6.65504592 5.76104454 -4.09385025 2.62426298 0 0 Z " fill="#58BA0D" transform="translate(19,27)"/>
<path d="M0 0 C0.66 0 1.32 0 2 0 C2 0.66 2 1.32 2 2 C2.763125 2.12375 3.52625 2.2475 4.3125 2.375 C7 3 7 3 10 5 C9.67 6.32 9.34 7.64 9 9 C8.67 8.34 8.34 7.68 8 7 C6.11235097 6.31527335 6.11235097 6.31527335 3.9375 5.875 C3.20402344 5.70742188 2.47054687 5.53984375 1.71484375 5.3671875 C1.14894531 5.24601562 0.58304688 5.12484375 0 5 C0 3.35 0 1.7 0 0 Z " fill="#E59865" transform="translate(57,49)"/>
<path d="M0 0 C0.66 0 1.32 0 2 0 C2.12375 0.61875 2.2475 1.2375 2.375 1.875 C2.87197356 4.19120832 2.87197356 4.19120832 5 6 C2.03 6.66 -0.94 7.32 -4 8 C-4.33 6.68 -4.66 5.36 -5 4 C-3.35 3.67 -1.7 3.34 0 3 C0 2.01 0 1.02 0 0 Z " fill="#F8B283" transform="translate(60,41)"/>
<path d="M0 0 C4.43458973 1.3937282 6.87378374 3.60582235 10 7 C9.01 7.66 8.02 8.32 7 9 C6.21625 8.195625 5.4325 7.39125 4.625 6.5625 C2.28017144 4.01309583 2.28017144 4.01309583 0 3 C0 2.01 0 1.02 0 0 Z " fill="#47A809" transform="translate(65,28)"/>
<path d="M0 0 C1.65 0 3.3 0 5 0 C5.66 1.98 6.32 3.96 7 6 C4.36 5.01 1.72 4.02 -1 3 C-0.67 2.01 -0.34 1.02 0 0 Z " fill="#1E1611" transform="translate(58,29)"/>
<path d="M0 0 C-1.32 0.33 -2.64 0.66 -4 1 C-4.33 2.98 -4.66 4.96 -5 7 C-4.34 7.33 -3.68 7.66 -3 8 C-4.65 8 -6.3 8 -8 8 C-8.36075949 3.55063291 -8.36075949 3.55063291 -6.8125 1.1875 C-4.44017475 -0.36678206 -2.77958655 -0.22537188 0 0 Z " fill="#ECA87A" transform="translate(63,33)"/>
<path d="M0 0 C1.32 0.66 2.64 1.32 4 2 C4.24535485 4.94425817 4.17577792 6.65769564 2.8125 9.3125 C1 11 1 11 -1.6875 11.25 C-2.450625 11.1675 -3.21375 11.085 -4 11 C-2 9 0 7 2 5 C1.34 3.35 0.68 1.7 0 0 Z " fill="#55BA0E" transform="translate(36,27)"/>
<path d="M0 0 C2.97 0.495 2.97 0.495 6 1 C4 4 4 4 2 4.75 C0 5 0 5 -2 4 C-2.33 4.66 -2.66 5.32 -3 6 C-3 5.01 -3 4.02 -3 3 C-2.34 3 -1.68 3 -1 3 C-0.67 2.01 -0.34 1.02 0 0 Z " fill="#252018" transform="translate(50,31)"/>
<path d="M0 0 C2.97 0.495 2.97 0.495 6 1 C5.67 2.65 5.34 4.3 5 6 C2.525 5.01 2.525 5.01 0 4 C0 2.68 0 1.36 0 0 Z " fill="#016B10" transform="translate(130,76)"/>
<path d="M0 0 C2.64 0.33 5.28 0.66 8 1 C8 1.66 8 2.32 8 3 C6.35 3 4.7 3 3 3 C2.67 3.99 2.34 4.98 2 6 C1.34 5.34 0.68 4.68 0 4 C0 2.68 0 1.36 0 0 Z " fill="#A34B19" transform="translate(57,54)"/>
<path d="M0 0 C1.65 0 3.3 0 5 0 C5.33 1.32 5.66 2.64 6 4 C1.25 5.125 1.25 5.125 -1 4 C-0.67 2.68 -0.34 1.36 0 0 Z " fill="#EE5A01" transform="translate(115,70)"/>
<path d="M0 0 C1.32 0 2.64 0 4 0 C4.33 1.32 4.66 2.64 5 4 C4.38125 4.144375 3.7625 4.28875 3.125 4.4375 C0.96741678 4.93152225 0.96741678 4.93152225 -1 6 C-1.042721 4.33388095 -1.04063832 2.66617115 -1 1 C-0.67 0.67 -0.34 0.34 0 0 Z " fill="#016B0F" transform="translate(21,76)"/>
<path d="M0 0 C5.61 0.33 11.22 0.66 17 1 C17 1.33 17 1.66 17 2 C10.73960391 2.93213141 5.97802937 3.20927172 0 1 C0 0.67 0 0.34 0 0 Z " fill="#001800" transform="translate(126,68)"/>
<path d="M0 0 C0.33 0.66 0.66 1.32 1 2 C2.32 1.34 3.64 0.68 5 0 C4.6875 2.375 4.6875 2.375 4 5 C3.01 5.66 2.02 6.32 1 7 C0.67 4.69 0.34 2.38 0 0 Z " fill="#1F210F" transform="translate(67,54)"/>
<path d="M0 0 C0.93065133 2.60582371 1.14917407 3.64198224 0.0625 6.25 C-0.4634375 7.11625 -0.4634375 7.11625 -1 8 C-1.99 8 -2.98 8 -4 8 C-2.25 2.25 -2.25 2.25 0 0 Z " fill="#39AE0D" transform="translate(46,33)"/>
<path d="M0 0 C1.32 0 2.64 0 4 0 C4 2.31 4 4.62 4 7 C2.68 6.34 1.36 5.68 0 5 C0 3.35 0 1.7 0 0 Z " fill="#026315" transform="translate(30,69)"/>
<path d="M0 0 C0.33 0 0.66 0 1 0 C1 2.97 1 5.94 1 9 C-0.98 9.99 -0.98 9.99 -3 11 C-2.01 7.37 -1.02 3.74 0 0 Z " fill="#0D8F1E" transform="translate(41,51)"/>
<path d="M0 0 C1.98 0.495 1.98 0.495 4 1 C2.625 3.5 2.625 3.5 1 6 C0.34 6 -0.32 6 -1 6 C-0.67 4.02 -0.34 2.04 0 0 Z " fill="#037619" transform="translate(29,74)"/>
<path d="M0 0 C1.65 0.33 3.3 0.66 5 1 C5 1.99 5 2.98 5 4 C3.02 4 1.04 4 -1 4 C-1.33 3.34 -1.66 2.68 -2 2 C-1.34 2 -0.68 2 0 2 C0 1.34 0 0.68 0 0 Z " fill="#0F6911" transform="translate(131,71)"/>
<path d="M0 0 C0.66 0 1.32 0 2 0 C1.34 1.65 0.68 3.3 0 5 C2.31 5.33 4.62 5.66 7 6 C7 6.33 7 6.66 7 7 C4.66705225 7.04241723 2.33297433 7.04092937 0 7 C-1 6 -1 6 -1.125 3.5 C-1 1 -1 1 0 0 Z " fill="#FE7405" transform="translate(80,57)"/>
<path d="M0 0 C0.66 0.99 1.32 1.98 2 3 C1.34 4.32 0.68 5.64 0 7 C-0.99 7 -1.98 7 -3 7 C-3 3 -3 3 -1.5 1.25 C-1.005 0.8375 -0.51 0.425 0 0 Z " fill="#AD7D5D" transform="translate(66,36)"/>
<path d="M0 0 C0.33 1.32 0.66 2.64 1 4 C2.65 4 4.3 4 6 4 C6 5.32 6 6.64 6 8 C4 7 2 6 0 5 C0 3.35 0 1.7 0 0 Z " fill="#C88158" transform="translate(54,37)"/>
<path d="M0 0 C2.64 0 5.28 0 8 0 C7.67 0.66 7.34 1.32 7 2 C4.67843403 2.40729228 2.3431213 2.74438677 0 3 C0 2.01 0 1.02 0 0 Z " fill="#FBB404" transform="translate(83,79)"/>
<path d="M0 0 C2.64 0 5.28 0 8 0 C7.34 1.32 6.68 2.64 6 4 C5.01 3.67 4.02 3.34 3 3 C3.33 2.34 3.66 1.68 4 1 C2.68 0.67 1.36 0.34 0 0 Z " fill="#013609" transform="translate(55,69)"/>
<path d="M0 0 C0.33 0.66 0.66 1.32 1 2 C1.66 2.144375 2.32 2.28875 3 2.4375 C3.66 2.623125 4.32 2.80875 5 3 C5.33 3.99 5.66 4.98 6 6 C1.25 4.125 1.25 4.125 -1 3 C-0.67 2.01 -0.34 1.02 0 0 Z " fill="#192512" transform="translate(50,57)"/>
<path d="M0 0 C0.99 0 1.98 0 3 0 C3.33 1.65 3.66 3.3 4 5 C2.35 4.67 0.7 4.34 -1 4 C-0.67 2.68 -0.34 1.36 0 0 Z " fill="#349109" transform="translate(73,36)"/>
<path d="M0 0 C0.33 0 0.66 0 1 0 C1 4.29 1 8.58 1 13 C0.67 13 0.34 13 0 13 C0 8.71 0 4.42 0 0 Z " fill="#000000" transform="translate(4,40)"/>
<path d="M0 0 C0.33 0 0.66 0 1 0 C1 4.29 1 8.58 1 13 C0.67 13 0.34 13 0 13 C0 8.71 0 4.42 0 0 Z " fill="#000000" transform="translate(142,26)"/>
<path d="M0 0 C3.3 0 6.6 0 10 0 C10.33 0.66 10.66 1.32 11 2 C7.37 1.67 3.74 1.34 0 1 C0 0.67 0 0.34 0 0 Z " fill="#000000" transform="translate(82,19)"/>
<path d="M0 0 C3.63 0 7.26 0 11 0 C11 0.33 11 0.66 11 1 C7.37 1 3.74 1 0 1 C0 0.67 0 0.34 0 0 Z " fill="#FFAD00" transform="translate(54,84)"/>
<path d="M0 0 C0.33 0 0.66 0 1 0 C1 3.3 1 6.6 1 10 C0.67 10 0.34 10 0 10 C0 6.7 0 3.4 0 0 Z " fill="#000000" transform="translate(141,40)"/>
<path d="M0 0 C2.97 0 5.94 0 9 0 C9 0.33 9 0.66 9 1 C6.03 1 3.06 1 0 1 C0 0.67 0 0.34 0 0 Z " fill="#000000" transform="translate(128,21)"/>
<path d="M0 0 C2.31 0 4.62 0 7 0 C7 0.33 7 0.66 7 1 C4.69 1 2.38 1 0 1 C0 0.67 0 0.34 0 0 Z " fill="#FFA600" transform="translate(47,85)"/>
<path d="M0 0 C2.97 0.495 2.97 0.495 6 1 C5.01 1.33 4.02 1.66 3 2 C2.01 1.34 1.02 0.68 0 0 Z " fill="#000000" transform="translate(116,23)"/>
<path d="M0 0 C0.66 1.32 1.32 2.64 2 4 C1.34 4.66 0.68 5.32 0 6 C0 4.02 0 2.04 0 0 Z " fill="#2B7C00" transform="translate(61,13)"/>
<path d="M0 0 C0.33 0 0.66 0 1 0 C1 1.98 1 3.96 1 6 C0.34 5.34 -0.32 4.68 -1 4 C-0.625 1.875 -0.625 1.875 0 0 Z " fill="#369100" transform="translate(53,13)"/>
<path d="M0 0 C0.33 0 0.66 0 1 0 C1 1.98 1 3.96 1 6 C0.67 6 0.34 6 0 6 C0 4.02 0 2.04 0 0 Z " fill="#000000" transform="translate(148,57)"/>
<path d="M0 0 C1.65 0 3.3 0 5 0 C5 0.33 5 0.66 5 1 C3.35 1 1.7 1 0 1 C0 0.67 0 0.34 0 0 Z " fill="#FFA100" transform="translate(42,86)"/>
<path d="M0 0 C0.66 0.99 1.32 1.98 2 3 C1.01 2.67 0.02 2.34 -1 2 C-0.67 1.34 -0.34 0.68 0 0 Z " fill="#593B00" transform="translate(66,22)"/>
<path d="M0 0 C1.65 0 3.3 0 5 0 C5 0.33 5 0.66 5 1 C3.35 1 1.7 1 0 1 C0 0.67 0 0.34 0 0 Z " fill="#000000" transform="translate(22,21)"/>
<path d="M0 0 C0 3 0 3 0 3 Z " fill="#000000" transform="translate(107,32)"/>
<path d="M0 0 C4 1 4 1 4 1 Z " fill="#000000" transform="translate(31,21)"/>
<path d="M0 0 C4 1 4 1 4 1 Z " fill="#000000" transform="translate(27,20)"/>
<path d="" fill="#007100" transform="translate(0,0)"/>
<path d="M0 0 C3 1 3 1 3 1 Z " fill="#004600" transform="translate(51,70)"/>
<path d="M0 0 C0.33 0.66 0.66 1.32 1 2 C0.34 1.67 -0.32 1.34 -1 1 C-0.67 0.67 -0.34 0.34 0 0 Z " fill="#000000" transform="translate(144,67)"/>
<path d="" fill="#000000" transform="translate(0,0)"/>
<path d="" fill="#000000" transform="translate(0,0)"/>
<path d="" fill="#000000" transform="translate(0,0)"/>
<path d="" fill="#000000" transform="translate(0,0)"/>
<path d="" fill="#000000" transform="translate(0,0)"/>
<path d="" fill="#FF7F00" transform="translate(0,0)"/>
<path d="" fill="#FFD400" transform="translate(0,0)"/>
<path d="M0 0 C2 1 2 1 2 1 Z " fill="#006A00" transform="translate(34,83)"/>
<path d="M0 0 C2 1 2 1 2 1 Z " fill="#005500" transform="translate(28,81)"/>
<path d="M0 0 C2 1 2 1 2 1 Z " fill="#FF0000" transform="translate(110,80)"/>
<path d="M0 0 C2 1 2 1 2 1 Z " fill="#009400" transform="translate(22,80)"/>
<path d="" fill="#006A00" transform="translate(0,0)"/>
<path d="" fill="#006A00" transform="translate(0,0)"/>
<path d="" fill="#005500" transform="translate(0,0)"/>
<path d="" fill="#006A00" transform="translate(0,0)"/>
<path d="M0 0 C2 1 2 1 2 1 Z " fill="#000000" transform="translate(34,68)"/>
<path d="M0 0 C2 1 2 1 2 1 Z " fill="#000000" transform="translate(17,68)"/>
<path d="M0 0 C2 1 2 1 2 1 Z " fill="#000000" transform="translate(101,67)"/>
<path d="M0 0 C2 1 2 1 2 1 Z " fill="#000000" transform="translate(79,67)"/>
<path d="M0 0 C2 1 2 1 2 1 Z " fill="#00BF00" transform="translate(72,67)"/>
<path d="M0 0 C2 1 2 1 2 1 Z " fill="#000000" transform="translate(50,67)"/>
<path d="M0 0 C2 1 2 1 2 1 Z " fill="#000000" transform="translate(36,67)"/>
<path d="" fill="#000000" transform="translate(0,0)"/>
<path d="" fill="#000000" transform="translate(0,0)"/>
<path d="" fill="#000000" transform="translate(0,0)"/>
<path d="" fill="#000000" transform="translate(0,0)"/>
<path d="" fill="#000000" transform="translate(0,0)"/>
<path d="" fill="#000000" transform="translate(0,0)"/>
<path d="" fill="#000000" transform="translate(0,0)"/>
<path d="M0 0 C2 1 2 1 2 1 Z " fill="#000000" transform="translate(102,31)"/>
<path d="" fill="#000000" transform="translate(0,0)"/>
<path d="M0 0 C2 1 2 1 2 1 Z " fill="#000000" transform="translate(114,24)"/>
<path d="M0 0 C2 1 2 1 2 1 Z " fill="#000000" transform="translate(137,22)"/>
<path d="M0 0 C2 1 2 1 2 1 Z " fill="#000000" transform="translate(20,22)"/>
<path d="" fill="#FFFF00" transform="translate(0,0)"/>
<path d="M0 0 C2 1 2 1 2 1 Z " fill="#FFFF00" transform="translate(48,14)"/>
<path d="" fill="#FFFF00" transform="translate(0,0)"/>
<path d="" fill="#FF0000" transform="translate(0,0)"/>
<path d="" fill="#FF0000" transform="translate(0,0)"/>
<path d="" fill="#000000" transform="translate(0,0)"/>
<path d="" fill="#FF0000" transform="translate(0,0)"/>
<path d="" fill="#FFFF00" transform="translate(0,0)"/>
<path d="" fill="#FF0000" transform="translate(0,0)"/>
<path d="" fill="#FFFF00" transform="translate(0,0)"/>
<path d="" fill="#007F00" transform="translate(0,0)"/>
<path d="" fill="#FF7F00" transform="translate(0,0)"/>
<path d="" fill="#000000" transform="translate(0,0)"/>
<path d="" fill="#000000" transform="translate(0,0)"/>
<path d="" fill="#000000" transform="translate(0,0)"/>
<path d="" fill="#FF0000" transform="translate(0,0)"/>
<path d="" fill="#FF0000" transform="translate(0,0)"/>
<path d="" fill="#FFFF00" transform="translate(0,0)"/>
<path d="" fill="#000000" transform="translate(0,0)"/>
<path d="" fill="#000000" transform="translate(0,0)"/>
<path d="" fill="#000000" transform="translate(0,0)"/>
<path d="" fill="#000000" transform="translate(0,0)"/>
<path d="" fill="#000000" transform="translate(0,0)"/>
<path d="" fill="#000000" transform="translate(0,0)"/>
<path d="" fill="#000000" transform="translate(0,0)"/>
<path d="" fill="#000000" transform="translate(0,0)"/>
<path d="" fill="#000000" transform="translate(0,0)"/>
<path d="" fill="#000000" transform="translate(0,0)"/>
<path d="" fill="#000000" transform="translate(0,0)"/>
<path d="" fill="#000000" transform="translate(0,0)"/>
<path d="" fill="#000000" transform="translate(0,0)"/>
<path d="" fill="#000000" transform="translate(0,0)"/>
<path d="" fill="#000000" transform="translate(0,0)"/>
<path d="" fill="#000000" transform="translate(0,0)"/>
<path d="" fill="#000000" transform="translate(0,0)"/>
<path d="" fill="#336600" transform="translate(0,0)"/>
<path d="" fill="#000000" transform="translate(0,0)"/>
<path d="" fill="#007F00" transform="translate(0,0)"/>
<path d="" fill="#000000" transform="translate(0,0)"/>
<path d="" fill="#000000" transform="translate(0,0)"/>
<path d="" fill="#000000" transform="translate(0,0)"/>
<path d="" fill="#000000" transform="translate(0,0)"/>
<path d="" fill="#000000" transform="translate(0,0)"/>
<path d="" fill="#000000" transform="translate(0,0)"/>
<path d="" fill="#000000" transform="translate(0,0)"/>
<path d="" fill="#000000" transform="translate(0,0)"/>
<path d="" fill="#000000" transform="translate(0,0)"/>
<path d="" fill="#000000" transform="translate(0,0)"/>
<path d="" fill="#000000" transform="translate(0,0)"/>
<path d="" fill="#FFFF00" transform="translate(0,0)"/>
<path d="" fill="#000000" transform="translate(0,0)"/>
<path d="" fill="#000000" transform="translate(0,0)"/>
<path d="" fill="#000000" transform="translate(0,0)"/>
<path d="" fill="#FF7F00" transform="translate(0,0)"/>
<path d="" fill="#FF7F00" transform="translate(0,0)"/>
<path d="" fill="#FF7F00" transform="translate(0,0)"/>
<path d="" fill="#FFAA00" transform="translate(0,0)"/>
<path d="" fill="#FFAA00" transform="translate(0,0)"/>
<path d="" fill="#FF0000" transform="translate(0,0)"/>
<path d="" fill="#FF7F00" transform="translate(0,0)"/>
<path d="" fill="#FF7F00" transform="translate(0,0)"/>
<path d="" fill="#FF7F00" transform="translate(0,0)"/>
<path d="" fill="#FFFF00" transform="translate(0,0)"/>
<path d="" fill="#FFFF00" transform="translate(0,0)"/>
<path d="" fill="#000000" transform="translate(0,0)"/>
</svg>
