<svg xmlns="http://www.w3.org/2000/svg" xmlns:xlink="http://www.w3.org/1999/xlink" width="500" zoomAndPan="magnify" viewBox="0 0 375 374.999991" height="500" preserveAspectRatio="xMidYMid meet" version="1.0"><path fill="#000000" d="M 53.316406 287.351562 C 34.945312 287.351562 24.527344 283.9375 14.304688 273.933594 C 5.023438 265.304688 0.910156 267.34375 6.589844 277.816406 C 10.429688 284.839844 20.652344 291.664062 34.710938 296.214844 C 38.550781 297.589844 51.710938 298.257812 63.734375 297.824219 C 82.101562 297.15625 88.917969 295.3125 106.152344 286.683594 C 150.175781 264.832031 166.273438 235.214844 173.476562 223.996094 L 192.75 224.664062 C 237.632812 226.035156 284.125 207.167969 320.429688 172.644531 C 344.046875 150.402344 346.164062 144.402344 350.589844 136.75 L 353.996094 154.679688 C 362.222656 199.007812 374.089844 199.910156 368.527344 180.097656 C 362.652344 158.835938 372.992188 91.519531 364.882812 91.519531 C 362.613281 91.519531 360.578125 92.894531 360.578125 94.464844 C 360.578125 96.03125 355.601562 102.859375 349.257812 109.683594 C 337.234375 122.863281 302.335938 141.695312 285.296875 144.675781 C 271.238281 146.949219 274.878906 152.640625 289.605469 151.5 C 303.199219 150.597656 321.800781 144.675781 331.554688 138.125 C 343.578125 130.398438 338.132812 139.027344 322.035156 153.816406 C 278.953125 193.320312 234.265625 213.5625 189.613281 213.5625 C 181.234375 213.5625 178.960938 212.660156 180.332031 209.480469 C 184.640625 198.339844 188.046875 168.371094 186.441406 157.03125 C 178.296875 101.601562 135.210938 80.929688 114.335938 122.277344 C 97.339844 155.894531 109.558594 192.925781 143.59375 211.089844 C 150.839844 214.738281 156.753906 219.484375 156.753906 221.289062 C 156.753906 228.78125 110.8125 287.390625 53.355469 287.390625 Z M 152.40625 203.324219 C 121.347656 186.964844 109.324219 155.621094 122.484375 126.550781 C 145.003906 77.085938 188.085938 140.203125 167.839844 198.773438 C 164.195312 209.207031 164 209.207031 152.40625 203.324219 Z M 152.40625 203.324219 " fill-opacity="1" fill-rule="nonzero"/></svg>