<svg xmlns="http://www.w3.org/2000/svg" xmlns:xlink="http://www.w3.org/1999/xlink" width="500" zoomAndPan="magnify" viewBox="0 0 375 374.999991" height="500" preserveAspectRatio="xMidYMid meet" version="1.0"><defs><clipPath id="53df6de3be"><path d="M 0 40 L 375 40 L 375 330 L 0 330 Z M 0 40 " clip-rule="nonzero"/></clipPath><clipPath id="dc0bff01ae"><path d="M 386.703125 98.363281 L 348.15625 329.167969 L -0.269531 270.976562 L 38.277344 40.175781 Z M 386.703125 98.363281 " clip-rule="nonzero"/></clipPath><clipPath id="6501d7aee4"><path d="M 3 57 L 372 57 L 372 240 L 3 240 Z M 3 57 " clip-rule="nonzero"/></clipPath><clipPath id="ab2143d4a9"><path d="M 386.703125 58.363281 L 348.15625 289.167969 L -0.269531 230.976562 L 38.277344 0.175781 Z M 386.703125 58.363281 " clip-rule="nonzero"/></clipPath><clipPath id="7ca74354ba"><path d="M 348.113281 289.421875 L 386.660156 58.617188 L 38.234375 0.429688 L -0.3125 231.230469 Z M 348.113281 289.421875 " clip-rule="nonzero"/></clipPath><clipPath id="b8ee6fb89d"><path d="M 348.113281 289.421875 L 386.660156 58.617188 L 38.234375 0.429688 L -0.3125 231.230469 Z M 348.113281 289.421875 " clip-rule="nonzero"/></clipPath><clipPath id="1afabd94ca"><path d="M 348.113281 289.421875 L 386.660156 58.617188 L 38.234375 0.429688 L -0.3125 231.230469 Z M 348.113281 289.421875 " clip-rule="nonzero"/></clipPath><clipPath id="33f9421629"><rect x="0" width="375" y="0" height="290"/></clipPath></defs><g clip-path="url(#53df6de3be)"><g clip-path="url(#dc0bff01ae)"><g transform="matrix(1, 0, 0, 1, 0, 40)"><g clip-path="url(#33f9421629)"><g clip-path="url(#6501d7aee4)"><g clip-path="url(#ab2143d4a9)"><g clip-path="url(#7ca74354ba)"><g clip-path="url(#b8ee6fb89d)"><g clip-path="url(#1afabd94ca)"><path fill="#000000" d="M 369.96875 61.871094 C 377.304688 114.640625 352.355469 169.367188 311.035156 202.179688 C 260.996094 241.902344 194.339844 239.132812 134.433594 231.035156 C 100.847656 226.511719 67.09375 220.535156 33.140625 220.644531 C 41.605469 224.234375 50.011719 227.746094 58.398438 231.390625 C 63.546875 233.613281 59.957031 241.242188 54.765625 239.285156 C 38.644531 232.988281 22.546875 226.5625 6.539062 220.011719 C 1.886719 218.078125 3.652344 211.574219 8.074219 210.816406 C 18.777344 209.132812 29.054688 205.136719 38.09375 199.167969 C 42.457031 196.292969 46.542969 193.03125 50.222656 189.359375 C 54.234375 185.339844 57.152344 180.519531 60.917969 176.320312 C 64.507812 172.367188 71.136719 176.328125 68.863281 181.390625 C 66.476562 186.703125 61.847656 191.574219 57.757812 195.652344 C 53.339844 200.082031 48.523438 204.039062 43.25 207.441406 C 41.871094 208.367188 40.433594 209.214844 39.007812 209.996094 C 97.011719 211.117188 154.035156 228.324219 212.292969 225.472656 C 241.007812 224.078125 269.789062 217.394531 294.109375 201.53125 C 315.429688 187.679688 332.746094 168.0625 344.335938 145.585938 C 357.503906 120.175781 363.261719 91.417969 360.320312 62.910156 C 359.726562 56.691406 369.148438 55.75 369.96875 61.871094 Z M 369.96875 61.871094 " fill-opacity="1" fill-rule="nonzero"/></g></g></g></g></g></g></g></g></g></svg>