<svg xmlns="http://www.w3.org/2000/svg" xmlns:xlink="http://www.w3.org/1999/xlink" width="500" zoomAndPan="magnify" viewBox="0 0 375 374.999991" height="500" preserveAspectRatio="xMidYMid meet" version="1.0"><defs><clipPath id="b7d405a841"><path d="M 137 79.207031 L 139 79.207031 L 139 81 L 137 81 Z M 137 79.207031 " clip-rule="nonzero"/></clipPath><clipPath id="bbd2b2149a"><path d="M 9.175781 100 L 334 100 L 334 274 L 9.175781 274 Z M 9.175781 100 " clip-rule="nonzero"/></clipPath><clipPath id="799a1b64da"><path d="M 303 220 L 366 220 L 366 295.957031 L 303 295.957031 Z M 303 220 " clip-rule="nonzero"/></clipPath></defs><g clip-path="url(#b7d405a841)"><path fill="#ff6200" d="M 137.605469 80.363281 C 138.441406 80.453125 138.164062 79.710938 138.257812 79.523438 C 136.863281 79.617188 137.605469 80.546875 137.605469 80.363281 Z M 137.605469 80.363281 " fill-opacity="1" fill-rule="nonzero"/></g><path fill="#ff6200" d="M 124.121094 82.035156 L 124.308594 81.757812 C 123.65625 82.035156 123.003906 82.3125 122.355469 82.59375 Z M 124.121094 82.035156 " fill-opacity="1" fill-rule="nonzero"/><path fill="#ff6200" d="M 111.753906 83.058594 C 112.402344 83.617188 113.519531 83.429688 114.726562 83.152344 C 115.9375 82.871094 117.332031 82.5 118.449219 82.59375 L 118.820312 82.871094 L 119.75 81.757812 C 118.449219 81.941406 116.867188 82.3125 115.472656 82.59375 C 113.984375 82.871094 112.683594 83.058594 111.753906 83.058594 Z M 111.753906 83.058594 " fill-opacity="1" fill-rule="nonzero"/><path fill="#ff6200" d="M 104.683594 81.199219 C 105.148438 81.664062 103.289062 81.847656 106.265625 81.105469 C 106.078125 81.105469 106.078125 81.011719 105.988281 81.011719 C 105.613281 81.011719 105.242188 81.105469 104.683594 81.199219 Z M 104.683594 81.199219 " fill-opacity="1" fill-rule="nonzero"/><path fill="#ff6200" d="M 105.894531 81.011719 C 107.289062 80.734375 104.964844 80.734375 105.894531 81.011719 Z M 105.894531 81.011719 " fill-opacity="1" fill-rule="nonzero"/><path fill="#ff6200" d="M 99.941406 82.40625 C 100.5 82.128906 101.058594 81.847656 101.617188 81.570312 C 101.152344 81.382812 99.664062 81.570312 100.128906 81.199219 C 98.359375 81.941406 98.824219 82.128906 99.941406 82.40625 Z M 99.941406 82.40625 " fill-opacity="1" fill-rule="nonzero"/><path fill="#ff6200" d="M 98.453125 83.710938 L 99.289062 83.335938 C 99.105469 83.246094 98.917969 83.246094 98.453125 83.710938 Z M 98.453125 83.710938 " fill-opacity="1" fill-rule="nonzero"/><path fill="#ff6200" d="M 101.152344 82.59375 C 100.5 82.871094 99.941406 83.152344 99.382812 83.429688 C 99.664062 83.617188 99.753906 83.988281 100.21875 83.058594 C 100.128906 83.429688 100.40625 82.964844 101.152344 82.59375 Z M 101.152344 82.59375 " fill-opacity="1" fill-rule="nonzero"/><path fill="#ff6200" d="M 102.265625 82.5 C 103.289062 82.59375 104.589844 82.5 102.917969 83.335938 C 106.171875 82.59375 105.523438 81.757812 102.265625 82.5 Z M 102.265625 82.5 " fill-opacity="1" fill-rule="nonzero"/><path fill="#ff6200" d="M 111.289062 84.453125 L 112.589844 84.730469 L 113.613281 84.175781 C 113.148438 84.359375 111.101562 84.082031 111.289062 84.453125 Z M 111.289062 84.453125 " fill-opacity="1" fill-rule="nonzero"/><path fill="#ff6200" d="M 89.0625 84.453125 C 89.0625 84.730469 89.804688 85.011719 90.082031 85.289062 L 91.292969 84.640625 C 90.546875 84.640625 89.246094 84.824219 89.0625 84.453125 Z M 89.0625 84.453125 " fill-opacity="1" fill-rule="nonzero"/><path fill="#ff6200" d="M 90.082031 85.382812 C 89.527344 85.664062 88.96875 86.035156 88.410156 86.40625 C 89.992188 85.847656 90.269531 85.664062 90.082031 85.382812 Z M 90.082031 85.382812 " fill-opacity="1" fill-rule="nonzero"/><path fill="#ff6200" d="M 98.546875 85.289062 C 99.476562 84.730469 100.40625 84.175781 101.429688 83.617188 C 100.21875 84.175781 99.105469 84.824219 97.988281 85.476562 Z M 98.546875 85.289062 " fill-opacity="1" fill-rule="nonzero"/><path fill="#ff6200" d="M 81.898438 86.777344 L 82.738281 85.847656 L 81.25 87.429688 Z M 81.898438 86.777344 " fill-opacity="1" fill-rule="nonzero"/><path fill="#ff6200" d="M 77.34375 88.636719 C 77.902344 87.894531 75.949219 88.265625 76.597656 87.613281 C 75.390625 88.265625 74.460938 89.101562 73.714844 89.941406 C 74.644531 89.289062 75.761719 88.824219 77.34375 88.636719 Z M 77.34375 88.636719 " fill-opacity="1" fill-rule="nonzero"/><path fill="#ff6200" d="M 72.320312 91.148438 C 72.785156 90.777344 73.15625 90.40625 73.714844 89.941406 C 73.25 90.3125 72.785156 90.683594 72.320312 91.148438 Z M 72.320312 91.148438 " fill-opacity="1" fill-rule="nonzero"/><path fill="#ff6200" d="M 85.15625 87.242188 C 84.96875 87.148438 84.503906 86.777344 83.480469 86.964844 C 83.851562 87.148438 84.132812 87.335938 84.503906 87.429688 C 84.691406 87.429688 84.875 87.335938 85.15625 87.242188 Z M 85.15625 87.242188 " fill-opacity="1" fill-rule="nonzero"/><path fill="#ff6200" d="M 84.410156 87.523438 C 83.667969 87.707031 83.109375 87.894531 82.828125 87.988281 C 83.015625 87.988281 83.480469 87.800781 84.410156 87.523438 Z M 84.410156 87.523438 " fill-opacity="1" fill-rule="nonzero"/><path fill="#ff6200" d="M 85.339844 87.242188 C 85.246094 87.242188 85.246094 87.242188 85.15625 87.335938 C 85.246094 87.335938 85.339844 87.335938 85.339844 87.242188 Z M 85.339844 87.242188 " fill-opacity="1" fill-rule="nonzero"/><path fill="#ff6200" d="M 93.433594 85.753906 C 92.410156 86.5 90.363281 87.523438 92.6875 87.613281 C 93.339844 86.871094 91.945312 86.871094 93.433594 85.753906 Z M 93.433594 85.753906 " fill-opacity="1" fill-rule="nonzero"/><path fill="#ff6200" d="M 86.550781 87.894531 L 88.597656 87.429688 C 88.503906 87.242188 88.039062 87.058594 88.503906 86.683594 Z M 86.550781 87.894531 " fill-opacity="1" fill-rule="nonzero"/><path fill="#ff6200" d="M 85.714844 88.453125 L 86.550781 87.894531 L 85.804688 87.988281 Z M 85.714844 88.453125 " fill-opacity="1" fill-rule="nonzero"/><path fill="#ff6200" d="M 75.949219 90.5 C 75.296875 91.148438 74.367188 91.613281 73.34375 92.078125 C 74.460938 91.800781 75.667969 91.335938 76.691406 90.871094 C 76.785156 90.589844 77.0625 89.941406 75.949219 90.5 Z M 75.949219 90.5 " fill-opacity="1" fill-rule="nonzero"/><path fill="#ff6200" d="M 80.039062 89.011719 C 79.945312 89.011719 79.945312 89.101562 79.855469 89.101562 C 80.039062 89.101562 80.132812 89.101562 80.039062 89.011719 Z M 80.039062 89.011719 " fill-opacity="1" fill-rule="nonzero"/><path fill="#ff6200" d="M 63.671875 96.914062 C 63.765625 96.914062 63.859375 96.914062 63.859375 96.914062 C 63.859375 96.820312 63.859375 96.820312 63.859375 96.730469 Z M 63.671875 96.914062 " fill-opacity="1" fill-rule="nonzero"/><path fill="#ff6200" d="M 76.972656 90.871094 C 77.808594 90.683594 78.273438 90.3125 78.644531 89.847656 C 78.085938 90.125 77.4375 90.5 76.785156 90.777344 C 76.691406 90.964844 76.691406 91.054688 76.972656 90.871094 Z M 76.972656 90.871094 " fill-opacity="1" fill-rule="nonzero"/><path fill="#ff6200" d="M 69.71875 92.824219 C 70.183594 92.730469 70.738281 92.636719 71.296875 92.542969 C 70.832031 92.542969 69.808594 92.542969 69.71875 92.824219 Z M 69.71875 92.824219 " fill-opacity="1" fill-rule="nonzero"/><path fill="#ff6200" d="M 79.574219 89.011719 C 79.574219 89.011719 79.667969 88.917969 79.667969 88.917969 C 79.296875 88.917969 79.390625 88.917969 79.574219 89.011719 Z M 79.574219 89.011719 " fill-opacity="1" fill-rule="nonzero"/><path fill="#ff6200" d="M 79.574219 89.011719 C 79.203125 89.289062 78.925781 89.566406 78.644531 89.847656 C 79.109375 89.566406 79.574219 89.382812 79.945312 89.101562 C 79.761719 89.101562 79.667969 89.101562 79.574219 89.011719 Z M 79.574219 89.011719 " fill-opacity="1" fill-rule="nonzero"/><path fill="#ff6200" d="M 63.394531 102.867188 C 63.113281 102.121094 64.789062 100.449219 66.835938 100.261719 C 68.230469 98.867188 65.996094 97.285156 63.859375 96.914062 C 63.953125 97.195312 64.136719 97.472656 62.554688 98.867188 C 63.394531 98.867188 66.925781 97.566406 65.71875 98.960938 C 63.578125 100.542969 63.671875 99.796875 62.371094 100.078125 C 63.765625 100.355469 60.136719 102.867188 61.347656 103.796875 L 63.113281 102.214844 C 63.300781 102.308594 62.742188 103.054688 63.394531 102.867188 Z M 63.394531 102.867188 " fill-opacity="1" fill-rule="nonzero"/><path fill="#ff6200" d="M 67.300781 95.148438 L 68.042969 94.683594 C 67.113281 94.960938 66.371094 95.054688 64.972656 95.148438 C 63.953125 96.171875 63.765625 96.542969 63.859375 96.820312 C 65.066406 96.171875 66.277344 95.519531 67.578125 94.960938 Z M 67.300781 95.148438 " fill-opacity="1" fill-rule="nonzero"/><path fill="#ff6200" d="M 71.390625 93.007812 C 71.113281 94.03125 69.53125 95.242188 71.019531 95.425781 C 73.15625 94.3125 72.226562 94.03125 73.4375 93.101562 C 69.996094 95.054688 74.273438 92.265625 71.390625 93.007812 C 72.136719 92.636719 72.691406 92.265625 73.34375 91.984375 C 72.601562 92.171875 71.949219 92.359375 71.296875 92.542969 C 71.296875 92.542969 71.390625 92.542969 71.390625 92.542969 C 71.578125 92.542969 71.671875 92.542969 71.484375 92.636719 C 71.484375 92.636719 71.390625 92.636719 71.390625 92.730469 C 71.484375 92.824219 71.484375 92.917969 71.390625 93.007812 C 70.273438 93.382812 71.113281 92.917969 71.390625 92.636719 C 71.390625 92.636719 71.390625 92.542969 71.390625 92.542969 L 68.042969 94.683594 C 68.878906 94.402344 69.808594 93.9375 71.390625 93.007812 Z M 71.390625 93.007812 " fill-opacity="1" fill-rule="nonzero"/><path fill="#ff6200" d="M 91.199219 89.847656 C 91.105469 89.847656 91.015625 89.753906 91.015625 89.660156 C 90.828125 89.847656 90.734375 89.941406 91.199219 89.847656 Z M 91.199219 89.847656 " fill-opacity="1" fill-rule="nonzero"/><path fill="#ff6200" d="M 89.527344 89.847656 C 89.804688 89.660156 89.898438 89.289062 90.828125 89.101562 C 91.664062 89.101562 90.921875 89.476562 91.015625 89.753906 C 91.480469 89.382812 92.6875 88.730469 90.921875 88.730469 L 90.640625 88.917969 C 89.0625 89.101562 86.828125 88.824219 87.109375 88.636719 C 87.757812 89.101562 88.316406 89.476562 89.527344 89.847656 Z M 89.527344 89.847656 " fill-opacity="1" fill-rule="nonzero"/><path fill="#ff6200" d="M 80.410156 91.335938 C 79.390625 91.800781 78.460938 92.359375 77.527344 92.917969 L 79.296875 92.917969 L 79.109375 92.542969 C 80.878906 92.078125 80.320312 91.707031 80.410156 91.335938 Z M 80.410156 91.335938 " fill-opacity="1" fill-rule="nonzero"/><path fill="#ff6200" d="M 63.113281 96.730469 L 63.113281 95.800781 L 62 97.753906 Z M 63.113281 96.730469 " fill-opacity="1" fill-rule="nonzero"/><path fill="#ff6200" d="M 59.488281 98.960938 L 59.207031 98.21875 L 58.558594 99.148438 Z M 59.488281 98.960938 " fill-opacity="1" fill-rule="nonzero"/><path fill="#ff6200" d="M 115.101562 256.777344 L 116.03125 256.777344 C 115.660156 256.6875 115.378906 256.6875 115.101562 256.777344 Z M 115.101562 256.777344 " fill-opacity="1" fill-rule="nonzero"/><path fill="#ff6200" d="M 108.589844 255.292969 L 108.3125 255.570312 C 108.683594 255.476562 108.871094 255.382812 108.589844 255.292969 Z M 108.589844 255.292969 " fill-opacity="1" fill-rule="nonzero"/><path fill="#ff6200" d="M 11.40625 186.472656 C 10.941406 188.054688 10.382812 189.914062 11.128906 189.542969 L 11.777344 188.890625 C 11.40625 187.960938 11.3125 187.125 11.40625 186.472656 Z M 11.40625 186.472656 " fill-opacity="1" fill-rule="nonzero"/><path fill="#ff6200" d="M 55.394531 240.503906 C 55.300781 240.410156 55.210938 240.226562 55.210938 240.132812 C 54.746094 240.226562 54.371094 240.226562 54 240.320312 C 54.464844 240.320312 54.929688 240.410156 55.394531 240.503906 Z M 55.394531 240.503906 " fill-opacity="1" fill-rule="nonzero"/><path fill="#ff6200" d="M 57.90625 238.085938 L 59.207031 239.386719 C 58.929688 239.015625 58.558594 238.644531 57.90625 238.085938 Z M 57.90625 238.085938 " fill-opacity="1" fill-rule="nonzero"/><path fill="#ff6200" d="M 151.460938 261.613281 L 152.671875 260.871094 C 150.996094 260.683594 151.648438 261.242188 151.460938 261.613281 Z M 151.460938 261.613281 " fill-opacity="1" fill-rule="nonzero"/><path fill="#ff6200" d="M 25.355469 126.675781 C 24.335938 127.417969 23.589844 128.164062 23.03125 128.90625 C 23.683594 128.441406 24.335938 128.070312 24.800781 127.699219 C 25.265625 127.324219 25.542969 127.046875 25.355469 126.675781 Z M 25.355469 126.675781 " fill-opacity="1" fill-rule="nonzero"/><path fill="#ff6200" d="M 110.730469 264.589844 C 111.289062 264.589844 111.566406 264.496094 111.660156 264.3125 C 111.007812 264.3125 110.636719 264.3125 110.730469 264.589844 Z M 110.730469 264.589844 " fill-opacity="1" fill-rule="nonzero"/><path fill="#ff6200" d="M 20.984375 131.882812 C 21.171875 131.789062 21.359375 131.601562 21.542969 131.417969 C 21.917969 130.582031 22.382812 129.742188 23.125 128.8125 C 22.195312 129.558594 21.265625 130.582031 20.984375 131.882812 Z M 20.984375 131.882812 " fill-opacity="1" fill-rule="nonzero"/><path fill="#ff6200" d="M 285.007812 260.21875 C 285.101562 260.21875 285.195312 260.21875 285.289062 260.3125 C 285.289062 260.21875 285.195312 260.21875 285.007812 260.21875 Z M 285.007812 260.21875 " fill-opacity="1" fill-rule="nonzero"/><path fill="#ff6200" d="M 325.277344 261.429688 C 324.90625 261.613281 324.253906 261.894531 323.695312 262.078125 C 323.972656 261.988281 324.441406 261.800781 325.277344 261.429688 Z M 325.277344 261.429688 " fill-opacity="1" fill-rule="nonzero"/><path fill="#ff6200" d="M 44.792969 107.796875 C 45.539062 107.238281 44.886719 107.609375 44.792969 107.796875 Z M 44.792969 107.796875 " fill-opacity="1" fill-rule="nonzero"/><path fill="#ff6200" d="M 50.28125 107.980469 C 50.1875 108.167969 50.09375 108.355469 50.1875 108.539062 C 50.09375 108.261719 50.1875 108.074219 50.28125 107.980469 Z M 50.28125 107.980469 " fill-opacity="1" fill-rule="nonzero"/><path fill="#ff6200" d="M 20.894531 142.296875 C 21.171875 142.207031 21.078125 142.207031 20.894531 142.296875 Z M 20.894531 142.296875 " fill-opacity="1" fill-rule="nonzero"/><path fill="#ff6200" d="M 46.1875 107.332031 C 45.816406 107.425781 45.445312 107.609375 45.074219 107.796875 C 45.257812 107.703125 45.628906 107.609375 46.1875 107.332031 Z M 46.1875 107.332031 " fill-opacity="1" fill-rule="nonzero"/><path fill="#ff6200" d="M 45.816406 107.144531 C 46.09375 106.957031 46.28125 106.867188 46.5625 106.773438 C 46.5625 106.585938 46.375 106.492188 45.816406 107.144531 Z M 45.816406 107.144531 " fill-opacity="1" fill-rule="nonzero"/><path fill="#ff6200" d="M 43.863281 108.539062 C 44.234375 108.167969 44.699219 107.980469 45.164062 107.703125 C 44.980469 107.796875 44.886719 107.796875 44.886719 107.703125 C 44.609375 107.980469 44.328125 108.167969 43.863281 108.539062 Z M 43.863281 108.539062 " fill-opacity="1" fill-rule="nonzero"/><path fill="#ff6200" d="M 213.304688 266.914062 C 213.398438 266.914062 213.398438 266.914062 213.492188 267.007812 C 214.421875 266.636719 214.050781 266.730469 213.304688 266.914062 Z M 213.304688 266.914062 " fill-opacity="1" fill-rule="nonzero"/><path fill="#ff6200" d="M 28.890625 207.769531 C 27.402344 207.117188 27.125 206.375 26.84375 205.445312 L 25.265625 207.398438 C 26.472656 207.488281 27.683594 207.675781 28.890625 207.769531 Z M 28.890625 207.769531 " fill-opacity="1" fill-rule="nonzero"/><g clip-path="url(#bbd2b2149a)"><path fill="#ff6200" d="M 131.003906 259.476562 L 128.957031 258.359375 C 131.746094 257.617188 133.605469 258.359375 131.746094 256.964844 C 131.003906 259.382812 123.378906 255.757812 122.539062 258.265625 C 122.074219 257.988281 121.703125 257.710938 121.238281 257.429688 C 121.609375 257.523438 121.703125 257.429688 122.167969 257.523438 C 119.65625 255.757812 119.75 258.917969 116.308594 257.800781 C 115.101562 257.335938 114.355469 256.777344 115.191406 256.6875 L 112.308594 256.6875 C 111.472656 256.5 111.84375 256.128906 112.589844 256.3125 L 110.449219 255.941406 L 108.3125 255.570312 L 108.40625 255.476562 C 107.753906 255.757812 106.265625 255.941406 105.523438 256.035156 C 104.5 255.382812 106.078125 255.941406 105.894531 255.570312 L 103.476562 255.570312 C 102.730469 254.734375 104.777344 254.546875 106.359375 255.011719 C 104.777344 252.035156 104.3125 255.199219 100.035156 252.59375 L 102.265625 252.78125 C 101.242188 251.011719 99.382812 251.199219 97.246094 249.617188 C 97.429688 249.898438 98.546875 250.828125 99.199219 251.570312 C 99.847656 252.316406 100.21875 253.058594 98.824219 253.058594 C 98.175781 252.6875 97.246094 252.316406 95.851562 252.410156 C 96.035156 251.570312 94.734375 251.386719 93.058594 250.921875 L 93.523438 249.804688 C 91.664062 249.617188 91.664062 250.269531 90.457031 250.457031 C 88.503906 249.710938 88.410156 248.6875 88.222656 247.851562 C 85.246094 246.640625 89.898438 249.992188 86.179688 248.96875 C 84.96875 248.316406 83.851562 247.945312 82.644531 247.757812 C 81.433594 247.480469 80.132812 247.292969 78.460938 247.105469 C 76.785156 246.085938 79.015625 246.550781 78.550781 245.992188 L 76.597656 246.269531 C 76.226562 246.085938 76.414062 245.898438 76.597656 245.804688 C 75.109375 245.621094 76.042969 246.921875 73.902344 246.363281 C 73.34375 246.828125 72.507812 245.992188 71.390625 244.96875 C 70.273438 243.945312 68.878906 243.015625 67.390625 243.015625 C 66.925781 242.457031 67.949219 242.457031 67.949219 241.992188 C 66.089844 241.621094 65.253906 241.433594 64.507812 241.339844 C 63.765625 241.25 63.019531 241.25 61.347656 241.0625 L 59.394531 239.109375 C 60.695312 240.785156 58 240.597656 55.582031 240.226562 C 55.953125 240.96875 56.324219 241.621094 56.605469 241.898438 C 55.488281 241.527344 54.371094 241.0625 53.164062 240.597656 C 52.882812 240.226562 53.441406 240.039062 54.1875 239.945312 C 53.90625 239.945312 53.722656 239.851562 53.441406 239.851562 C 52.605469 238.832031 53.535156 238.550781 54.652344 238.457031 C 54.929688 238.921875 55.117188 239.296875 55.394531 239.761719 C 56.511719 239.574219 57.628906 239.296875 57.8125 238.644531 C 57.535156 238.644531 57.164062 238.550781 56.699219 238.367188 C 56.976562 238.273438 57.164062 238.273438 57.164062 238.085938 C 57.164062 237.902344 56.699219 237.992188 56.046875 237.902344 L 56.046875 236.320312 L 55.582031 236.691406 L 53.90625 235.203125 L 52.328125 233.621094 C 51.488281 233.4375 50.652344 233.34375 49.722656 233.15625 C 48.886719 232.972656 47.957031 232.785156 47.027344 232.597656 C 45.164062 232.132812 43.210938 231.296875 41.074219 229.808594 C 42.65625 229.996094 42.375 228.785156 43.121094 228.042969 C 43.398438 229.808594 46.375 230.179688 48.421875 231.949219 C 47.398438 231.019531 47.957031 230.738281 48.328125 230.832031 C 46.839844 230.179688 45.445312 229.53125 44.050781 228.785156 C 44.792969 228.136719 43.769531 227.671875 43.121094 226.554688 C 42.839844 227.578125 42.003906 227.207031 40.980469 226.460938 C 39.957031 225.71875 38.933594 224.507812 38.003906 224.042969 C 38.375 223.578125 39.214844 223.394531 40.609375 225.160156 C 40.238281 223.765625 39.308594 223.578125 38.285156 223.394531 C 37.355469 223.207031 36.332031 222.929688 35.957031 221.625 C 36.332031 222.089844 36.421875 222.371094 36.890625 222.277344 C 35.585938 221.625 33.914062 218.742188 34.84375 219.023438 L 35.214844 219.488281 C 34.191406 217.90625 32.425781 215.582031 30.9375 213.628906 C 29.449219 211.675781 27.960938 210.09375 27.125 210.1875 C 27.308594 210.09375 28.984375 209.628906 29.449219 209.722656 C 28.148438 209.164062 26.753906 208.605469 25.449219 208.046875 L 23.496094 207.117188 L 21.542969 206.09375 C 23.03125 206.003906 24.984375 202.5625 27.03125 205.070312 C 26.84375 204.140625 26.566406 203.117188 25.265625 201.632812 C 25.355469 202.28125 24.148438 203.863281 23.683594 203.117188 C 24.148438 200.328125 23.777344 201.257812 23.867188 198.191406 C 23.960938 199.121094 21.542969 199.027344 21.078125 197.539062 C 21.449219 197.632812 23.03125 196.703125 23.402344 197.074219 C 22.382812 196.238281 21.171875 195.308594 20.148438 194.378906 C 20.800781 195.121094 21.917969 193.914062 22.195312 192.980469 C 22.101562 193.261719 21.824219 192.515625 21.542969 191.585938 C 21.449219 191.121094 21.265625 190.65625 21.171875 190.191406 C 21.078125 189.726562 20.984375 189.355469 20.800781 189.167969 C 20.800781 189.726562 20.707031 190.285156 20.707031 190.75 C 20.335938 188.796875 19.40625 187.960938 18.382812 187.125 C 17.359375 186.285156 16.429688 185.449219 16.058594 183.402344 C 16.613281 183.867188 18.941406 184.054688 18.753906 182.007812 C 18.476562 181.824219 17.917969 181.542969 17.265625 181.171875 C 16.707031 180.800781 15.964844 180.242188 15.21875 179.589844 C 13.824219 178.382812 12.335938 176.707031 11.871094 174.753906 L 12.429688 174.382812 L 11.59375 171.5 C 12.429688 172.429688 13.730469 174.105469 15.035156 175.777344 C 15.683594 176.613281 16.429688 177.453125 16.988281 178.289062 C 17.636719 179.03125 18.195312 179.777344 18.566406 180.425781 C 18.847656 178.847656 19.21875 179.871094 18.941406 177.730469 C 19.40625 176.894531 19.964844 178.847656 20.054688 179.496094 L 19.964844 176.894531 C 19.871094 176.054688 19.964844 175.21875 19.964844 174.382812 C 18.753906 174.660156 18.476562 170.476562 17.546875 170.664062 C 17.730469 171.59375 18.011719 172.523438 18.289062 173.453125 L 19.03125 176.242188 C 18.382812 176.429688 17.453125 175.683594 16.707031 174.382812 C 15.964844 173.082031 15.3125 171.21875 15.5 169.269531 C 16.058594 168.335938 17.730469 170.011719 18.101562 169.917969 C 17.730469 169.453125 17.359375 166.386719 17.730469 166.011719 L 18.382812 167.59375 C 18.476562 167.128906 18.476562 166.664062 18.382812 166.199219 C 18.289062 165.734375 18.195312 165.269531 18.101562 164.804688 C 17.917969 163.875 17.730469 162.945312 18.476562 161.734375 C 18.566406 160.898438 20.519531 159.503906 19.777344 159.222656 C 18.101562 160.246094 13.640625 159.96875 12.800781 158.757812 C 12.894531 158.574219 13.453125 157.457031 14.105469 156.246094 C 14.753906 155.039062 15.5 153.828125 16.058594 153.457031 C 16.800781 152.898438 17.265625 153.644531 17.730469 154.296875 C 18.195312 155.039062 18.753906 155.78125 19.3125 155.226562 C 18.941406 155.132812 18.753906 154.203125 18.753906 153.828125 C 19.3125 152.992188 19.683594 154.480469 20.054688 152.527344 C 18.941406 151.878906 21.359375 148.714844 19.3125 151.320312 C 19.40625 150.296875 19.589844 149.832031 19.871094 149.367188 C 20.148438 148.902344 20.519531 148.34375 20.894531 147.320312 C 20.335938 147.507812 19.871094 146.761719 19.683594 145.738281 C 19.589844 145.179688 19.5 144.625 19.40625 143.972656 C 19.40625 143.414062 19.5 142.761719 19.589844 142.296875 C 19.871094 142.578125 20.429688 142.296875 20.707031 142.207031 C 21.171875 141.273438 21.636719 140.53125 22.101562 139.789062 C 22.566406 139.042969 23.03125 138.484375 23.496094 137.835938 C 24.425781 136.625 25.265625 135.324219 26.378906 133.835938 C 26.84375 133.742188 28.148438 132.441406 28.148438 133.371094 C 28.332031 132.8125 28.148438 132.070312 28.890625 131.230469 C 30.007812 130.671875 29.636719 131.230469 29.261719 131.789062 C 28.890625 132.347656 28.519531 133.089844 29.542969 132.8125 C 29.078125 132.253906 30.566406 129.835938 31.308594 128.253906 C 30.75 128.070312 30.101562 128.8125 29.449219 129.742188 C 28.890625 130.671875 28.332031 131.882812 28.054688 132.71875 C 27.402344 132.253906 27.125 131.136719 27.402344 129.742188 C 27.496094 129 27.773438 128.253906 28.054688 127.417969 C 28.238281 126.953125 28.425781 126.582031 28.613281 126.117188 C 28.796875 125.652344 29.078125 125.28125 29.355469 124.816406 C 31.308594 122.117188 31.03125 124.441406 31.308594 123.882812 C 35.773438 119.699219 33.074219 118.117188 37.726562 115.515625 C 39.957031 114.957031 39.027344 117.003906 39.863281 117.1875 C 39.027344 118.210938 38.191406 118.769531 37.355469 119.234375 C 36.515625 119.699219 35.773438 120.070312 35.121094 120.722656 C 35.773438 120.351562 36.421875 119.886719 37.074219 119.605469 C 36.609375 120.351562 35.585938 121.839844 34.75 122.304688 C 35.214844 122.210938 35.867188 121.652344 36.703125 120.910156 C 37.539062 120.257812 38.5625 119.328125 39.679688 118.398438 C 40.792969 117.46875 42.003906 116.539062 43.210938 115.609375 C 44.421875 114.769531 45.628906 114.027344 46.652344 113.46875 C 47.117188 112.726562 48.046875 111.609375 47.304688 111.703125 C 46.933594 111.980469 46.5625 112.351562 46.1875 112.632812 C 45.445312 112.726562 45.816406 112.074219 46.1875 111.515625 C 46.5625 110.957031 46.933594 110.492188 46.09375 110.863281 C 47.398438 109.285156 48.792969 107.238281 51.398438 106.121094 L 52.417969 106.773438 C 52.234375 106.492188 50.464844 107.238281 50 107.890625 C 50.746094 106.773438 54.464844 106.867188 54.746094 104.914062 L 52.699219 105.285156 C 54.09375 103.703125 55.582031 101.378906 57.90625 100.449219 C 56.324219 100.078125 57.441406 100.820312 55.300781 100.636719 C 57.441406 101.191406 49.816406 103.984375 52.792969 104.074219 C 50.375 103.703125 49.816406 105.285156 47.027344 105.472656 C 47.304688 105.75 48.140625 105.5625 46.28125 106.679688 C 46.28125 106.867188 46.1875 107.050781 46.09375 107.238281 C 46.003906 107.238281 46.003906 107.238281 46.003906 107.332031 C 46.003906 107.332031 46.09375 107.332031 46.09375 107.332031 C 46.09375 107.425781 46.09375 107.425781 46.09375 107.332031 C 46.652344 107.144531 47.027344 107.144531 47.304688 107.144531 C 47.117188 107.796875 46.28125 108.632812 45.539062 109.375 C 44.699219 110.121094 43.863281 110.957031 43.585938 111.421875 C 42.46875 112.074219 43.769531 110.773438 42.933594 110.863281 L 42.003906 112.445312 C 41.351562 111.886719 38.46875 113.46875 40.515625 111.238281 L 38.375 112.910156 C 36.796875 113.5625 35.027344 114.863281 34.285156 116.074219 C 33.167969 116.816406 32.519531 118.957031 32.890625 117.746094 C 31.960938 118.863281 31.03125 119.980469 30.191406 121.09375 L 30.007812 121 C 29.261719 121.746094 28.613281 122.582031 27.960938 123.511719 C 27.589844 123.976562 27.308594 124.347656 26.9375 124.816406 C 26.660156 125.28125 26.285156 125.746094 26.007812 126.210938 C 25.355469 127.140625 24.707031 128.070312 23.867188 128.90625 C 23.125 129.835938 22.289062 130.671875 21.265625 131.511719 C 20.613281 132.8125 20.054688 134.207031 18.660156 136.160156 L 17.824219 136.253906 C 17.453125 137.089844 16.707031 138.300781 16.058594 139.414062 C 15.40625 140.53125 14.847656 141.554688 15.035156 142.019531 C 13.730469 142.578125 12.800781 144.714844 11.964844 147.042969 C 11.6875 148.25 11.40625 149.460938 11.128906 150.574219 C 10.847656 151.691406 10.570312 152.714844 10.292969 153.550781 L 11.222656 153.921875 C 10.941406 155.039062 10.757812 156.15625 10.664062 157.269531 C 10.570312 157.828125 10.570312 158.480469 10.476562 159.132812 C 10.476562 159.78125 10.476562 160.433594 10.476562 161.175781 L 11.5 160.898438 C 11.6875 162.105469 11.40625 163.59375 10.941406 165.269531 C 10.664062 166.941406 10.292969 168.800781 10.292969 170.664062 C 10.011719 170.382812 10.105469 169.453125 10.292969 168.800781 C 9.175781 171.035156 9.734375 173.453125 10.199219 175.777344 C 10.382812 176.894531 10.847656 178.007812 11.035156 179.125 C 11.222656 180.242188 11.3125 181.265625 11.128906 182.378906 C 11.59375 183.308594 11.6875 184.054688 11.59375 184.796875 C 11.59375 184.707031 11.5 184.613281 11.5 184.519531 C 11.5 184.613281 11.5 184.796875 11.59375 184.890625 C 11.5 185.355469 11.5 185.820312 11.40625 186.378906 C 11.5 185.914062 11.59375 185.449219 11.59375 185.171875 C 11.777344 185.914062 12.058594 187.125 12.523438 188.144531 L 11.777344 188.796875 C 11.777344 188.890625 11.871094 188.984375 11.871094 189.078125 C 11.871094 190.285156 12.523438 189.820312 12.988281 189.078125 C 13.265625 189.632812 13.546875 190.097656 13.917969 190.378906 C 13.359375 191.03125 13.640625 191.679688 13.917969 192.425781 C 14.289062 193.167969 14.570312 193.914062 14.105469 194.75 C 14.570312 195.027344 15.128906 196.332031 15.871094 197.632812 C 16.613281 198.839844 17.453125 200.050781 18.289062 200.050781 C 18.101562 200.144531 18.101562 200.515625 17.917969 199.957031 C 18.195312 201.167969 18.566406 202.46875 19.40625 203.304688 L 18.566406 204.234375 C 19.40625 204.886719 20.242188 205.445312 21.078125 206.09375 C 21.171875 207.863281 21.171875 208.699219 19.589844 207.582031 C 21.078125 209.164062 21.636719 209.722656 22.101562 210.371094 C 22.566406 210.929688 22.9375 211.488281 24.425781 212.605469 L 23.683594 212.789062 C 24.335938 213.8125 26.195312 215.023438 26.007812 215.953125 C 26.101562 216.695312 26.566406 217.8125 27.308594 219.113281 C 28.054688 220.417969 29.078125 221.90625 30.285156 223.484375 C 32.703125 226.648438 35.773438 229.996094 38.003906 232.878906 C 38.191406 231.578125 38.65625 232.414062 39.214844 233.25 C 39.773438 234.179688 40.515625 235.203125 41.167969 234.644531 C 41.167969 235.296875 41.726562 236.132812 40.609375 235.761719 C 43.769531 237.621094 44.515625 239.851562 47.398438 240.039062 C 47.492188 240.691406 46.375 240.226562 46.46875 240.691406 C 46.746094 240.785156 47.675781 240.96875 47.863281 241.433594 C 48.046875 241.898438 47.210938 241.527344 46.5625 241.339844 C 49.722656 243.386719 50.929688 242.179688 51.953125 241.0625 C 53.164062 242.644531 54 243.015625 55.675781 242.828125 C 55.953125 243.574219 56.699219 244.503906 54.652344 243.574219 C 55.675781 244.222656 61.160156 247.851562 61.90625 246.828125 C 62.089844 247.292969 63.484375 247.664062 63.859375 247.664062 C 66.371094 248.96875 66.554688 249.152344 69.160156 250.082031 L 68.507812 249.617188 C 70.089844 248.6875 70.738281 250.175781 72.878906 250.921875 L 72.785156 251.011719 C 77.25 253.804688 75.019531 251.292969 79.390625 254.175781 L 79.390625 253.246094 C 80.410156 251.664062 83.296875 255.757812 86.269531 255.941406 L 85.433594 255.105469 C 86.269531 255.011719 87.109375 256.035156 88.039062 257.058594 C 88.875 258.082031 89.710938 259.289062 90.457031 259.570312 C 90.734375 259.847656 89.804688 259.660156 89.339844 259.660156 C 93.058594 261.894531 90.175781 258.730469 93.339844 259.289062 C 93.710938 260.035156 92.222656 260.59375 94.175781 261.335938 C 95.105469 262.171875 100.6875 260.871094 103.105469 262.730469 C 102.636719 262.078125 102.082031 261.523438 103.570312 261.523438 C 105.800781 261.894531 109.054688 264.777344 111.289062 263.660156 C 111.566406 263.847656 111.660156 264.03125 111.566406 264.125 C 113.332031 264.125 117.144531 264.589844 118.261719 264.03125 C 118.542969 264.871094 119.285156 265.335938 120.308594 265.613281 C 121.332031 265.894531 122.632812 265.894531 123.84375 265.894531 C 126.351562 265.894531 128.585938 265.894531 128.304688 267.289062 C 130.074219 267.566406 131.746094 267.753906 133.515625 268.03125 L 133.328125 268.3125 C 136.582031 268.960938 137.886719 268.402344 139.1875 267.9375 C 139.929688 268.21875 139.371094 268.402344 139.28125 268.589844 C 144.023438 269.800781 144.582031 269.800781 148.765625 268.777344 L 149.042969 269.707031 C 149.601562 269.519531 151.371094 270.078125 153.507812 270.542969 C 154.625 270.820312 155.832031 271.101562 157.042969 271.195312 C 158.25 271.378906 159.554688 271.378906 160.761719 271.195312 C 160.667969 271.285156 160.578125 271.472656 160.203125 271.566406 C 162.902344 271.195312 166.0625 272.125 168.851562 272.683594 C 171.644531 273.238281 173.96875 273.332031 175.085938 271.75 L 178.710938 271.101562 C 174.152344 270.636719 179.457031 269.707031 177.59375 269.054688 C 179.363281 268.960938 182.152344 270.265625 180.011719 270.355469 L 179.828125 270.171875 C 179.363281 271.007812 180.757812 271.285156 182.339844 271.378906 C 183.824219 271.472656 185.40625 271.566406 185.40625 272.125 C 194.429688 272.308594 203.261719 273.332031 211.726562 273.238281 L 210.703125 271.9375 L 213.679688 271.9375 C 214.421875 272.21875 214.703125 272.960938 212.65625 272.960938 C 213.773438 273.703125 216.191406 272.21875 216.191406 271.9375 C 220.28125 272.402344 214.609375 273.519531 215.910156 273.519531 L 217.585938 273.425781 L 217.210938 273.238281 C 218.609375 272.683594 218.699219 272.125 221.210938 272.03125 C 222.792969 272.21875 222.046875 272.867188 222.699219 272.867188 C 222.699219 272.960938 222.886719 272.960938 223.628906 272.867188 L 227.347656 272.867188 L 225.859375 271.84375 C 227.441406 271.285156 229.394531 271.75 227.628906 270.636719 C 230.230469 272.496094 241.484375 270.636719 243.066406 271.195312 C 245.296875 270.265625 247.621094 270.171875 250.414062 270.078125 C 249.667969 269.890625 249.203125 268.683594 251.621094 268.683594 C 250.878906 271.195312 256.085938 269.425781 258.226562 271.101562 C 256.363281 270.078125 265.105469 270.265625 262.222656 268.777344 C 264.269531 268.777344 262.410156 269.707031 263.992188 270.171875 C 268.734375 268.867188 274.59375 269.890625 280.542969 269.054688 C 280.636719 268.683594 279.519531 268.3125 280.824219 267.753906 L 284.078125 269.054688 C 285.195312 268.777344 285.007812 267.101562 287.238281 267.9375 C 286.867188 267.660156 286.402344 267.289062 287.238281 267.101562 C 293.097656 267.289062 299.050781 266.449219 305.003906 265.429688 C 311.046875 264.40625 317 263.289062 323.417969 262.730469 C 321.554688 262.636719 322.671875 262.265625 323.882812 261.800781 C 323.042969 261.894531 323.601562 261.058594 323.324219 260.683594 L 325.925781 260.40625 C 326.765625 260.3125 327.695312 260.128906 328.625 259.941406 C 328.808594 259.195312 330.113281 258.546875 331.320312 257.988281 C 332.53125 257.335938 333.644531 256.6875 333.554688 256.035156 C 333.089844 256.40625 332.625 256.6875 332.25 257.058594 C 332.902344 255.941406 331.785156 255.664062 330.578125 255.382812 C 329.367188 255.105469 327.972656 254.824219 327.695312 253.894531 C 327.042969 255.105469 325.371094 255.199219 323.695312 255.292969 C 321.929688 255.382812 320.160156 255.570312 318.671875 257.152344 C 317.742188 257.058594 319.136719 256.40625 318.671875 256.128906 C 318.023438 257.152344 316.90625 257.617188 314.769531 257.710938 L 314.953125 257.429688 C 312.070312 258.175781 310.023438 258.453125 307.792969 258.546875 C 305.5625 258.730469 303.234375 258.730469 299.886719 258.824219 L 300.445312 259.660156 C 298.957031 259.753906 298.679688 259.476562 297.933594 259.289062 C 296.445312 260.777344 302.027344 258.917969 300.632812 260.5 C 298.492188 259.011719 290.308594 261.613281 288.820312 259.660156 C 286.589844 259.847656 289.566406 260.59375 287.332031 260.871094 L 286.683594 260.40625 L 286.21875 261.148438 C 284.730469 261.148438 283.890625 260.59375 283.800781 260.128906 C 284.171875 260.128906 284.820312 259.941406 285.195312 259.847656 C 283.242188 259.382812 279.800781 260.59375 279.148438 260.40625 L 281.382812 260.59375 C 275.242188 261.707031 267.710938 261.613281 261.851562 263.195312 L 262.316406 263.566406 C 257.851562 264.683594 258.691406 263.476562 253.667969 264.125 L 253.855469 264.03125 C 252.921875 264.496094 251.527344 264.777344 250.226562 264.871094 C 251.4375 264.3125 247.808594 264.125 249.390625 263.476562 C 244.554688 264.589844 246.972656 264.3125 243.808594 266.078125 L 242.972656 265.429688 C 241.855469 266.078125 241.855469 266.449219 239.347656 266.730469 C 241.390625 265.984375 237.671875 265.800781 239.902344 264.871094 C 234.601562 263.660156 232.183594 266.824219 229.675781 264.683594 C 227.347656 266.730469 234.230469 265.613281 232.929688 265.984375 C 234.046875 266.542969 230.976562 267.472656 229.394531 267.382812 C 227.722656 267.382812 226.417969 265.054688 222.234375 265.242188 C 222.605469 265.242188 222.699219 265.054688 223.070312 265.054688 C 221.492188 264.589844 220.003906 265.894531 218.050781 265.054688 C 217.027344 266.265625 215.539062 265.054688 215.257812 266.542969 L 219.074219 266.171875 C 216.933594 266.636719 214.886719 268.3125 211.261719 267.566406 C 211.539062 267.289062 212.5625 266.824219 213.304688 266.636719 C 212.285156 266.265625 211.261719 266.914062 210.144531 266.542969 C 210.421875 265.054688 214.792969 266.171875 217.121094 264.964844 C 216.003906 264.40625 212.75 266.078125 213.863281 264.496094 C 212.191406 266.542969 209.773438 264.3125 206.890625 265.894531 L 207.074219 265.054688 C 206.609375 265.148438 205.679688 265.613281 204.84375 265.613281 L 206.332031 264.496094 C 204.007812 265.429688 201.867188 263.660156 199.730469 264.125 C 204.378906 264.125 200.75 265.148438 202.703125 265.800781 C 197.03125 266.914062 199.449219 263.566406 193.125 263.847656 C 193.960938 263.753906 196.378906 264.40625 194.984375 264.871094 C 193.777344 264.683594 192.195312 264.3125 191.453125 263.753906 C 187.265625 263.847656 192.101562 264.683594 190.242188 265.148438 C 188.847656 264.03125 188.195312 265.519531 186.335938 265.800781 L 186.335938 264.871094 C 181.59375 264.125 185.035156 266.730469 180.664062 265.894531 L 182.523438 264.777344 L 180.292969 264.964844 L 180.757812 263.941406 C 178.246094 264.589844 177.503906 264.3125 175.175781 263.941406 C 175.734375 264.589844 174.804688 265.519531 172.667969 265.429688 C 171.269531 264.871094 173.503906 264.589844 170.527344 264.589844 C 171.269531 264.03125 172.015625 263.382812 173.316406 264.3125 C 173.503906 264.03125 174.0625 263.753906 174.152344 263.476562 C 172.667969 262.824219 170.25 263.195312 169.132812 263.101562 C 169.503906 263.195312 170.0625 263.289062 170.25 263.382812 L 165.785156 264.3125 C 165.132812 263.941406 165.691406 263.660156 166.25 263.476562 C 165.320312 263.476562 164.761719 263.847656 163.460938 263.847656 C 163.832031 263.101562 163.832031 262.359375 165.691406 262.171875 L 161.507812 262.636719 C 161.226562 262.265625 159.460938 261.613281 160.019531 261.335938 C 157.785156 260.777344 154.253906 262.171875 151.277344 261.335938 C 151.089844 261.429688 150.8125 261.523438 150.160156 261.613281 C 148.765625 261.335938 147.464844 260.964844 146.070312 260.683594 C 144.671875 260.40625 143.1875 260.21875 141.417969 260.5 L 139.652344 258.917969 C 136.953125 258.824219 141.976562 260.871094 137.511719 260.777344 C 134.351562 260.777344 136.488281 259.476562 135.46875 259.011719 C 133.792969 259.476562 130.910156 260.3125 128.304688 258.730469 C 129.421875 259.105469 130.074219 259.382812 131.003906 259.476562 Z M 98.734375 253.246094 C 99.382812 253.246094 100.777344 252.964844 101.058594 253.617188 C 100.128906 254.453125 99.753906 253.804688 98.734375 253.246094 Z M 52.234375 236.503906 C 52.792969 236.503906 53.347656 237.0625 53.816406 237.714844 C 53.257812 237.527344 52.699219 237.15625 52.234375 236.503906 Z M 37.355469 114.585938 C 37.261719 114.585938 37.261719 114.585938 37.355469 114.585938 C 35.957031 115.328125 36.421875 115.144531 37.355469 114.585938 Z M 39.957031 112.910156 C 40.144531 112.632812 40.050781 112.539062 39.863281 112.539062 C 39.863281 112.816406 39.308594 113.28125 38.65625 113.746094 C 38.933594 113.746094 39.398438 113.65625 39.957031 112.910156 Z M 222.886719 272.773438 L 222.328125 272.589844 C 223.628906 272.21875 223.257812 272.496094 222.886719 272.773438 Z M 222.886719 272.773438 " fill-opacity="1" fill-rule="nonzero"/></g><path fill="#ff6200" d="M 57.628906 238.367188 C 57.71875 238.550781 57.628906 238.738281 57.628906 238.921875 C 57.90625 238.921875 58 238.738281 57.628906 238.367188 Z M 57.628906 238.367188 " fill-opacity="1" fill-rule="nonzero"/><path fill="#ff6200" d="M 151.277344 261.707031 L 151.371094 261.707031 C 151.460938 261.613281 151.460938 261.613281 151.460938 261.523438 Z M 151.277344 261.707031 " fill-opacity="1" fill-rule="nonzero"/><path fill="#ff6200" d="M 20.148438 154.296875 C 19.871094 154.851562 19.589844 155.132812 19.40625 155.226562 C 19.683594 155.316406 19.871094 155.132812 20.148438 154.296875 Z M 20.148438 154.296875 " fill-opacity="1" fill-rule="nonzero"/><path fill="#ff6200" d="M 52.511719 102.214844 L 50.929688 103.425781 C 51.675781 102.867188 52.140625 102.867188 52.605469 102.773438 C 52.417969 102.679688 51.953125 102.589844 52.511719 102.214844 Z M 52.511719 102.214844 " fill-opacity="1" fill-rule="nonzero"/><path fill="#ff6200" d="M 69.808594 98.683594 C 69.996094 98.496094 70.367188 98.402344 70.554688 98.21875 L 70.273438 97.84375 C 69.160156 98.402344 68.601562 99.054688 69.808594 98.683594 Z M 69.808594 98.683594 " fill-opacity="1" fill-rule="nonzero"/><path fill="#ff6200" d="M 55.582031 103.890625 C 56.140625 104.449219 56.976562 103.609375 58.09375 102.773438 C 58 102.773438 58 102.867188 57.90625 102.867188 C 57.71875 101.75 56.605469 102.773438 55.582031 103.890625 Z M 55.582031 103.890625 " fill-opacity="1" fill-rule="nonzero"/><path fill="#ff6200" d="M 58.371094 102.589844 C 58.742188 102.308594 59.023438 102.121094 59.394531 101.9375 C 59.300781 101.472656 58.929688 102.121094 58.371094 102.589844 Z M 58.371094 102.589844 " fill-opacity="1" fill-rule="nonzero"/><path fill="#ff6200" d="M 42.746094 110.121094 C 43.398438 109.84375 42.46875 109.097656 43.027344 109.097656 C 43.027344 107.890625 40.144531 112.632812 42.746094 110.121094 Z M 42.746094 110.121094 " fill-opacity="1" fill-rule="nonzero"/><path fill="#ff6200" d="M 57.8125 105.378906 L 56.882812 104.820312 L 56.699219 105.9375 Z M 57.8125 105.378906 " fill-opacity="1" fill-rule="nonzero"/><path fill="#ff6200" d="M 48.511719 110.585938 L 50.464844 109.5625 C 50.375 109.46875 50.558594 109.191406 50.746094 109.003906 C 49.628906 109.65625 48.328125 110.398438 48.511719 110.585938 Z M 48.511719 110.585938 " fill-opacity="1" fill-rule="nonzero"/><path fill="#ff6200" d="M 50.746094 109.003906 C 51.304688 108.632812 51.863281 108.261719 52.140625 107.890625 C 51.769531 108.167969 51.117188 108.539062 50.746094 109.003906 Z M 50.746094 109.003906 " fill-opacity="1" fill-rule="nonzero"/><path fill="#ff6200" d="M 55.488281 107.144531 L 54.835938 107.332031 C 54.371094 107.609375 54 107.796875 53.535156 108.074219 C 54.1875 107.796875 54.835938 107.515625 55.488281 107.144531 Z M 55.488281 107.144531 " fill-opacity="1" fill-rule="nonzero"/><path fill="#ff6200" d="M 30.9375 125.558594 C 30.472656 126.210938 30.007812 126.859375 29.636719 127.511719 C 29.726562 127.882812 30.285156 127.511719 30.75 126.765625 C 30.9375 126.210938 31.402344 125.558594 30.9375 125.558594 Z M 30.9375 125.558594 " fill-opacity="1" fill-rule="nonzero"/><path fill="#ff6200" d="M 37.632812 122.304688 C 37.074219 122.582031 36.890625 122.488281 36.421875 122.488281 L 37.167969 123.328125 Z M 37.632812 122.304688 " fill-opacity="1" fill-rule="nonzero"/><path fill="#ff6200" d="M 33.261719 127.234375 C 33.355469 127.605469 31.773438 130.300781 33.632812 128.070312 C 33.449219 127.789062 34.84375 125.929688 33.261719 127.234375 Z M 33.261719 127.234375 " fill-opacity="1" fill-rule="nonzero"/><path fill="#ff6200" d="M 16.335938 156.992188 L 16.429688 156.339844 L 14.570312 156.0625 Z M 16.335938 156.992188 " fill-opacity="1" fill-rule="nonzero"/><path fill="#ff6200" d="M 21.265625 186.378906 C 21.171875 183.777344 19.964844 186.007812 20.054688 183.589844 C 19.5 183.03125 19.964844 185.542969 19.5 185.078125 C 19.871094 185.820312 20.054688 186.378906 20.335938 186.660156 C 20.519531 186.9375 20.707031 186.9375 21.265625 186.378906 Z M 21.265625 186.378906 " fill-opacity="1" fill-rule="nonzero"/><path fill="#ff6200" d="M 19.5 185.078125 C 19.40625 184.796875 19.21875 184.613281 19.03125 184.332031 C 19.21875 184.796875 19.40625 184.984375 19.5 185.078125 Z M 19.5 185.078125 " fill-opacity="1" fill-rule="nonzero"/><path fill="#ff6200" d="M 332.066406 259.476562 L 333.925781 258.917969 L 332.53125 258.917969 Z M 332.066406 259.476562 " fill-opacity="1" fill-rule="nonzero"/><path fill="#ff6200" d="M 334.578125 256.5 L 335.597656 257.242188 L 335.972656 255.757812 C 335.691406 256.035156 335.042969 256.5 334.578125 256.5 Z M 334.578125 256.5 " fill-opacity="1" fill-rule="nonzero"/><path fill="#ff6200" d="M 94.734375 249.617188 L 94.546875 249.898438 C 94.734375 250.269531 95.105469 250.363281 95.851562 250.640625 Z M 94.734375 249.617188 " fill-opacity="1" fill-rule="nonzero"/><path fill="#ff6200" d="M 117.519531 256.035156 L 117.144531 255.941406 L 117.703125 257.152344 Z M 117.519531 256.035156 " fill-opacity="1" fill-rule="nonzero"/><path fill="#ff6200" d="M 137.328125 258.082031 C 136.488281 257.894531 135.558594 258.082031 134.722656 257.894531 C 136.582031 257.894531 137.421875 259.476562 137.328125 258.082031 Z M 137.328125 258.082031 " fill-opacity="1" fill-rule="nonzero"/><path fill="#ff6200" d="M 305.746094 224.601562 C 305.5625 224.878906 306.304688 225.066406 306.492188 225.160156 C 306.492188 224.695312 305.5625 224.601562 305.746094 224.601562 Z M 305.746094 224.601562 " fill-opacity="1" fill-rule="nonzero"/><path fill="#ff6200" d="M 303.050781 224.695312 L 302.863281 224.972656 L 303.886719 224.414062 Z M 303.050781 224.695312 " fill-opacity="1" fill-rule="nonzero"/><path fill="#ff6200" d="M 308.257812 226.277344 C 308.257812 225.53125 307.699219 225.4375 307.140625 225.4375 C 306.863281 225.4375 306.582031 225.4375 306.304688 225.34375 C 306.027344 225.34375 305.746094 225.253906 305.5625 225.066406 L 305.46875 224.695312 L 304.722656 225.625 C 305.839844 225.8125 307.605469 225.625 308.257812 226.277344 Z M 308.257812 226.277344 " fill-opacity="1" fill-rule="nonzero"/><path fill="#ff6200" d="M 309.746094 229.996094 C 309.839844 229.4375 310.488281 229.808594 309.1875 229.625 C 309.1875 229.714844 309.1875 229.714844 309.28125 229.808594 C 309.464844 229.808594 309.558594 229.902344 309.746094 229.996094 Z M 309.746094 229.996094 " fill-opacity="1" fill-rule="nonzero"/><path fill="#ff6200" d="M 309.28125 229.808594 C 308.816406 229.625 309.464844 230.367188 309.28125 229.808594 Z M 309.28125 229.808594 " fill-opacity="1" fill-rule="nonzero"/><path fill="#ff6200" d="M 311.792969 230.554688 C 311.511719 230.554688 311.234375 230.554688 310.953125 230.648438 C 310.953125 230.925781 311.511719 231.296875 311.234375 231.390625 C 311.882812 231.578125 311.976562 231.203125 311.792969 230.554688 Z M 311.792969 230.554688 " fill-opacity="1" fill-rule="nonzero"/><path fill="#ff6200" d="M 312.816406 229.996094 L 312.351562 229.996094 C 312.441406 230.179688 312.441406 230.273438 312.816406 229.996094 Z M 312.816406 229.996094 " fill-opacity="1" fill-rule="nonzero"/><path fill="#ff6200" d="M 311.511719 229.996094 L 312.441406 229.996094 C 312.441406 229.714844 312.628906 229.34375 312.070312 229.996094 C 312.257812 229.625 311.882812 229.902344 311.511719 229.996094 Z M 311.511719 229.996094 " fill-opacity="1" fill-rule="nonzero"/><path fill="#ff6200" d="M 311.140625 229.625 C 310.863281 229.160156 310.488281 228.785156 311.328125 228.695312 C 309.933594 228.320312 309.746094 229.25 311.140625 229.625 Z M 311.140625 229.625 " fill-opacity="1" fill-rule="nonzero"/><path fill="#ff6200" d="M 309 225.066406 L 308.535156 224.507812 L 307.886719 224.789062 C 308.257812 224.695312 308.910156 225.53125 309 225.066406 Z M 309 225.066406 " fill-opacity="1" fill-rule="nonzero"/><path fill="#ff6200" d="M 315.511719 233.34375 C 315.699219 233.15625 315.699219 232.597656 315.789062 232.226562 L 315.140625 232.226562 C 315.324219 232.597656 315.699219 232.972656 315.511719 233.34375 Z M 315.511719 233.34375 " fill-opacity="1" fill-rule="nonzero"/><path fill="#ff6200" d="M 315.789062 232.226562 L 316.71875 232.226562 C 316.164062 231.855469 315.976562 231.949219 315.789062 232.226562 Z M 315.789062 232.226562 " fill-opacity="1" fill-rule="nonzero"/><path fill="#ff6200" d="M 313.652344 228.785156 L 311.882812 229.066406 L 313.835938 228.878906 Z M 313.652344 228.785156 " fill-opacity="1" fill-rule="nonzero"/><path fill="#ff6200" d="M 318.300781 235.109375 L 317.464844 235.390625 L 318.765625 235.015625 Z M 318.300781 235.109375 " fill-opacity="1" fill-rule="nonzero"/><path fill="#ff6200" d="M 320.160156 236.132812 C 319.605469 236.414062 320.070312 237.15625 319.605469 237.25 C 320.160156 237.527344 320.8125 237.34375 321.464844 237.25 C 320.8125 237.25 320.441406 236.878906 320.160156 236.132812 Z M 320.160156 236.132812 " fill-opacity="1" fill-rule="nonzero"/><path fill="#ff6200" d="M 322.394531 237.25 C 322.113281 237.25 321.742188 237.25 321.371094 237.34375 C 321.648438 237.34375 322.023438 237.34375 322.394531 237.25 Z M 322.394531 237.25 " fill-opacity="1" fill-rule="nonzero"/><path fill="#ff6200" d="M 317.929688 233.15625 C 317.929688 233.34375 317.742188 233.808594 318.117188 234.179688 L 318.207031 233.34375 C 318.207031 233.25 318.023438 233.15625 317.929688 233.15625 Z M 317.929688 233.15625 " fill-opacity="1" fill-rule="nonzero"/><path fill="#ff6200" d="M 318.207031 233.25 C 318.488281 233.53125 318.671875 233.621094 318.765625 233.714844 C 318.765625 233.714844 318.582031 233.53125 318.207031 233.25 Z M 318.207031 233.25 " fill-opacity="1" fill-rule="nonzero"/><path fill="#ff6200" d="M 317.929688 233.066406 C 317.929688 233.066406 317.929688 233.15625 317.929688 233.066406 C 318.023438 233.066406 318.023438 232.972656 317.929688 233.066406 Z M 317.929688 233.066406 " fill-opacity="1" fill-rule="nonzero"/><path fill="#ff6200" d="M 315.234375 230.460938 C 315.882812 230.367188 317 230.460938 316.441406 229.34375 C 315.882812 229.625 316.253906 230.273438 315.234375 230.460938 Z M 315.234375 230.460938 " fill-opacity="1" fill-rule="nonzero"/><path fill="#ff6200" d="M 318.023438 232.042969 L 317.371094 231.390625 C 317.277344 231.578125 317.277344 231.949219 316.90625 231.949219 Z M 318.023438 232.042969 " fill-opacity="1" fill-rule="nonzero"/><path fill="#ff6200" d="M 318.582031 232.042969 L 318.023438 232.042969 L 318.300781 232.226562 Z M 318.582031 232.042969 " fill-opacity="1" fill-rule="nonzero"/><path fill="#ff6200" d="M 321.464844 235.761719 C 322.023438 235.667969 322.394531 235.949219 322.765625 236.132812 C 322.394531 235.667969 322.023438 235.296875 321.554688 235.015625 C 321.371094 235.203125 321 235.390625 321.464844 235.761719 Z M 321.464844 235.761719 " fill-opacity="1" fill-rule="nonzero"/><path fill="#ff6200" d="M 319.976562 234.460938 C 319.976562 234.460938 320.070312 234.460938 320.070312 234.460938 C 320.070312 234.367188 319.976562 234.367188 319.976562 234.460938 Z M 319.976562 234.460938 " fill-opacity="1" fill-rule="nonzero"/><path fill="#ff6200" d="M 326.859375 238.921875 L 326.859375 238.738281 L 326.765625 238.832031 Z M 326.859375 238.921875 " fill-opacity="1" fill-rule="nonzero"/><path fill="#ff6200" d="M 321.648438 234.832031 C 321.371094 234.460938 321.089844 234.550781 320.8125 234.550781 C 321.089844 234.644531 321.371094 234.738281 321.648438 234.925781 C 321.742188 234.925781 321.742188 234.832031 321.648438 234.832031 Z M 321.648438 234.832031 " fill-opacity="1" fill-rule="nonzero"/><path fill="#ff6200" d="M 323.695312 237.714844 C 323.601562 237.433594 323.507812 237.25 323.324219 236.96875 C 323.417969 237.25 323.507812 237.808594 323.695312 237.714844 Z M 323.695312 237.714844 " fill-opacity="1" fill-rule="nonzero"/><path fill="#ff6200" d="M 320.070312 234.738281 C 319.976562 234.738281 319.976562 234.738281 320.070312 234.738281 C 319.976562 234.925781 319.976562 234.832031 320.070312 234.738281 Z M 320.070312 234.738281 " fill-opacity="1" fill-rule="nonzero"/><path fill="#ff6200" d="M 320.070312 234.738281 C 320.347656 234.738281 320.535156 234.644531 320.8125 234.644531 C 320.535156 234.550781 320.347656 234.550781 320.160156 234.550781 C 320.070312 234.550781 320.070312 234.644531 320.070312 234.738281 Z M 320.070312 234.738281 " fill-opacity="1" fill-rule="nonzero"/><path fill="#ff6200" d="M 331.042969 235.574219 C 330.578125 236.132812 329.277344 236.132812 328.996094 234.925781 C 327.972656 234.832031 327.042969 237.15625 326.949219 238.738281 C 327.136719 238.457031 327.324219 238.273438 328.34375 238.457031 C 328.34375 237.902344 327.136719 236.503906 328.160156 236.414062 C 329.367188 236.785156 328.808594 237.25 329.089844 237.902344 C 329.183594 236.878906 331.136719 237.714844 331.691406 236.414062 L 330.484375 236.226562 C 330.671875 235.949219 331.136719 235.855469 331.042969 235.574219 Z M 331.042969 235.574219 " fill-opacity="1" fill-rule="nonzero"/><path fill="#ff6200" d="M 325.460938 237.621094 L 325.089844 237.433594 C 325.371094 237.808594 325.460938 238.179688 325.648438 239.015625 C 326.390625 239.109375 326.671875 238.921875 326.859375 238.738281 L 325.371094 237.621094 Z M 325.460938 237.621094 " fill-opacity="1" fill-rule="nonzero"/><path fill="#ff6200" d="M 323.695312 236.503906 C 324.347656 236.039062 325.371094 236.226562 325.371094 235.203125 C 324.441406 234.644531 324.347656 235.296875 323.601562 235.203125 C 325.183594 236.132812 322.953125 235.390625 323.695312 236.503906 C 323.324219 236.320312 323.042969 236.226562 322.859375 236.039062 C 323.042969 236.320312 323.230469 236.597656 323.417969 236.878906 C 323.417969 236.878906 323.417969 236.878906 323.417969 236.785156 C 323.417969 236.691406 323.417969 236.597656 323.417969 236.691406 C 323.507812 236.691406 323.601562 236.597656 323.695312 236.503906 C 324.066406 236.96875 323.601562 236.691406 323.417969 236.691406 C 323.417969 236.691406 323.324219 236.785156 323.324219 236.785156 L 325.089844 237.433594 C 324.8125 237.15625 324.441406 236.96875 323.695312 236.503906 Z M 323.695312 236.503906 " fill-opacity="1" fill-rule="nonzero"/><path fill="#ff6200" d="M 318.207031 228.320312 C 318.207031 228.414062 318.207031 228.414062 318.207031 228.507812 C 318.300781 228.507812 318.394531 228.414062 318.207031 228.320312 Z M 318.207031 228.320312 " fill-opacity="1" fill-rule="nonzero"/><path fill="#ff6200" d="M 318.582031 229.066406 C 318.394531 229.066406 318.117188 229.34375 317.835938 229.066406 C 317.652344 228.695312 318.023438 228.695312 318.117188 228.507812 C 317.742188 228.601562 317.09375 228.507812 317.558594 229.25 L 317.742188 229.25 C 318.207031 229.902344 318.488281 231.203125 318.394531 231.203125 C 318.582031 230.460938 318.671875 229.996094 318.582031 229.066406 Z M 318.582031 229.066406 " fill-opacity="1" fill-rule="nonzero"/><path fill="#ff6200" d="M 321.371094 232.597656 C 321.835938 232.785156 322.394531 232.972656 322.859375 233.066406 L 322.578125 232.042969 L 322.394531 232.414062 C 321.742188 231.855469 321.648438 232.414062 321.371094 232.597656 Z M 321.371094 232.597656 " fill-opacity="1" fill-rule="nonzero"/><path fill="#ff6200" d="M 326.765625 239.296875 L 326.113281 239.851562 L 327.601562 239.386719 Z M 326.765625 239.296875 " fill-opacity="1" fill-rule="nonzero"/><path fill="#ff6200" d="M 328.53125 240.320312 L 327.972656 240.96875 L 328.71875 240.875 Z M 328.53125 240.320312 " fill-opacity="1" fill-rule="nonzero"/><path fill="#ff6200" d="M 323.230469 275.101562 L 323.417969 274.636719 C 323.324219 274.820312 323.230469 275.007812 323.230469 275.101562 Z M 323.230469 275.101562 " fill-opacity="1" fill-rule="nonzero"/><path fill="#ff6200" d="M 320.90625 277.519531 L 321.089844 277.796875 C 321.089844 277.519531 321 277.425781 320.90625 277.519531 Z M 320.90625 277.519531 " fill-opacity="1" fill-rule="nonzero"/><path fill="#ff6200" d="M 340.433594 260.871094 C 339.503906 260.777344 338.203125 260.59375 338.855469 261.058594 L 339.597656 261.523438 C 339.785156 261.058594 340.0625 260.871094 340.433594 260.871094 Z M 340.433594 260.871094 " fill-opacity="1" fill-rule="nonzero"/><path fill="#ff6200" d="M 319.511719 287.28125 C 319.605469 287.28125 319.695312 287.28125 319.789062 287.375 C 319.695312 287.097656 319.605469 286.816406 319.605469 286.539062 C 319.605469 286.722656 319.511719 287.003906 319.511719 287.28125 Z M 319.511719 287.28125 " fill-opacity="1" fill-rule="nonzero"/><path fill="#ff6200" d="M 321.464844 289.980469 L 320.441406 290.164062 C 320.71875 290.257812 321.089844 290.164062 321.464844 289.980469 Z M 321.464844 289.980469 " fill-opacity="1" fill-rule="nonzero"/><path fill="#ff6200" d="M 335.597656 261.988281 L 335.414062 261.058594 C 334.855469 261.523438 335.414062 261.613281 335.597656 261.988281 Z M 335.597656 261.988281 " fill-opacity="1" fill-rule="nonzero"/><path fill="#ff6200" d="M 346.292969 250.640625 C 346.292969 251.011719 346.386719 251.199219 346.480469 251.199219 C 346.667969 250.828125 346.757812 250.082031 346.292969 250.640625 Z M 346.292969 250.640625 " fill-opacity="1" fill-rule="nonzero"/><path fill="#ff6200" d="M 328.53125 281.980469 C 328.625 281.703125 328.53125 281.515625 328.4375 281.332031 C 328.34375 281.703125 328.34375 281.886719 328.53125 281.980469 Z M 328.53125 281.980469 " fill-opacity="1" fill-rule="nonzero"/><path fill="#ff6200" d="M 346.945312 251.386719 C 346.945312 251.292969 347.039062 251.292969 347.039062 251.199219 C 346.757812 251.199219 346.574219 251.292969 346.480469 251.199219 C 346.386719 251.570312 346.292969 251.757812 346.945312 251.386719 Z M 346.945312 251.386719 " fill-opacity="1" fill-rule="nonzero"/><path fill="#ff6200" d="M 321.464844 237.527344 C 321.464844 237.433594 321.371094 237.433594 321.371094 237.34375 C 321.371094 237.433594 321.371094 237.527344 321.464844 237.527344 Z M 321.464844 237.527344 " fill-opacity="1" fill-rule="nonzero"/><path fill="#ff6200" d="M 307.980469 222.277344 C 308.164062 222.277344 308.445312 222.460938 308.722656 222.554688 C 308.535156 222.371094 308.351562 222.277344 307.980469 222.277344 Z M 307.980469 222.277344 " fill-opacity="1" fill-rule="nonzero"/><path fill="#ff6200" d="M 335.042969 245.15625 C 334.667969 244.96875 334.949219 245.246094 335.042969 245.15625 Z M 335.042969 245.15625 " fill-opacity="1" fill-rule="nonzero"/><path fill="#ff6200" d="M 335.042969 241.339844 C 335.132812 241.339844 335.320312 241.25 335.414062 241.0625 C 335.226562 241.25 335.132812 241.339844 335.042969 241.339844 Z M 335.042969 241.339844 " fill-opacity="1" fill-rule="nonzero"/><path fill="#ff6200" d="M 334.761719 244.503906 C 334.855469 244.6875 334.949219 244.875 335.132812 244.96875 C 335.042969 244.96875 334.949219 244.78125 334.761719 244.503906 Z M 334.761719 244.503906 " fill-opacity="1" fill-rule="nonzero"/><path fill="#ff6200" d="M 334.578125 244.875 C 334.484375 244.78125 334.390625 244.6875 334.296875 244.597656 C 334.203125 244.6875 334.203125 244.78125 334.578125 244.875 Z M 334.578125 244.875 " fill-opacity="1" fill-rule="nonzero"/><path fill="#ff6200" d="M 335.597656 245.527344 C 335.414062 245.433594 335.226562 245.246094 335.042969 245.0625 C 335.042969 245.15625 335.132812 245.246094 335.042969 245.246094 C 335.132812 245.246094 335.320312 245.339844 335.597656 245.527344 Z M 335.597656 245.527344 " fill-opacity="1" fill-rule="nonzero"/><path fill="#ff6200" d="M 337.550781 275.9375 C 337.367188 274.726562 337.644531 274.636719 338.203125 274.449219 L 336.25 273.148438 Z M 337.550781 275.9375 " fill-opacity="1" fill-rule="nonzero"/><g clip-path="url(#799a1b64da)"><path fill="#ff6200" d="M 328.71875 269.332031 L 327.414062 269.613281 C 327.507812 267.847656 328.53125 267.472656 327.042969 267.472656 C 328.71875 269.332031 324.253906 270.636719 325.925781 272.496094 L 325.089844 272.589844 C 325.277344 272.496094 325.183594 272.308594 325.371094 272.21875 C 323.507812 272.308594 325.925781 274.261719 324.441406 275.285156 C 323.882812 275.566406 323.324219 275.65625 323.417969 275.101562 L 322.953125 276.496094 C 322.671875 276.773438 322.394531 276.402344 322.671875 276.121094 L 321.371094 277.796875 L 321.371094 277.703125 C 321.464844 278.167969 321.464844 279.097656 321.371094 279.5625 C 320.71875 279.75 321.371094 279.191406 321 279.097656 L 320.625 280.402344 C 319.789062 280.308594 319.976562 279.191406 320.625 278.632812 C 318.023438 277.703125 320.441406 279.75 317.742188 280.492188 L 318.300781 279.472656 C 316.71875 279.003906 316.535156 280.027344 315.046875 280.308594 C 315.605469 280.402344 318.394531 279.9375 318.023438 281.332031 C 317.652344 281.421875 317.277344 281.796875 317.1875 282.632812 C 316.535156 282.074219 316.253906 282.726562 315.699219 283.375 L 314.859375 282.539062 C 314.488281 283.46875 315.046875 283.75 315.046875 284.585938 C 314.304688 285.238281 313.464844 284.773438 312.722656 284.492188 C 311.511719 285.609375 314.582031 284.585938 313.464844 286.167969 C 312.257812 286.910156 311.976562 287.933594 311.511719 289.609375 C 310.582031 290.074219 311.046875 289.050781 310.582031 289.050781 L 310.769531 290.257812 C 310.582031 290.445312 310.398438 290.164062 310.304688 290.074219 C 310.117188 290.816406 311.140625 290.910156 310.769531 291.839844 L 314.582031 295.464844 C 314.582031 295.464844 314.582031 295.464844 314.582031 295.375 C 313.929688 294.257812 317.558594 295.1875 317.464844 293.234375 C 317.929688 293.234375 317.835938 293.886719 318.207031 294.164062 C 318.859375 292.210938 318.859375 292.582031 319.046875 290.539062 L 320.535156 290.257812 C 319.230469 290.257812 319.417969 288.675781 319.511719 287.28125 C 318.953125 287.191406 318.488281 287.097656 318.207031 287.097656 L 318.953125 285.515625 C 319.230469 285.515625 319.417969 285.886719 319.511719 286.445312 C 319.511719 286.257812 319.511719 286.167969 319.511719 285.980469 C 320.253906 285.886719 320.535156 286.632812 320.625 287.375 C 320.347656 287.375 319.976562 287.28125 319.695312 287.28125 C 319.882812 288.121094 320.160156 288.957031 320.71875 289.421875 C 320.71875 289.234375 320.8125 289.050781 320.90625 288.769531 C 321 288.957031 321 289.140625 321.183594 289.234375 C 321.277344 289.328125 321.277344 288.957031 321.277344 288.585938 L 322.488281 289.328125 L 322.207031 288.863281 L 324.347656 287.933594 C 324.53125 285.886719 324.253906 283.46875 325.648438 281.332031 C 325.835938 282.445312 326.671875 282.539062 327.414062 283.46875 C 326.113281 283.097656 326.390625 285.144531 325.277344 285.886719 C 325.835938 285.515625 326.113281 285.980469 326.113281 286.257812 L 327.042969 283.839844 C 327.695312 284.585938 327.878906 284.027344 328.625 283.839844 C 327.042969 282.820312 328.996094 281.796875 329.277344 280.679688 C 329.742188 281.050781 330.019531 281.703125 329.089844 282.355469 C 330.949219 282.539062 328.808594 279.65625 330.484375 279.65625 C 330.296875 279.84375 330.113281 279.9375 330.296875 280.214844 C 330.390625 279.378906 331.878906 278.539062 331.972656 279.191406 L 331.785156 279.378906 C 333.273438 278.261719 335.878906 275.472656 335.042969 274.167969 C 335.226562 274.261719 336.15625 275.75 336.34375 276.03125 L 335.132812 269.890625 C 335.878906 271.101562 338.949219 272.683594 338.296875 274.261719 C 338.761719 274.078125 339.320312 273.890625 339.691406 272.867188 C 339.320312 272.960938 337.832031 271.9375 338.015625 271.566406 C 339.878906 271.84375 339.132812 271.566406 341.085938 271.566406 C 340.527344 271.660156 339.414062 269.800781 340.0625 269.332031 C 340.15625 269.613281 341.550781 270.820312 341.550781 271.195312 L 341.363281 268.402344 C 341.273438 268.960938 342.574219 269.707031 343.226562 269.890625 C 342.851562 269.707031 344.339844 268.867188 344.621094 268.402344 L 343.691406 268.589844 C 345.363281 267.472656 343.132812 265.054688 344.621094 263.753906 C 344.714844 264.21875 346.015625 266.078125 346.945312 265.613281 C 346.574219 264.496094 344.898438 260.5 345.644531 258.640625 L 346.292969 258.824219 L 346.757812 257.335938 C 347.222656 259.105469 347.875 263.195312 347.875 265.054688 C 348.710938 264.871094 348.527344 265.429688 349.269531 264.589844 C 349.921875 264.777344 349.457031 265.613281 349.175781 265.894531 L 351.316406 264.3125 C 350.386719 263.476562 351.875 261.988281 351.128906 261.335938 L 349.921875 264.21875 C 348.992188 263.382812 348.710938 260.5 350.199219 259.382812 C 350.851562 259.382812 351.503906 261.242188 351.78125 261.523438 C 351.6875 261.242188 351.875 260.871094 352.152344 260.40625 C 352.523438 259.941406 352.988281 259.476562 353.175781 259.476562 C 353.082031 259.847656 352.898438 260.3125 352.804688 260.777344 C 353.546875 260.40625 353.734375 259.660156 353.921875 259.011719 C 354.105469 258.359375 354.386719 257.800781 355.59375 257.429688 C 355.871094 257.242188 356.617188 257.058594 357.269531 256.871094 C 357.917969 256.6875 358.382812 256.5 358.011719 256.3125 C 355.59375 256.6875 351.035156 254.917969 350.015625 254.359375 C 350.105469 254.359375 350.757812 254.175781 351.59375 253.988281 C 352.433594 253.804688 353.546875 253.429688 354.199219 253.339844 C 354.476562 253.246094 354.664062 253.246094 354.941406 253.246094 C 355.128906 253.246094 355.316406 253.246094 355.5 253.246094 C 355.871094 253.339844 356.152344 253.429688 356.429688 253.617188 C 356.988281 253.894531 357.546875 254.269531 358.382812 253.988281 C 358.011719 253.894531 357.734375 253.523438 357.734375 253.339844 C 358.382812 252.964844 358.847656 253.523438 359.3125 252.59375 C 358.011719 252.5 360.429688 250.734375 358.382812 252.222656 C 358.476562 251.851562 358.664062 251.570312 358.847656 251.292969 C 359.035156 251.011719 359.3125 250.734375 359.3125 249.992188 C 358.847656 250.363281 358.011719 249.992188 357.082031 249.617188 C 356.804688 249.523438 356.246094 249.433594 355.78125 249.433594 C 355.316406 249.433594 354.941406 249.339844 354.664062 249.339844 C 355.128906 249.246094 355.6875 248.875 355.78125 248.78125 C 354.011719 248.128906 353.546875 247.386719 351.6875 246.640625 C 351.78125 246.363281 351.035156 245.621094 351.875 245.339844 C 351.410156 245.433594 350.757812 245.621094 350.199219 245.433594 C 349.550781 244.039062 351.78125 245.898438 351.6875 244.410156 C 351.410156 244.6875 350.757812 244.6875 350.105469 244.6875 C 349.457031 244.6875 348.617188 244.597656 348.246094 244.597656 C 347.96875 245.710938 350.015625 245.527344 351.316406 245.527344 C 350.757812 246.175781 349.734375 246.640625 348.898438 247.015625 C 347.96875 247.386719 347.222656 247.757812 346.109375 247.574219 C 344.527344 247.199219 345.921875 246.363281 345.550781 246.457031 C 344.25 245.710938 343.410156 245.992188 342.667969 246.269531 C 341.921875 246.550781 341.179688 246.640625 340.433594 245.527344 C 340.0625 244.222656 341.363281 243.757812 341.550781 243.015625 C 342.851562 243.292969 342.945312 244.503906 343.691406 244.875 L 343.039062 243.945312 C 343.503906 243.851562 344.433594 244.039062 344.621094 244.503906 C 344.433594 243.945312 343.410156 243.292969 342.296875 242.550781 C 341.085938 241.804688 339.785156 240.96875 339.039062 240.039062 C 338.480469 240.132812 337.738281 240.039062 337.832031 240.503906 L 338.480469 240.785156 C 338.574219 241.804688 336.808594 240.96875 337.273438 241.804688 C 336.15625 241.804688 334.761719 241.898438 333.925781 240.785156 L 334.390625 239.667969 C 334.203125 239.945312 334.761719 240.691406 335.226562 240.597656 C 334.484375 240.691406 334.390625 238.179688 333.089844 239.109375 L 333.460938 240.320312 C 332.34375 240.226562 330.671875 240.597656 329.925781 239.667969 C 329.742188 240.875 330.207031 239.761719 330.207031 241.25 C 330.484375 239.480469 332.714844 243.015625 332.714844 240.96875 C 332.53125 242.738281 333.644531 242.363281 333.832031 244.039062 C 334.019531 243.667969 333.925781 243.203125 334.667969 243.945312 C 334.761719 243.851562 334.949219 243.851562 335.042969 243.757812 C 335.042969 243.757812 335.042969 243.757812 335.042969 243.851562 C 335.042969 243.851562 335.042969 243.851562 335.042969 243.757812 C 335.132812 243.757812 335.132812 243.757812 335.042969 243.757812 C 334.949219 243.480469 334.855469 243.203125 334.949219 243.015625 C 335.878906 242.550781 337.179688 243.480469 337.832031 243.386719 C 338.296875 243.851562 337.367188 243.667969 337.460938 244.132812 L 338.480469 243.945312 C 338.109375 244.6875 339.132812 245.992188 337.644531 245.621094 L 338.761719 246.363281 C 339.132812 247.199219 340.0625 247.851562 340.808594 247.851562 C 341.273438 248.316406 342.667969 247.757812 341.832031 248.128906 C 342.480469 248.316406 343.226562 248.503906 343.875 248.59375 L 343.785156 248.78125 C 344.25 249.058594 344.714844 249.152344 345.269531 249.339844 C 345.550781 249.433594 345.828125 249.433594 346.015625 249.523438 C 346.109375 249.523438 346.292969 249.617188 346.386719 249.617188 L 346.574219 249.617188 C 347.039062 249.617188 347.597656 249.898438 347.316406 250.546875 C 347.6875 250.457031 348.246094 250.363281 348.339844 250.640625 L 347.503906 251.105469 C 347.78125 251.105469 347.6875 251.199219 347.6875 251.292969 C 347.6875 251.386719 347.6875 251.476562 348.246094 251.386719 C 347.78125 251.570312 347.503906 251.664062 347.316406 251.757812 C 346.667969 252.035156 346.667969 252.128906 346.757812 252.222656 C 346.851562 252.316406 346.945312 252.410156 346.667969 252.5 L 347.875 252.6875 C 347.597656 252.875 347.6875 253.152344 347.78125 253.617188 L 348.621094 253.988281 C 348.710938 254.359375 348.339844 254.546875 347.875 254.640625 C 347.78125 254.640625 347.6875 254.734375 347.503906 254.734375 L 347.316406 254.734375 C 347.222656 254.734375 347.132812 254.828125 347.039062 254.917969 C 346.667969 255.105469 346.292969 255.382812 346.015625 255.664062 C 345.921875 255.382812 346.292969 255.105469 346.574219 255.011719 C 343.785156 255.011719 344.433594 258.917969 342.109375 259.195312 C 342.015625 259.753906 341.644531 259.847656 341.273438 259.941406 C 341.273438 259.941406 341.367188 259.847656 341.367188 259.847656 C 341.367188 259.847656 341.273438 259.941406 341.179688 259.941406 C 340.898438 259.941406 340.621094 260.035156 340.433594 260.035156 C 340.714844 260.035156 340.992188 260.035156 341.085938 260.035156 C 340.808594 260.3125 340.527344 260.777344 340.25 261.242188 L 339.503906 260.777344 C 339.503906 260.777344 339.414062 260.871094 339.414062 260.871094 C 338.855469 260.964844 339.414062 261.429688 340.0625 261.800781 C 339.96875 262.078125 339.878906 262.359375 339.96875 262.636719 C 338.667969 261.894531 339.320312 263.941406 337.832031 263.195312 C 338.109375 263.941406 336.34375 265.429688 337.179688 266.730469 C 336.996094 266.636719 336.808594 266.636719 337.085938 266.449219 C 336.53125 266.730469 335.972656 267.007812 335.878906 267.660156 L 334.949219 267.007812 L 335.042969 268.960938 C 334.019531 268.960938 333.460938 268.960938 333.460938 267.753906 C 332.996094 269.984375 332.714844 269.148438 332.4375 271.195312 L 331.972656 270.636719 C 331.601562 271.007812 331.601562 272.402344 330.949219 272.21875 C 329.089844 272.03125 326.300781 276.402344 323.042969 277.703125 C 324.996094 278.820312 321.277344 278.074219 322.300781 279.378906 C 321.835938 279.097656 321.277344 279.191406 321.371094 278.539062 C 320.535156 280.027344 319.046875 279.65625 319.140625 281.515625 C 318.671875 281.238281 318.859375 280.773438 318.582031 280.585938 C 318.582031 280.773438 318.488281 281.238281 318.207031 281.144531 C 317.835938 281.050781 318.117188 280.679688 318.117188 280.308594 C 316.90625 281.515625 317.929688 282.820312 318.859375 283.933594 C 317.742188 284.027344 317.464844 284.398438 317.742188 285.515625 C 317.1875 285.328125 316.441406 285.328125 317.09375 284.492188 C 316.628906 284.863281 313.929688 286.445312 314.769531 287.375 C 314.394531 287.28125 314.117188 287.839844 314.117188 288.121094 C 313.09375 288.957031 312.90625 288.957031 312.070312 289.980469 L 312.441406 289.886719 C 313 291.09375 312.164062 290.910156 311.511719 291.46875 L 314.117188 293.976562 C 314.210938 293.886719 314.304688 293.792969 314.304688 293.699219 L 314.394531 293.792969 C 316.722656 292.582031 314.675781 292.675781 317.09375 291.652344 L 316.347656 291.1875 C 315.046875 289.792969 318.582031 290.351562 318.953125 288.863281 L 318.207031 288.863281 C 318.207031 287.839844 321.558594 289.050781 322.207031 288.585938 C 322.488281 288.585938 322.207031 288.957031 322.207031 289.234375 C 324.347656 288.492188 321.464844 288.304688 322.300781 287.003906 C 322.953125 287.191406 323.230469 288.304688 323.972656 287.65625 C 324.625 287.65625 324.347656 284.214844 326.207031 284.027344 C 325.648438 283.933594 325.089844 283.839844 325.277344 283.003906 C 325.835938 282.167969 328.53125 282.261719 328.066406 280.492188 C 328.253906 280.492188 328.34375 280.585938 328.4375 280.585938 C 328.71875 279.75 329.742188 278.261719 329.554688 277.332031 C 332.25 279.003906 331.972656 272.773438 334.019531 274.820312 L 335.691406 273.054688 L 335.878906 273.332031 C 337.085938 272.402344 337.085938 271.472656 336.996094 270.636719 C 337.367188 270.542969 337.367188 270.914062 337.460938 271.007812 C 339.503906 269.890625 339.597656 269.613281 340.0625 267.289062 L 340.808594 267.847656 C 340.808594 267.101562 344.25 266.730469 345.179688 264.40625 C 345.269531 264.5 345.269531 264.683594 345.269531 264.871094 C 346.480469 262.359375 351.503906 262.917969 350.015625 259.753906 L 350.757812 258.082031 C 348.898438 259.289062 350.105469 256.777344 349.085938 256.871094 C 349.363281 256.5 349.921875 256.40625 350.386719 256.40625 C 350.851562 256.40625 351.222656 256.59375 350.757812 257.058594 L 350.480469 257.058594 C 350.851562 257.894531 351.6875 257.429688 352.433594 256.871094 C 353.269531 256.3125 354.011719 255.757812 354.570312 256.035156 C 357.734375 253.429688 361.730469 251.011719 365.824219 248.316406 C 365.824219 248.222656 365.730469 248.222656 365.636719 248.128906 L 365.359375 247.945312 L 364.800781 247.664062 L 363.683594 247.015625 C 362.941406 246.640625 362.105469 246.175781 361.265625 245.804688 C 360.800781 246.085938 360.335938 246.363281 359.871094 246.640625 L 358.199219 245.804688 C 358.199219 245.433594 358.941406 244.96875 360.242188 245.621094 C 360.429688 245.246094 359.59375 245.0625 358.757812 244.96875 C 357.917969 244.875 356.988281 244.96875 356.804688 245.0625 C 355.871094 244.316406 356.523438 244.222656 357.359375 244.222656 C 358.199219 244.222656 359.3125 244.503906 358.941406 244.222656 L 357.640625 243.757812 L 357.734375 243.945312 C 356.152344 243.851562 355.5 244.222656 354.011719 243.386719 C 353.269531 242.738281 354.199219 242.550781 353.828125 242.269531 C 353.921875 242.179688 353.828125 242.085938 353.175781 241.898438 L 350.757812 240.597656 C 350.945312 241.0625 351.035156 241.527344 351.128906 241.992188 C 349.828125 241.992188 349.085938 240.96875 349.457031 242.457031 C 349.457031 242.179688 349.175781 241.898438 348.992188 241.621094 C 348.804688 241.339844 348.621094 241.15625 348.339844 240.96875 C 347.78125 240.503906 347.039062 240.132812 346.386719 239.855469 C 344.992188 239.203125 343.503906 238.644531 343.316406 238.273438 C 342.015625 238.550781 340.992188 238.085938 339.878906 237.4375 C 340.0625 237.808594 339.785156 238.921875 338.761719 238.367188 C 340.15625 236.320312 337.273438 236.503906 337.179688 234.460938 C 337.460938 235.855469 334.113281 233.34375 334.578125 235.390625 C 333.832031 234.832031 334.949219 234.550781 334.484375 233.714844 C 331.972656 233.621094 330.207031 231.019531 327.414062 230.089844 C 327.230469 230.367188 327.414062 231.019531 326.671875 231.203125 L 326.019531 229.066406 C 325.460938 228.972656 324.71875 230.554688 324.347656 229.066406 C 324.347656 229.34375 324.347656 229.808594 323.972656 229.808594 C 319.605469 225.996094 313.09375 226.183594 309.28125 221.066406 C 309.746094 221.996094 309.1875 221.8125 308.722656 221.625 C 309 221.90625 308.351562 222.371094 308.257812 222.835938 L 306.675781 220.695312 C 305.746094 221.625 304.351562 219.671875 303.609375 220.695312 L 304.351562 220.789062 C 302.863281 221.625 304.351562 224.136719 303.421875 225.71875 C 305.097656 224.789062 305.097656 229.066406 307.699219 227.765625 C 307.886719 228.230469 307.140625 228.136719 307.140625 228.601562 C 307.886719 228.136719 308.445312 228.230469 309.28125 228.972656 L 309.09375 229.066406 C 311.792969 230.089844 312.628906 231.296875 315.417969 233.15625 L 315.605469 232.226562 C 316.164062 232.601562 316.253906 232.972656 316.441406 233.25 C 317.742188 232.414062 314.675781 232.320312 315.976562 231.296875 C 316.070312 233.34375 320.441406 233.4375 320.160156 235.484375 C 321.183594 235.949219 320.347656 234.460938 321.277344 234.925781 L 321.277344 235.574219 L 321.835938 235.019531 C 322.394531 235.390625 322.488281 236.226562 322.300781 236.597656 C 322.207031 236.503906 321.835938 236.503906 321.648438 236.503906 C 322.207031 237.527344 324.066406 237.4375 324.253906 237.714844 L 323.417969 236.96875 C 326.300781 237.714844 329.277344 239.945312 332.34375 240.132812 L 332.34375 239.667969 C 334.667969 239.851562 333.738281 240.785156 336.0625 241.527344 L 335.972656 241.621094 C 336.621094 241.433594 337.273438 241.527344 337.832031 241.804688 C 337.085938 241.992188 338.480469 243.109375 337.550781 243.292969 C 340.0625 243.574219 338.855469 243.203125 340.992188 242.457031 L 340.992188 243.203125 C 341.738281 242.828125 341.921875 242.550781 343.039062 242.921875 C 341.921875 243.015625 343.316406 244.222656 341.921875 244.410156 C 343.597656 246.828125 345.921875 244.597656 346.015625 247.105469 C 347.875 245.898438 344.527344 245.246094 345.269531 245.15625 C 345.085938 244.316406 346.757812 244.222656 347.410156 244.78125 C 347.78125 244.96875 347.78125 245.621094 347.78125 246.269531 C 347.78125 246.921875 347.6875 247.574219 348.152344 247.757812 C 348.0625 247.664062 347.96875 247.851562 347.875 247.757812 C 347.875 248.039062 348.152344 247.945312 348.433594 247.945312 C 348.710938 247.945312 348.992188 247.945312 348.804688 248.316406 C 349.550781 248.039062 349.640625 248.128906 349.828125 248.128906 C 350.015625 248.128906 350.105469 248.222656 351.128906 247.851562 L 349.734375 247.574219 C 350.199219 247.574219 351.035156 247.386719 351.96875 247.386719 C 352.804688 247.386719 353.640625 247.480469 353.734375 248.039062 C 353.175781 248.128906 352.339844 248.128906 351.78125 248.128906 C 351.503906 248.503906 352.804688 248.316406 352.433594 248.59375 C 351.222656 248.875 350.851562 248.78125 350.480469 248.6875 C 350.105469 248.59375 349.734375 248.410156 348.898438 248.59375 C 348.617188 248.78125 349.175781 248.78125 349.457031 248.78125 C 349.828125 248.78125 349.921875 248.78125 348.804688 249.152344 C 350.292969 248.6875 350.480469 248.875 350.480469 249.058594 C 350.570312 249.246094 350.480469 249.433594 352.058594 249.339844 L 350.480469 249.617188 C 350.757812 249.617188 351.6875 249.617188 351.875 249.710938 C 351.035156 249.710938 350.292969 249.804688 349.550781 249.898438 C 350.386719 249.898438 350.480469 249.898438 350.199219 250.082031 C 349.457031 250.269531 348.433594 250.457031 348.898438 250.546875 C 349.085938 250.363281 349.640625 250.269531 350.292969 250.269531 C 350.945312 250.175781 351.59375 250.269531 352.433594 249.992188 C 352.898438 250.363281 351.6875 250.546875 350.480469 250.640625 C 349.269531 250.734375 347.96875 250.734375 347.96875 251.011719 C 347.96875 250.921875 348.152344 250.921875 348.527344 250.921875 C 348.898438 250.921875 349.269531 250.921875 349.457031 251.011719 C 348.992188 251.105469 348.339844 251.199219 347.6875 251.105469 C 347.597656 251.292969 347.875 251.386719 348.246094 251.386719 C 348.617188 251.476562 349.175781 251.476562 349.269531 251.664062 C 347.78125 251.476562 349.457031 252.035156 349.363281 252.59375 L 348.527344 252.128906 C 347.132812 252.5 349.921875 253.429688 348.339844 253.804688 C 348.152344 253.429688 347.96875 252.964844 347.78125 252.6875 C 347.6875 252.875 347.6875 253.058594 347.597656 253.246094 C 347.410156 252.964844 347.222656 252.6875 346.945312 252.410156 C 346.945312 252.59375 346.945312 252.78125 346.945312 252.875 C 346.851562 253.058594 346.757812 253.246094 346.574219 253.339844 C 346.292969 253.617188 345.921875 253.710938 345.363281 253.988281 C 346.015625 254.269531 346.292969 255.382812 345.550781 256.035156 C 344.621094 256.035156 345.269531 255.105469 344.25 256.128906 C 344.15625 255.476562 343.96875 254.734375 344.992188 254.917969 C 344.898438 254.640625 344.898438 254.269531 344.714844 253.988281 C 343.691406 253.988281 343.132812 255.105469 342.761719 255.476562 C 342.945312 255.382812 343.132812 255.292969 343.316406 255.292969 L 342.480469 257.617188 C 342.015625 257.617188 342.015625 257.246094 342.015625 256.871094 C 341.738281 257.246094 341.832031 257.710938 341.363281 258.175781 C 340.992188 257.523438 340.527344 256.964844 340.992188 256.128906 L 339.96875 258.082031 C 339.691406 257.894531 338.574219 258.082031 338.667969 257.710938 C 337.550781 258.175781 337.550781 260.59375 336.0625 261.148438 C 336.0625 261.335938 336.0625 261.523438 335.878906 261.800781 C 334.761719 262.636719 333.179688 262.824219 332.625 264.683594 L 331.042969 264.40625 C 330.296875 265.519531 333.089844 264.683594 331.878906 266.542969 C 331.042969 267.9375 330.671875 266.171875 330.019531 266.265625 C 329.925781 267.289062 329.925781 269.148438 328.160156 269.425781 C 328.066406 269.890625 328.4375 269.707031 328.71875 269.332031 Z M 317.835938 281.332031 C 317.929688 280.957031 317.929688 280.121094 318.488281 280.308594 C 319.046875 281.238281 318.488281 281.144531 317.835938 281.332031 Z M 322.394531 286.910156 C 322.394531 287.28125 322.113281 287.375 321.554688 287.46875 C 321.742188 287.191406 322.023438 287.003906 322.394531 286.910156 Z M 339.597656 247.105469 C 340.0625 247.757812 339.878906 247.480469 339.597656 247.105469 Z M 338.480469 245.992188 C 338.296875 245.992188 338.203125 246.175781 338.203125 246.269531 C 338.390625 246.085938 338.667969 246.269531 338.945312 246.550781 C 339.039062 246.269531 338.945312 246.085938 338.480469 245.992188 Z M 353.363281 243.292969 L 353.546875 243.667969 C 352.523438 243.480469 352.898438 243.386719 353.363281 243.292969 Z M 353.363281 243.292969 " fill-opacity="1" fill-rule="nonzero"/></g><path fill="#ff6200" d="M 321.277344 289.699219 C 321.089844 289.609375 321 289.515625 320.8125 289.421875 C 320.8125 289.609375 321 289.792969 321.277344 289.699219 Z M 321.277344 289.699219 " fill-opacity="1" fill-rule="nonzero"/><path fill="#ff6200" d="M 359.222656 253.710938 C 358.847656 253.988281 358.570312 254.175781 358.289062 254.269531 C 358.476562 254.269531 358.847656 254.175781 359.222656 253.710938 Z M 359.222656 253.710938 " fill-opacity="1" fill-rule="nonzero"/><path fill="#ff6200" d="M 331.136719 243.015625 L 332.066406 243.386719 C 331.695312 243.203125 331.601562 242.921875 331.507812 242.644531 C 331.414062 242.828125 331.320312 243.203125 331.136719 243.015625 Z M 331.136719 243.015625 " fill-opacity="1" fill-rule="nonzero"/><path fill="#ff6200" d="M 327.695312 233.996094 C 327.507812 233.996094 327.414062 233.808594 327.324219 233.902344 L 327.136719 234.273438 C 327.507812 234.550781 328.066406 234.460938 327.695312 233.996094 Z M 327.695312 233.996094 " fill-opacity="1" fill-rule="nonzero"/><path fill="#ff6200" d="M 332.066406 240.132812 C 332.4375 239.480469 331.785156 239.386719 331.226562 239.109375 C 331.226562 239.109375 331.320312 239.109375 331.320312 239.203125 C 330.578125 239.945312 331.320312 240.039062 332.066406 240.132812 Z M 332.066406 240.132812 " fill-opacity="1" fill-rule="nonzero"/><path fill="#ff6200" d="M 331.042969 239.015625 C 330.855469 238.921875 330.671875 238.832031 330.578125 238.738281 C 330.296875 239.015625 330.671875 238.921875 331.042969 239.015625 Z M 331.042969 239.015625 " fill-opacity="1" fill-rule="nonzero"/><path fill="#ff6200" d="M 336.621094 245.433594 C 336.4375 245.0625 335.972656 246.175781 335.972656 245.804688 C 335.132812 246.457031 338.390625 245.898438 336.621094 245.433594 Z M 336.621094 245.433594 " fill-opacity="1" fill-rule="nonzero"/><path fill="#ff6200" d="M 332.996094 237.808594 L 332.714844 238.644531 L 333.460938 238.273438 Z M 332.996094 237.808594 " fill-opacity="1" fill-rule="nonzero"/><path fill="#ff6200" d="M 336.902344 241.15625 L 336.15625 240.410156 C 336.0625 240.503906 335.972656 240.597656 335.785156 240.503906 C 336.25 240.875 336.714844 241.339844 336.902344 241.15625 Z M 336.902344 241.15625 " fill-opacity="1" fill-rule="nonzero"/><path fill="#ff6200" d="M 335.691406 240.503906 C 335.414062 240.320312 335.132812 240.132812 334.949219 240.226562 C 335.132812 240.226562 335.414062 240.410156 335.691406 240.503906 Z M 335.691406 240.503906 " fill-opacity="1" fill-rule="nonzero"/><path fill="#ff6200" d="M 334.296875 238.273438 L 334.484375 238.644531 L 335.042969 239.109375 Z M 334.296875 238.273438 " fill-opacity="1" fill-rule="nonzero"/><path fill="#ff6200" d="M 346.386719 246.734375 L 347.503906 247.015625 C 347.78125 246.734375 347.503906 246.457031 347.132812 246.363281 C 346.757812 246.457031 346.386719 246.363281 346.386719 246.734375 Z M 346.386719 246.734375 " fill-opacity="1" fill-rule="nonzero"/><path fill="#ff6200" d="M 344.527344 242.921875 C 344.714844 243.203125 344.621094 243.386719 344.621094 243.757812 L 345.179688 242.738281 Z M 344.527344 242.921875 " fill-opacity="1" fill-rule="nonzero"/><path fill="#ff6200" d="M 347.503906 244.132812 C 347.78125 243.851562 349.269531 243.945312 348.0625 243.480469 C 347.78125 243.667969 346.757812 243.480469 347.503906 244.132812 Z M 347.503906 244.132812 " fill-opacity="1" fill-rule="nonzero"/><path fill="#ff6200" d="M 354.199219 254.824219 L 354.386719 254.640625 L 352.058594 254.269531 C 352.804688 254.453125 353.453125 254.640625 354.199219 254.824219 Z M 354.199219 254.824219 " fill-opacity="1" fill-rule="nonzero"/><path fill="#ff6200" d="M 346.292969 268.496094 C 347.597656 267.9375 345.734375 267.472656 346.945312 267.007812 C 346.851562 266.449219 345.921875 267.382812 345.921875 266.824219 C 345.644531 267.753906 345.179688 267.847656 346.292969 268.496094 Z M 346.292969 268.496094 " fill-opacity="1" fill-rule="nonzero"/><path fill="#ff6200" d="M 345.921875 266.914062 C 345.921875 266.730469 346.015625 266.636719 346.015625 266.449219 C 345.921875 266.636719 345.921875 266.824219 345.921875 266.914062 Z M 345.921875 266.914062 " fill-opacity="1" fill-rule="nonzero"/><path fill="#ff6200" d="M 305.5625 220.042969 L 304.910156 219.300781 L 305.1875 220.136719 Z M 305.5625 220.042969 " fill-opacity="1" fill-rule="nonzero"/><path fill="#ff6200" d="M 303.515625 220.601562 L 303.886719 219.394531 L 302.957031 220.136719 C 303.050781 220.230469 303.421875 220.324219 303.515625 220.601562 Z M 303.515625 220.601562 " fill-opacity="1" fill-rule="nonzero"/><path fill="#ff6200" d="M 314.488281 281.515625 L 314.675781 281.796875 C 314.953125 281.886719 315.140625 281.796875 315.417969 281.515625 Z M 314.488281 281.515625 " fill-opacity="1" fill-rule="nonzero"/><path fill="#ff6200" d="M 323.136719 273.519531 L 323.042969 273.613281 L 324.066406 274.167969 Z M 323.136719 273.519531 " fill-opacity="1" fill-rule="nonzero"/><path fill="#ff6200" d="M 329.183594 265.613281 C 328.902344 265.894531 328.71875 266.359375 328.34375 266.636719 C 328.902344 265.800781 330.207031 266.449219 329.183594 265.613281 Z M 329.183594 265.613281 " fill-opacity="1" fill-rule="nonzero"/></svg>