<svg xmlns="http://www.w3.org/2000/svg" xmlns:xlink="http://www.w3.org/1999/xlink" width="500" zoomAndPan="magnify" viewBox="0 0 375 374.999991" height="500" preserveAspectRatio="xMidYMid meet" version="1.0"><defs><clipPath id="1b51ec0f39"><path d="M 21 0 L 354.890625 0 L 354.890625 375 L 21 375 Z M 21 0 " clip-rule="nonzero"/></clipPath></defs><g clip-path="url(#1b51ec0f39)"><path fill="#ff6200" d="M 307.554688 183.472656 C 307.15625 182.628906 306.554688 181.851562 305.824219 181.296875 C 305.292969 179.03125 303.003906 174.949219 301.851562 174.949219 C 301.183594 174.949219 300.894531 174.128906 301.316406 173.0625 C 301.71875 171.972656 301.183594 170.355469 300.097656 169.53125 C 299.011719 168.578125 298.210938 166.957031 298.210938 165.871094 C 298.210938 164.78125 296.855469 161.941406 295.238281 159.65625 C 293.484375 157.214844 292.128906 155.0625 292.128906 154.640625 C 291.863281 152.066406 283.738281 138.527344 281.164062 136.371094 C 279.410156 134.886719 277.925781 133 277.925781 132.3125 C 277.789062 129.203125 272.640625 124.875 270.199219 125.675781 C 268.3125 126.496094 268.023438 126.207031 269.378906 124.851562 C 270.601562 123.5 270.601562 122.410156 269.511719 120.257812 C 267.492188 116.332031 264.917969 114.042969 262.742188 114.042969 C 261.386719 114.042969 261.523438 113.644531 263.007812 112.691406 C 264.761719 111.601562 264.496094 111.070312 261.921875 109.160156 C 260.167969 107.941406 259.082031 106.320312 259.347656 105.5 C 259.613281 104.679688 258.390625 102.390625 256.640625 100.484375 C 254.753906 98.597656 251.488281 94.402344 249.203125 91.136719 C 246.097656 86.808594 244.742188 85.722656 243.921875 87.078125 C 242.964844 88.695312 242.699219 88.5625 242.566406 86.945312 C 242.433594 85.855469 242.433594 84.234375 242.566406 83.28125 C 242.699219 82.460938 241.480469 80.839844 239.726562 79.617188 C 238.105469 78.398438 237.152344 77.042969 237.707031 76.644531 C 238.105469 76.113281 236.484375 73.804688 234.042969 71.496094 C 231.601562 69.1875 228.761719 65.945312 227.960938 64.191406 C 227.140625 62.574219 225.386719 61.21875 224.167969 61.21875 C 222.414062 61.21875 222.414062 60.820312 223.765625 59.199219 C 224.722656 58.113281 224.855469 57.179688 224.167969 57.179688 C 222.414062 57.179688 215.511719 50.675781 211.183594 44.59375 C 209.007812 41.886719 206.722656 39.578125 205.765625 39.578125 C 204.8125 39.578125 202.792969 36.605469 201.039062 32.941406 C 199.019531 28.214844 197.109375 26.039062 194.667969 25.507812 C 192.78125 24.972656 191.5625 24.152344 191.828125 23.488281 C 192.226562 22.820312 190.339844 20.378906 187.632812 18.070312 C 184.925781 15.761719 183.171875 13.875 183.703125 13.875 C 185.457031 13.875 175.179688 4.53125 171.121094 2.378906 C 166.390625 0.0703125 166.792969 0.0703125 164.484375 1.558594 C 162.042969 3.042969 163.527344 14.808594 166.660156 19.292969 C 173.695312 28.902344 179.109375 36.894531 179.109375 37.691406 C 179.109375 38.089844 180.332031 40.265625 181.949219 42.417969 C 183.4375 44.59375 184.257812 46.347656 183.703125 46.347656 C 183.171875 46.347656 184.925781 48.523438 187.632812 51.074219 C 190.472656 53.785156 192.648438 56.492188 192.648438 57.15625 C 192.648438 58.378906 195.222656 62.019531 199.019531 65.945312 C 199.972656 66.902344 200.238281 67.964844 199.839844 68.519531 C 199.308594 68.921875 199.707031 69.34375 200.507812 69.34375 C 201.460938 69.34375 202.125 70.296875 202.125 71.519531 C 202.125 72.605469 202.792969 73.136719 203.480469 72.738281 C 204.300781 72.339844 204.835938 72.472656 204.835938 73.269531 C 204.835938 73.9375 206.054688 74.890625 207.410156 75.445312 C 208.761719 75.847656 210.25 77.464844 210.78125 79.109375 C 211.183594 80.730469 211.871094 81.683594 212.402344 81.128906 C 212.9375 80.597656 214.15625 80.863281 215.246094 81.660156 C 217.820312 83.835938 217.417969 82.195312 214.710938 79.351562 C 213.089844 77.734375 212.957031 77.175781 214.179688 77.597656 C 215.265625 78 216.753906 79.351562 217.550781 80.707031 C 218.773438 82.460938 218.507812 83.414062 216.730469 84.769531 C 214.554688 86.253906 214.710938 86.65625 217.820312 90.050781 C 219.574219 91.9375 221.058594 93.980469 221.058594 94.378906 C 221.058594 94.910156 222.546875 97.21875 224.433594 99.660156 C 226.320312 102.101562 227.808594 104.8125 227.808594 105.609375 C 227.808594 106.5625 228.628906 107.230469 229.695312 107.230469 C 231.578125 107.230469 233.621094 109.40625 241.878906 119.816406 C 243.898438 122.523438 246.207031 124.542969 246.738281 124.144531 C 247.273438 123.742188 248.09375 124.808594 248.625 126.585938 C 249.027344 128.203125 250.933594 131.3125 252.820312 133.621094 C 260.257812 142.144531 261.078125 143.230469 263.386719 146.472656 C 264.605469 148.226562 265.695312 149.046875 265.695312 148.09375 C 265.695312 145.785156 268.003906 146.070312 268.933594 148.625 C 269.335938 149.710938 269.203125 150.246094 268.402344 149.84375 C 267.582031 149.445312 267.046875 149.578125 267.046875 150.246094 C 267.046875 152.265625 276.792969 162.695312 278.011719 162.007812 C 278.546875 161.609375 278.835938 162.40625 278.546875 163.894531 C 278.277344 165.25 279.078125 167.824219 280.300781 169.445312 C 284.359375 174.59375 288.820312 178.921875 290.308594 178.921875 C 290.796875 178.921875 291.152344 179.433594 291.085938 180.140625 C 290.910156 180.429688 290.796875 180.761719 290.773438 181.140625 C 290.574219 181.828125 290.597656 182.25 290.996094 182.40625 C 292.550781 187.046875 296.324219 189.996094 299.742188 193.257812 C 300.496094 193.992188 301.25 194.722656 301.894531 195.566406 C 302.183594 195.921875 302.429688 196.277344 302.714844 196.609375 C 301.804688 196.5 302.273438 196.855469 303.960938 198.253906 C 305.179688 199.339844 306.269531 200.960938 306.269531 201.78125 C 306.269531 202.738281 307.355469 203.269531 308.710938 203.003906 C 311.640625 202.492188 311.574219 196.523438 308.53125 188.621094 C 308.507812 186.910156 308.308594 185.070312 307.554688 183.472656 Z M 302.917969 177.632812 C 303.449219 177.632812 303.136719 178.121094 302.359375 178.855469 C 302.117188 178.589844 301.828125 178.34375 301.519531 178.144531 C 302.074219 177.832031 302.605469 177.632812 302.917969 177.632812 Z M 290.066406 162.761719 C 289.398438 162.761719 288.710938 162.097656 288.710938 161.410156 C 288.710938 160.589844 289.378906 160.054688 290.066406 160.054688 C 290.886719 160.054688 291.417969 160.589844 291.417969 161.410156 C 291.417969 162.074219 290.886719 162.761719 290.066406 162.761719 Z M 299.277344 240.425781 C 303.339844 245.972656 303.070312 247.992188 298.1875 247.992188 C 296.011719 247.992188 294.125 247.328125 294.125 246.640625 C 294.125 245.820312 292.773438 245.285156 291.152344 245.285156 C 287.492188 245.152344 282.230469 242.445312 282.097656 240.558594 C 281.964844 239.890625 281.140625 239.203125 280.210938 239.203125 C 279.390625 239.070312 276.835938 238.25 274.527344 237.316406 C 272.351562 236.363281 269.800781 235.429688 268.980469 235.296875 C 268.023438 235.164062 266.539062 234.476562 265.605469 233.675781 C 264.519531 233.011719 261.277344 231.101562 258.304688 229.75 C 255.328125 228.261719 252.621094 226.640625 252.488281 225.953125 C 252.222656 225.421875 251.402344 225.421875 250.734375 225.820312 C 249.914062 226.21875 246.804688 224.464844 243.566406 221.757812 C 240.324219 219.183594 237.351562 217.296875 237.0625 217.5625 C 236.664062 217.964844 235.308594 217.03125 234.089844 215.675781 C 232.734375 214.191406 230.847656 213.367188 229.761719 213.789062 C 228.671875 214.191406 226.652344 213.125 225.164062 211.480469 C 223.679688 209.730469 222.457031 208.773438 222.457031 209.460938 C 222.457031 209.996094 221.636719 209.730469 220.703125 208.929688 C 219.617188 208.109375 218.394531 207.84375 217.996094 208.398438 C 217.464844 208.796875 217.042969 208.53125 217.042969 207.730469 C 217.042969 206.910156 216.085938 206.511719 215.023438 206.910156 C 213.800781 207.441406 212.582031 206.777344 212.179688 205.421875 C 211.648438 204.203125 209.738281 202.582031 207.988281 201.894531 C 205.964844 201.226562 205.144531 200.007812 205.679688 199.050781 C 206.210938 198.230469 206.078125 197.964844 205.277344 198.386719 C 204.613281 198.785156 201.90625 197.433594 199.332031 195.28125 C 196.753906 193.105469 193.914062 191.351562 192.960938 191.21875 C 192.003906 191.21875 189.984375 189.996094 188.367188 188.511719 C 186.746094 187.15625 184.992188 186.203125 184.304688 186.625 C 183.769531 187.023438 183.214844 186.890625 183.214844 186.222656 C 183.214844 185.691406 180.375 183.648438 176.847656 181.761719 C 171.164062 178.921875 166.835938 175.945312 160.597656 170.929688 C 159.644531 170.109375 158.578125 169.578125 158.023438 169.578125 C 157.46875 169.578125 154.917969 167.402344 152.476562 164.714844 L 147.992188 159.65625 L 150.832031 157.214844 C 152.453125 155.726562 154.761719 154.640625 155.984375 154.640625 C 159.910156 154.640625 168.300781 157.480469 168.300781 158.703125 C 168.300781 159.367188 169.253906 159.65625 170.320312 159.234375 C 171.410156 158.703125 172.339844 158.96875 172.339844 159.765625 C 172.339844 160.433594 174.226562 161.386719 176.535156 161.941406 C 178.84375 162.339844 180.332031 163.296875 179.910156 163.960938 C 179.507812 164.628906 179.910156 165.183594 180.863281 165.050781 C 185.722656 164.917969 187.898438 165.582031 186.144531 166.667969 C 184.660156 167.625 184.660156 167.890625 186.414062 168.554688 C 187.632812 169.089844 188.585938 168.6875 188.585938 167.890625 C 188.585938 167.070312 188.988281 166.804688 189.675781 167.359375 C 190.207031 167.890625 190.628906 169.109375 190.628906 169.800781 C 190.628906 170.621094 191.449219 171.550781 192.382812 171.820312 C 193.203125 172.21875 194.003906 171.820312 194.003906 170.863281 C 194.003906 170.042969 193.335938 169.777344 192.382812 170.332031 C 191.5625 170.863281 191.296875 170.730469 191.851562 169.800781 C 192.382812 168.710938 194.160156 168.976562 197.53125 170.332031 C 206.453125 174.128906 213.222656 178.722656 212.136719 180.476562 C 211.871094 181.007812 212.667969 181.140625 214.023438 180.875 C 215.246094 180.476562 218.484375 181.140625 221.058594 182.230469 C 223.632812 183.316406 225.253906 184.25 224.433594 184.402344 C 222.546875 184.402344 236.75 193.746094 245.40625 198.210938 C 252.976562 202.003906 264.363281 211.460938 264.363281 213.902344 C 264.363281 214.722656 265.582031 214.988281 267.070312 214.566406 C 268.558594 214.167969 269.777344 214.566406 269.777344 215.386719 C 269.777344 216.210938 271.796875 217.695312 274.238281 218.628906 C 276.546875 219.714844 279.789062 221.871094 281.140625 223.488281 C 282.628906 224.976562 284.117188 226.332031 284.804688 226.332031 C 286.003906 226.351562 295.347656 235.429688 299.277344 240.425781 Z M 353.808594 166.402344 C 353.144531 165.738281 353.144531 163.164062 353.675781 160.453125 C 354.34375 157.746094 354.34375 154.375 353.675781 152.730469 C 353.144531 151.109375 352.722656 145.960938 353.011719 141.101562 C 353.144531 136.238281 352.746094 131.222656 352.058594 129.871094 C 351.390625 128.515625 351.523438 126.496094 352.324219 124.851562 C 353.144531 123.367188 353.410156 121.324219 352.855469 120.523438 C 352.191406 119.570312 351.636719 116.195312 351.503906 112.957031 C 351.367188 109.582031 350.546875 106.453125 349.617188 105.921875 C 348.660156 105.386719 348.527344 104.566406 349.214844 104.167969 C 351.234375 102.945312 349.75 89.273438 346.773438 82.105469 C 345.820312 79.929688 345.289062 77.511719 345.421875 76.6875 C 345.554688 75.734375 344.753906 74.800781 343.535156 74.246094 C 342.445312 73.847656 341.515625 71.804688 341.515625 69.785156 C 341.515625 67.078125 341.113281 66.546875 340.292969 67.898438 C 339.628906 68.855469 338.40625 69.253906 337.453125 68.722656 C 336.230469 67.898438 336.230469 67.5 337.453125 66.703125 C 338.539062 66.035156 338.539062 65.480469 337.054688 64.949219 C 335.832031 64.546875 334.34375 64.949219 333.679688 65.769531 C 331.371094 68.742188 329.484375 78.753906 331.238281 79.441406 C 332.058594 79.707031 331.769531 80.109375 330.703125 80.109375 C 329.085938 80.242188 328.683594 82.683594 328.683594 93.359375 C 328.683594 100.925781 329.21875 107.03125 330.039062 107.5625 C 330.859375 108.230469 330.703125 108.652344 329.507812 108.652344 C 328.152344 108.652344 328.019531 109.050781 329.105469 110.402344 C 330.328125 111.890625 331.414062 123.121094 332.082031 140.722656 C 332.082031 141.675781 332.746094 142.476562 333.566406 142.476562 C 334.234375 142.476562 334.523438 141.8125 333.96875 140.855469 C 333.433594 139.902344 333.566406 139.769531 334.5 140.324219 C 335.722656 140.988281 335.722656 142.078125 334.765625 143.851562 C 333.144531 146.828125 333.414062 154.683594 335.167969 154.683594 C 335.832031 154.683594 335.988281 155.773438 335.566406 157.125 C 335.03125 158.613281 335.699219 160.65625 337.1875 162.140625 C 338.671875 163.761719 339.359375 166.203125 339.074219 168.222656 C 338.804688 170.53125 339.738281 172.816406 342.046875 175.390625 C 343.933594 177.566406 345.574219 179.71875 345.574219 180.542969 C 345.574219 181.207031 346.242188 181.894531 346.929688 181.894531 C 352.746094 182.71875 353.011719 182.429688 354.097656 175.125 C 354.609375 170.886719 354.476562 167.089844 353.808594 166.402344 Z M 350.835938 170.886719 C 350.171875 170.886719 349.882812 170.222656 350.304688 169.53125 C 350.703125 168.710938 351.390625 168.179688 351.789062 168.179688 C 352.058594 168.179688 352.324219 168.710938 352.324219 169.53125 C 352.324219 170.199219 351.636719 170.886719 350.835938 170.886719 Z M 267.46875 315 C 267.738281 313.515625 262.742188 312.425781 261.386719 313.648438 C 260.988281 314.046875 259.214844 314.601562 257.460938 314.867188 C 253.664062 315.269531 250.957031 316.222656 243.253906 319.882812 C 240.148438 321.238281 236.886719 322.460938 235.953125 322.460938 C 235.132812 322.460938 231.226562 324.078125 227.296875 325.988281 C 223.5 327.875 220.261719 329.515625 220.128906 329.515625 C 217.417969 329.515625 214.3125 331.402344 214.3125 332.890625 C 214.3125 334.511719 213.914062 334.644531 212.558594 333.421875 C 211.472656 332.601562 210.25 332.46875 209.453125 333.15625 C 208.785156 333.824219 204.300781 335.730469 199.574219 337.21875 C 194.714844 338.839844 190.363281 340.75 189.832031 341.679688 C 189.007812 343.035156 187.523438 343.433594 181.175781 343.988281 C 180.507812 344.121094 180.773438 344.808594 181.839844 345.609375 C 183.59375 346.828125 183.460938 346.964844 181.441406 346.273438 C 180.21875 345.875 177.113281 346.675781 174.671875 348.160156 C 172.363281 349.648438 169.253906 350.871094 167.902344 350.871094 C 166.546875 350.871094 164.925781 352.222656 164.238281 353.84375 C 163.574219 355.597656 163.019531 356.285156 163.019531 355.464844 C 162.886719 353.023438 156.515625 354.929688 152.453125 358.703125 C 150.277344 360.589844 148.523438 362.078125 148.390625 361.945312 C 146.90625 360.855469 143.929688 362.078125 143.929688 363.699219 C 143.929688 364.785156 143.109375 365.320312 142.175781 364.917969 C 139.734375 363.964844 137.160156 367.226562 137.847656 370.46875 C 138.113281 371.957031 138.382812 373.707031 138.382812 374.261719 C 138.515625 374.929688 139.867188 374.929688 141.355469 374.53125 C 142.976562 373.996094 145.019531 373.441406 145.816406 373.308594 C 146.636719 373.175781 148.125 372.488281 149.191406 371.957031 C 150.542969 371 150.8125 371.289062 150.144531 372.621094 C 149.613281 373.707031 150.011719 373.574219 150.964844 372.355469 C 151.921875 371.132812 155.292969 369.648438 158.535156 369.113281 C 161.640625 368.582031 164.21875 367.628906 164.21875 366.9375 C 164.21875 366.117188 164.75 365.851562 165.304688 366.273438 C 166.523438 367.09375 177.066406 364.253906 178.554688 362.609375 C 179.089844 362.078125 180.996094 361.65625 182.75 361.65625 C 184.503906 361.65625 185.859375 361.125 185.859375 360.570312 C 185.859375 359.902344 188.964844 358.683594 192.894531 357.726562 C 200.460938 355.972656 211.558594 350.957031 211.558594 349.339844 C 211.558594 348.671875 212.515625 348.515625 213.578125 348.9375 C 214.667969 349.472656 215.597656 349.203125 215.597656 348.671875 C 215.597656 348.007812 217.085938 347.316406 218.972656 347.316406 C 220.859375 347.183594 224.121094 345.964844 226.140625 344.609375 C 228.160156 343.257812 234 340.148438 239.125 337.839844 C 244.277344 335.398438 248.738281 332.980469 249.269531 332.292969 C 249.667969 331.757812 251.023438 331.070312 252.109375 330.804688 C 253.199219 330.539062 255.085938 329.449219 256.304688 328.363281 C 257.394531 327.277344 259.148438 326.476562 260.101562 326.476562 C 261.1875 326.476562 261.589844 325.65625 261.054688 324.300781 C 260.390625 322.414062 260.523438 322.28125 262.011719 323.636719 C 264.851562 325.945312 270.933594 320.792969 268.78125 318.21875 C 268.003906 317.15625 267.335938 315.667969 267.46875 315 Z M 147.039062 367.761719 C 146.636719 368.980469 145.949219 369.648438 145.683594 369.246094 C 145.285156 368.847656 145.417969 368.027344 145.949219 367.226562 C 147.171875 365.074219 147.992188 365.472656 147.039062 367.761719 Z M 187.234375 356.949219 C 185.613281 355.863281 182.773438 350.871094 183.859375 350.871094 C 184.394531 350.871094 185.480469 351.691406 186.300781 352.621094 C 188.300781 354.777344 189.121094 358.015625 187.234375 356.949219 Z M 211.183594 339.484375 C 209.960938 340.703125 207.386719 338.660156 208.339844 337.042969 C 208.875 336.21875 209.695312 336.21875 210.648438 337.175781 C 211.449219 337.996094 211.714844 338.949219 211.183594 339.484375 Z M 246.363281 323.257812 C 245.960938 323.65625 244.742188 323.789062 243.789062 323.390625 C 242.699219 322.992188 243.121094 322.570312 244.609375 322.570312 C 246.097656 322.4375 246.894531 322.835938 246.363281 323.257812 Z M 152.1875 276.160156 C 162.0625 275.894531 163.816406 275.492188 163.285156 273.71875 C 162.886719 272.363281 163.152344 272.363281 164.238281 273.984375 C 165.992188 276.824219 175.871094 277.511719 174.25 274.648438 C 173.429688 273.429688 173.714844 273.429688 175.335938 274.785156 C 176.558594 275.738281 180.199219 276.535156 183.460938 276.671875 C 186.566406 276.671875 195.222656 276.804688 202.546875 276.9375 C 209.71875 276.9375 215.664062 277.335938 215.664062 277.890625 C 215.664062 278.976562 258.570312 278.558594 259.789062 277.359375 C 260.324219 276.824219 259.65625 276.402344 258.171875 276.269531 C 255.730469 276.269531 255.730469 276.136719 258.304688 275.050781 C 260.878906 273.960938 260.480469 273.695312 255.996094 273.164062 C 255.039062 273.03125 253.554688 273.828125 252.621094 275.050781 C 251.265625 276.671875 251.132812 276.535156 251.800781 273.695312 C 252.199219 271.808594 252.066406 270.722656 251.535156 271.253906 C 251 271.785156 249.226562 271.519531 247.605469 270.722656 C 243.808594 268.546875 238.394531 268.015625 239.480469 269.902344 C 240.015625 270.566406 238.816406 270.300781 236.90625 269.078125 C 233.378906 266.636719 224.320312 265.015625 214.046875 264.882812 C 210.382812 264.882812 207.542969 264.484375 207.542969 264.0625 C 207.542969 263.109375 201.039062 261.753906 191.984375 260.824219 C 189.007812 260.421875 184.8125 259.867188 182.507812 259.46875 C 180.332031 259.070312 175.070312 258.515625 171.007812 258.113281 C 166.945312 257.847656 161 257.160156 157.890625 256.761719 C 151.941406 255.941406 149.769531 256.09375 150.324219 257.582031 C 150.457031 258.113281 149.367188 258.246094 148.015625 257.847656 C 146.527344 257.449219 145.304688 256.628906 145.304688 256.09375 C 145.304688 255.5625 141.511719 255.007812 136.917969 255.007812 C 132.1875 255.007812 120.804688 254.742188 111.480469 254.476562 C 102.136719 254.207031 90.507812 254.207031 85.488281 254.476562 C 80.339844 254.742188 76.277344 255.429688 76.277344 256.09375 C 76.277344 256.761719 77.367188 257.050781 78.71875 256.496094 C 80.605469 255.828125 80.738281 256.09375 79.386719 257.449219 C 78.03125 258.9375 77.078125 258.9375 74.371094 257.449219 C 71.527344 255.960938 70.175781 256.09375 65.847656 257.714844 C 63.007812 258.804688 59.34375 259.601562 57.722656 259.46875 C 55.96875 259.335938 54.617188 259.601562 54.617188 260.132812 C 54.617188 260.667969 53.128906 260.800781 51.375 260.535156 C 49.488281 260.132812 45.695312 260.667969 42.851562 261.621094 C 40.011719 262.710938 37.171875 263.507812 36.347656 263.507812 C 33.90625 263.640625 22.410156 271.078125 21.746094 272.984375 C 20.390625 276.226562 24.585938 278.136719 34.0625 278.667969 C 46.382812 279.488281 59.234375 278.667969 78.320312 275.828125 C 80.496094 275.425781 83.046875 275.828125 84.003906 276.492188 C 85.089844 277.445312 86.578125 277.445312 88.464844 276.359375 C 90.21875 275.40625 93.613281 275.273438 97.675781 275.828125 C 101.203125 276.492188 104.3125 276.78125 104.710938 276.78125 C 113.5 274.761719 121.492188 274.339844 129.058594 275.558594 C 134.320312 276.558594 135.941406 276.558594 152.1875 276.160156 Z M 201.703125 271.832031 C 202.925781 270.609375 206.167969 270.878906 206.167969 272.230469 C 206.167969 273.851562 202.371094 275.207031 201.570312 273.851562 C 201.171875 273.183594 201.171875 272.363281 201.703125 271.832031 Z M 43.386719 269.125 C 42.984375 269.523438 41.765625 269.65625 40.808594 269.257812 C 39.722656 268.855469 40.144531 268.4375 41.632812 268.4375 C 43.097656 268.300781 43.917969 268.722656 43.386719 269.125 Z M 45.539062 277.113281 C 45.136719 278.335938 44.449219 279 44.183594 278.601562 C 43.785156 278.203125 43.917969 277.378906 44.449219 276.582031 C 45.671875 274.40625 46.492188 274.804688 45.539062 277.113281 Z M 45.539062 277.113281 " fill-opacity="1" fill-rule="evenodd"/></g></svg>