<svg xmlns="http://www.w3.org/2000/svg" xmlns:xlink="http://www.w3.org/1999/xlink" width="500" zoomAndPan="magnify" viewBox="0 0 375 374.999991" height="500" preserveAspectRatio="xMidYMid meet" version="1.0"><path fill="#ff6200" d="M 166.4375 81.609375 C 162.003906 88.535156 162.28125 89.917969 170.589844 116.785156 C 175.578125 132.292969 185.824219 166.914062 193.578125 193.503906 C 207.703125 242.25 214.351562 258.039062 222.9375 261.085938 C 228.753906 263.300781 232.078125 258.316406 232.078125 246.957031 C 232.078125 225.910156 208.257812 126.476562 195.519531 94.347656 C 187.210938 73.578125 175.300781 68.316406 166.4375 81.609375 Z M 166.4375 81.609375 " fill-opacity="1" fill-rule="evenodd"/><path fill="#ff6200" d="M 346.742188 120.9375 C 343.972656 123.707031 338.710938 132.015625 335.386719 139.773438 C 332.0625 147.25 322.371094 168.855469 313.507812 187.964844 C 297.441406 223.417969 291.347656 248.898438 298.828125 248.898438 C 319.324219 248.898438 374.992188 143.371094 365.300781 122.601562 C 361.699219 114.566406 354.21875 114.015625 346.742188 120.9375 Z M 346.742188 120.9375 " fill-opacity="1" fill-rule="evenodd"/><path fill="#ff6200" d="M 12.164062 235.878906 C -0.0195312 244.742188 15.210938 259.699219 52.046875 274.65625 C 105.503906 296.535156 148.15625 306.785156 153.140625 298.476562 C 156.1875 294.042969 143.726562 282.410156 126.832031 273.824219 C 96.917969 258.867188 28.230469 232.28125 18.8125 232.28125 C 17.980469 232.28125 14.933594 233.941406 12.164062 235.878906 Z M 12.164062 235.878906 " fill-opacity="1" fill-rule="evenodd"/></svg>