<svg xmlns="http://www.w3.org/2000/svg" xmlns:xlink="http://www.w3.org/1999/xlink" width="500" zoomAndPan="magnify" viewBox="0 0 375 374.999991" height="500" preserveAspectRatio="xMidYMid meet" version="1.0"><defs><clipPath id="4c61a64e44"><path d="M 37.5 194 L 178 194 L 178 329.523438 L 37.5 329.523438 Z M 37.5 194 " clip-rule="nonzero"/></clipPath></defs><g clip-path="url(#4c61a64e44)"><path fill="#000000" d="M 115.304688 309.835938 C 108.566406 315.726562 103.269531 323.308594 96.664062 329.160156 C 110.734375 325.476562 120.1875 312.6875 129.738281 302.507812 C 149.507812 279.367188 174.886719 244.128906 177.929688 213.363281 C 178.789062 199.042969 167.398438 191.605469 154.148438 195.359375 C 145.917969 197.429688 138.535156 202.109375 132.144531 207.566406 C 117.527344 220.179688 106.777344 236.757812 98.710938 254.144531 C 95.859375 239.621094 91.460938 223.445312 79.046875 214.195312 C 72.214844 209.542969 63.511719 206.558594 55.226562 208.253906 C 42.234375 211.144531 37.929688 226.015625 37.902344 237.792969 C 37.527344 263.542969 54.203125 285.367188 72.308594 302.050781 C 78.804688 307.351562 87.882812 317.472656 96.679688 317.488281 C 95.441406 316.828125 94.390625 315.738281 93.476562 314.53125 C 93.25 314.246094 92.992188 313.980469 92.777344 313.695312 C 93.664062 314.289062 94.605469 314.785156 95.667969 314.851562 C 97.550781 314.800781 98.683594 314.21875 99.289062 313.320312 C 100.859375 312.808594 102.449219 312.148438 104.050781 311.261719 C 104.574219 311.570312 105.113281 311.707031 105.664062 311.398438 C 105.285156 311.4375 104.992188 311.222656 104.75 310.898438 C 105.570312 310.429688 106.402344 309.835938 107.222656 309.273438 C 106.96875 309.730469 106.605469 310.132812 106.175781 310.335938 C 106.347656 310.386719 106.523438 310.402344 106.683594 310.402344 C 107.71875 310.402344 108.648438 309.609375 109.523438 309.109375 C 112.980469 306.664062 116.167969 303.8125 118.882812 300.546875 C 124.007812 294.132812 129.132812 287.691406 134.054688 281.128906 C 143.078125 268.839844 151.796875 256.039062 157.59375 241.894531 C 161.503906 234.703125 165.394531 227.46875 169.183594 220.234375 C 170.101562 218.335938 171.164062 216.414062 172.050781 214.4375 C 171.324219 228.003906 161.277344 246.292969 156.554688 255.355469 C 145.109375 275.148438 131.109375 293.351562 115.28125 309.835938 Z M 144.476562 205.660156 C 149.710938 202.6875 157.214844 199.230469 163.507812 200.402344 C 158.453125 200.992188 152.75 203.65625 149.226562 205.617188 C 141.601562 209.851562 134.648438 215.367188 128.417969 221.457031 C 122.328125 227.535156 116.851562 234.230469 111.929688 241.316406 C 120.203125 227.253906 130.734375 214.546875 144.476562 205.660156 Z M 100.121094 284.921875 C 99.652344 282.835938 99.261719 280.753906 99.003906 278.65625 C 99.058594 278.453125 99.140625 278.292969 99.179688 278.089844 C 102.246094 269.675781 106.175781 261.296875 110.933594 253.335938 C 106.753906 261.917969 103.011719 271.851562 102.503906 281.050781 C 101.707031 282.339844 100.914062 283.644531 100.109375 284.921875 Z M 91.285156 274.59375 C 84.75 259.1875 78.332031 243.574219 73.0625 227.667969 C 81.976562 241.910156 86.660156 258.003906 91.367188 274.070312 C 91.324219 274.246094 91.3125 274.421875 91.285156 274.59375 Z M 90.195312 286.65625 C 90.113281 286.953125 90.007812 287.234375 89.914062 287.515625 C 89.578125 288.941406 89.214844 290.476562 89 292.019531 C 86.914062 288.984375 84.707031 285.972656 83.402344 282.570312 C 80.632812 272.78125 78.210938 262.882812 76.167969 252.921875 C 80.390625 264.324219 85.664062 275.375 90.210938 286.644531 Z M 95.023438 299.96875 C 95.199219 300.53125 95.441406 301.070312 95.601562 301.636719 C 95.265625 301.136719 94.917969 300.652344 94.566406 300.15625 C 94.726562 300.128906 94.863281 300.023438 95.011719 299.96875 Z M 96.261719 302.617188 C 96.609375 302.964844 97.042969 303.234375 97.511719 303.355469 C 98.171875 303.53125 98.84375 303.53125 99.449219 303.300781 C 99.894531 304.230469 100.726562 306.53125 101.777344 308.480469 C 101.117188 309.152344 100.445312 309.808594 99.757812 310.46875 C 99.460938 307.753906 97.632812 304.472656 96.25 302.617188 Z M 86.96875 234.070312 C 89.777344 240.65625 91.796875 247.839844 92.992188 255.140625 C 92.832031 256.132812 92.644531 257.144531 92.535156 258.125 C 87.332031 243.160156 82.140625 226.96875 70.359375 215.824219 C 72.484375 216.75 74.5 217.933594 76.328125 219.277344 C 81.277344 223.015625 84.492188 228.488281 86.96875 234.070312 Z M 58.910156 219.777344 C 59.53125 218.285156 60.417969 216.84375 61.761719 216.84375 C 62.21875 216.84375 62.730469 217.007812 63.308594 217.410156 C 66.226562 232.484375 69.078125 247.597656 72.363281 262.589844 C 67.410156 252.371094 62.90625 241.933594 58.226562 231.582031 C 56.128906 227.953125 57.726562 223.648438 58.910156 219.777344 Z M 45.867188 253.984375 C 43.09375 244.234375 42.488281 232.886719 46.296875 223.257812 C 48.257812 218.109375 51.703125 215.300781 55.765625 214.15625 C 54.109375 216.105469 52.96875 218.660156 52.511719 221.066406 C 42.839844 218 51.152344 237.726562 52.253906 241.746094 C 56.261719 263.433594 66.902344 283.726562 80.484375 300.949219 C 81.183594 301.742188 81.871094 302.5625 82.554688 303.371094 C 66.902344 289.898438 51.757812 274.191406 45.878906 253.984375 Z M 103.175781 300.949219 C 102.917969 298.246094 102.476562 295.570312 101.9375 292.910156 C 102.421875 292.140625 102.890625 291.375 103.347656 290.597656 C 103.832031 292.4375 104.492188 294.214844 105.421875 295.878906 C 105.785156 296.363281 106.402344 296.890625 106.914062 296.996094 C 106.699219 296.769531 106.550781 296.511719 106.414062 296.242188 C 105.40625 292.316406 106.347656 288.214844 107.210938 284.234375 C 111.511719 276.949219 116.085938 269.808594 121.007812 262.910156 C 124.894531 257.734375 127.707031 251.886719 129.820312 245.78125 C 125.03125 248.96875 120.792969 253.269531 117.445312 258.03125 C 115.46875 260.625 113.625 263.3125 111.835938 266.03125 C 116.410156 252.800781 123.632812 240.589844 133.113281 229.953125 C 159.042969 201.421875 160.027344 219.734375 152.507812 239.3125 C 149.710938 244.289062 146.914062 249.238281 144.195312 254.226562 C 134.148438 271.113281 122.769531 287.355469 108.757812 301.203125 C 107.007812 302.964844 105.339844 304.796875 103.660156 306.597656 C 103.445312 304.324219 103.429688 301.902344 103.1875 300.9375 Z M 167.867188 209.234375 C 166.160156 213.28125 164.261719 217.261719 162.285156 221.203125 C 162.125 218.457031 161.492188 215.78125 160.011719 213.335938 C 158.414062 210.941406 156.300781 209.878906 154.027344 209.585938 C 154.875 209.152344 155.722656 208.710938 156.597656 208.320312 C 159.367188 207.3125 169.46875 202.941406 167.867188 209.234375 Z M 167.867188 209.234375 " fill-opacity="1" fill-rule="nonzero"/></g><path fill="#000000" d="M 264.382812 165.480469 C 264.382812 165.480469 264.339844 165.507812 264.328125 165.535156 C 274.375 163.089844 283.292969 157.023438 291.253906 150.503906 C 305.242188 139.773438 316.875 126.328125 326.0625 111.320312 C 326.0625 111.347656 326.035156 111.363281 326.035156 111.375 C 326.035156 111.390625 326.007812 111.414062 326.007812 111.441406 C 326.0625 111.335938 326.117188 111.226562 326.183594 111.121094 C 326.210938 111.078125 326.238281 111.027344 326.25 110.984375 C 330.273438 105.96875 332.828125 100.859375 334.089844 96.085938 C 338.195312 87.457031 342.027344 78.273438 340.226562 68.832031 C 338.113281 60.363281 328.347656 59.179688 321.449219 62.433594 C 302.835938 70.566406 290.058594 87.5625 277.214844 102.648438 C 278.007812 84.820312 274.898438 63.84375 260.402344 51.824219 C 255.652344 48.03125 250.433594 45.960938 245.632812 46.054688 C 242.835938 45.800781 240.117188 46.671875 237.820312 48.582031 C 235.167969 50.464844 232.921875 53.398438 231.375 57.605469 C 222.109375 84.550781 233.527344 121.945312 247.339844 145.796875 C 251.566406 151.914062 256.757812 163.761719 264.367188 165.480469 Z M 245.792969 51.824219 C 248.230469 52.386719 250.164062 54.457031 251.578125 56.449219 C 244.007812 50.949219 238.546875 59.5 237.199219 66.292969 C 237.199219 61.960938 237.914062 55.976562 241.421875 53.101562 C 242.648438 52.292969 244.113281 51.863281 245.792969 51.824219 Z M 263.105469 126.3125 C 261.019531 129.324219 258.855469 136.265625 264.328125 136.734375 C 268.457031 136.046875 270.851562 131.652344 273.300781 128.640625 C 271.296875 129.230469 269.128906 130.160156 267.113281 130.980469 C 271.105469 123.785156 275.867188 117.398438 280.789062 110.878906 C 280.359375 111.550781 279.902344 112.210938 279.472656 112.867188 C 277.011719 117.0625 271.671875 126.554688 274 131.179688 C 275.667969 133.050781 277.832031 130.589844 279.015625 129.300781 C 278.035156 129.460938 276.917969 130.214844 275.828125 130.144531 C 275.800781 129.472656 276.230469 128.734375 276.566406 128.128906 C 282.472656 118.742188 288.308594 109.304688 294.84375 100.335938 C 297.265625 97.3125 304.945312 87.09375 310.5 82.050781 C 312.261719 81.175781 313.902344 80.492188 315.398438 80.019531 C 317.171875 86.539062 314.28125 93.652344 312.035156 99.851562 C 306.425781 113.632812 297.050781 126.234375 286.238281 136.746094 C 280.253906 141.398438 274.589844 146.5625 267.917969 150.179688 C 267.542969 147.546875 268.566406 142.757812 264.570312 142.867188 C 262.984375 142.988281 261.878906 144.386719 261.949219 145.945312 C 262.082031 148.648438 262.136719 151.378906 262.042969 154.078125 C 261.167969 152.464844 260.375 150.8125 259.554688 149.183594 C 258.867188 147.839844 258.222656 146.484375 257.550781 145.136719 C 258.558594 145.835938 259.78125 146.941406 261.101562 146.535156 C 260.171875 146.335938 259.582031 145.367188 259.054688 144.507812 C 252.855469 131.140625 247.246094 117.320312 243.199219 103.121094 C 241.046875 93.277344 240.695312 83.527344 241.734375 73.390625 C 242.175781 70.632812 243.453125 60.28125 247.316406 60.507812 C 253.179688 64.867188 255.234375 72.851562 258.046875 79.332031 C 262.5 89.914062 261.53125 101.453125 261.894531 112.761719 L 261.894531 112.371094 C 261.894531 115.125 261.960938 117.882812 261.921875 120.640625 C 261.972656 122.523438 261.355469 125.023438 263.105469 126.285156 Z M 328.308594 95.214844 C 327.367188 97.203125 326.425781 99.046875 325.578125 100.566406 C 325.605469 100.511719 325.632812 100.472656 325.671875 100.417969 C 324.207031 102.984375 322.660156 105.648438 321.140625 108.363281 C 320.519531 109.0625 319.890625 109.761719 319.203125 110.40625 C 315.398438 114.132812 311.292969 117.507812 307.113281 120.789062 C 309.601562 117.101562 311.953125 113.339844 313.945312 109.398438 C 318.382812 100.148438 323.144531 89.621094 321.152344 79.160156 C 328.550781 79.550781 330.515625 86.972656 328.292969 95.214844 Z M 236.878906 101.480469 C 237.375 104.988281 238.089844 108.445312 238.894531 111.871094 C 237.066406 105.703125 235.746094 99.382812 234.914062 92.996094 C 235.53125 95.832031 236.191406 98.667969 236.878906 101.480469 Z M 292.695312 141.859375 C 284.179688 149.011719 274.992188 155.332031 267.003906 163.101562 C 267.179688 162.402344 267.234375 161.664062 267.328125 160.9375 C 265.808594 162.550781 265.335938 163.425781 264.460938 162.496094 C 266.585938 161.597656 267.675781 158.449219 267.648438 156.082031 C 270.5 155.4375 273.058594 154.066406 275.464844 152.414062 C 280.601562 150.542969 285 145.472656 288.96875 142.097656 C 289.238281 141.84375 289.480469 141.5625 289.75 141.304688 C 295.035156 137.207031 300.386719 133.171875 305.699219 129.109375 C 301.691406 133.65625 297.441406 137.984375 292.695312 141.84375 Z M 333.566406 81.550781 C 331 75.664062 325.175781 72.328125 316.96875 73.808594 C 315.90625 73.457031 314.765625 73.390625 313.59375 73.605469 C 314.9375 72.636719 316.203125 71.5625 317.617188 70.675781 C 335.492188 60.628906 336.808594 70.03125 333.582031 81.550781 Z M 263.832031 64.339844 C 269.25 73.726562 271.390625 85.089844 271.683594 95.898438 C 271.683594 99.609375 271.484375 103.226562 270.917969 106.84375 C 269.921875 100.121094 268.296875 93.492188 266.464844 86.957031 C 265.417969 77.503906 263.5625 68 259.648438 59.300781 C 259.539062 59.03125 259.417969 58.816406 259.296875 58.558594 C 261.03125 60.308594 262.566406 62.269531 263.816406 64.328125 Z M 263.832031 64.339844 " fill-opacity="1" fill-rule="nonzero"/></svg>