<svg xmlns="http://www.w3.org/2000/svg" xmlns:xlink="http://www.w3.org/1999/xlink" width="500" zoomAndPan="magnify" viewBox="0 0 375 374.999991" height="500" preserveAspectRatio="xMidYMid meet" version="1.0"><defs><clipPath id="1ae35c2ad8"><path d="M 57 272 L 216 272 L 216 326.832031 L 57 326.832031 Z M 57 272 " clip-rule="nonzero"/></clipPath></defs><path fill="#000000" d="M 278.511719 50.980469 C 275.226562 56.300781 269.746094 97.792969 269.746094 117.519531 C 269.746094 130.042969 270.058594 131.609375 273.660156 135.054688 C 277.886719 139.4375 285.089844 140.0625 295.105469 137.089844 C 304.1875 134.425781 304.8125 135.992188 301.996094 153.527344 C 298.082031 177.167969 299.175781 199.246094 304.1875 199.246094 C 306.535156 199.246094 308.570312 192.355469 313.578125 167.933594 C 321.5625 129.574219 316.238281 116.734375 294.480469 122.214844 C 289.628906 123.46875 285.246094 124.09375 284.773438 123.625 C 284.304688 123.3125 284.304688 110.472656 284.933594 95.285156 C 285.558594 76.34375 285.246094 64.914062 283.992188 58.652344 C 282.113281 50.351562 280.390625 47.847656 278.511719 50.980469 Z M 278.511719 50.980469 " fill-opacity="1" fill-rule="evenodd"/><path fill="#000000" d="M 111.328125 91.371094 C 109.761719 92.78125 116.804688 111.726562 124.007812 125.972656 C 133.085938 144.289062 169.246094 205.035156 172.378906 207.386719 C 176.292969 210.203125 184.277344 209.890625 188.660156 206.445312 C 190.695312 204.722656 196.171875 196.269531 200.867188 187.660156 C 205.566406 178.890625 209.949219 171.847656 210.574219 171.847656 C 211.199219 171.847656 217.933594 182.179688 225.445312 194.859375 C 239.847656 219.597656 245.640625 226.644531 250.804688 226.644531 C 253.46875 226.644531 254.09375 225.703125 254.09375 221.945312 C 254.09375 215.996094 252.214844 212.082031 237.03125 187.816406 C 223.253906 165.582031 218.558594 159.945312 212.453125 158.382812 C 205.410156 156.660156 201.027344 160.574219 190.851562 177.636719 C 185.683594 186.5625 180.832031 193.765625 180.363281 193.765625 C 179.890625 193.765625 175.664062 187.660156 171.125 179.988281 C 163.300781 166.992188 115.554688 94.191406 113.363281 91.527344 C 112.734375 90.902344 111.796875 90.746094 111.328125 91.371094 Z M 111.328125 91.371094 " fill-opacity="1" fill-rule="evenodd"/><g clip-path="url(#1ae35c2ad8)"><path fill="#000000" d="M 147.800781 275.019531 C 144.042969 278.777344 143.574219 284.882812 146.390625 299.601562 C 147.332031 305.082031 147.800781 309.933594 147.332031 310.558594 C 146.707031 311.03125 137.625 309.933594 126.980469 308.210938 C 116.492188 306.488281 100.996094 304.140625 92.855469 303.359375 C 71.878906 301.011719 53.09375 303.359375 57.789062 308.054688 C 59.824219 310.089844 141.382812 326.84375 149.523438 326.84375 C 158.601562 326.84375 161.734375 322.773438 161.734375 310.714844 C 161.734375 305.394531 160.949219 298.191406 160.167969 294.746094 C 159.386719 291.304688 159.074219 288.328125 159.386719 288.015625 C 159.542969 287.703125 167.054688 291.144531 175.820312 295.53125 C 197.425781 306.332031 220.125 311.34375 215.269531 303.984375 C 213.390625 301.167969 195.703125 289.894531 180.207031 281.597656 C 162.359375 272.046875 152.8125 270.011719 147.800781 275.019531 Z M 147.800781 275.019531 " fill-opacity="1" fill-rule="evenodd"/></g></svg>