<svg xmlns="http://www.w3.org/2000/svg" xmlns:xlink="http://www.w3.org/1999/xlink" width="500" zoomAndPan="magnify" viewBox="0 0 375 374.999991" height="500" preserveAspectRatio="xMidYMid meet" version="1.0"><defs><clipPath id="b0a5b38ae9"><path d="M 91 59.625 L 305 59.625 L 305 315.375 L 91 315.375 Z M 91 59.625 " clip-rule="nonzero"/></clipPath><clipPath id="a6cc06b71a"><path d="M 69.054688 105 L 141 105 L 141 228 L 69.054688 228 Z M 69.054688 105 " clip-rule="nonzero"/></clipPath></defs><g clip-path="url(#b0a5b38ae9)"><path fill="#1d1d1b" d="M 301.125 59.871094 C 278.714844 61.746094 256.425781 68.097656 235.71875 76.933594 C 144.359375 116.46875 85.203125 214.109375 91.894531 313.226562 C 91.976562 314.386719 92.9375 315.320312 94.117188 315.339844 C 95.367188 315.359375 96.402344 314.367188 96.421875 313.109375 C 96.933594 283.835938 102.433594 254.878906 112.523438 227.71875 C 142.648438 143.957031 216.492188 86.152344 302.144531 66.128906 C 305.988281 65.117188 304.953125 59.617188 301.125 59.871094 Z M 301.125 59.871094 " fill-opacity="1" fill-rule="nonzero"/></g><g clip-path="url(#a6cc06b71a)"><path fill="#1d1d1b" d="M 140.394531 110.90625 C 142.40625 108.027344 138.851562 104.441406 135.941406 106.394531 C 99.976562 130.902344 75.65625 182.476562 69.496094 224.667969 C 69.113281 227.363281 72.976562 228.269531 73.890625 225.769531 C 78.820312 212.550781 84.136719 199.773438 90.328125 187.242188 C 98.902344 169.925781 109.253906 153.476562 120.753906 137.980469 C 127.1875 129.015625 133.90625 120.261719 140.394531 110.90625 Z M 140.394531 110.90625 " fill-opacity="1" fill-rule="nonzero"/></g></svg>